<svg xmlns="http://www.w3.org/2000/svg" xmlns:xlink="http://www.w3.org/1999/xlink" viewBox="0 0 867.22 980.11"><defs><style>.cls-1{opacity:0.25;}.cls-2{fill:red;}.cls-3{opacity:0.3;}.cls-4{fill:#2500ff;}.cls-5{fill:url(#linear-gradient);}.cls-6{fill:url(#linear-gradient-2);}.cls-7{fill:url(#linear-gradient-3);}.cls-8{fill:url(#linear-gradient-4);}</style><linearGradient id="linear-gradient" x1="636.79" y1="890.35" x2="465.7" y2="1143.91" gradientTransform="translate(218.22 -726.08) rotate(6.79)" gradientUnits="userSpaceOnUse"><stop offset="0.2" stop-color="#fff"/><stop offset="0.3" stop-color="#dedede"/><stop offset="0.65" stop-color="#686868"/><stop offset="0.89" stop-color="#1d1d1d"/><stop offset="1"/></linearGradient><linearGradient id="linear-gradient-2" x1="555.84" y1="829.46" x2="405.13" y2="1476.49" gradientTransform="translate(218.22 -726.08) rotate(6.79)" gradientUnits="userSpaceOnUse"><stop offset="0" stop-color="#fff"/><stop offset="0.07" stop-color="#dedede"/><stop offset="0.32" stop-color="#686868"/><stop offset="0.5" stop-color="#1d1d1d"/><stop offset="0.58"/></linearGradient><linearGradient id="linear-gradient-3" x1="273.12" y1="1192.97" x2="-23.73" y2="896.12" gradientTransform="translate(218.22 -726.08) rotate(6.79)" gradientUnits="userSpaceOnUse"><stop offset="0.16"/><stop offset="0.55" stop-color="#fff"/></linearGradient><linearGradient id="linear-gradient-4" x1="64.55" y1="1616.74" x2="689.21" y2="949.38" gradientTransform="translate(218.22 -726.08) rotate(6.79)" gradientUnits="userSpaceOnUse"><stop offset="0.25"/><stop offset="0.55" stop-color="#fff"/></linearGradient></defs><g id="Layer_2" data-name="Layer 2"><g id="Layer_1-2" data-name="Layer 1"><g class="cls-1"><polygon class="cls-2" points="462.84 108.41 861.73 445.94 867.22 337.64 468.32 0.11 462.84 108.41"/><polygon class="cls-2" points="861.66 442.25 281.25 348.75 285.83 240.41 866.24 333.91 861.66 442.25"/><polygon class="cls-2" points="462.74 108.34 6.13 462.04 10.73 353.7 467.34 0 462.74 108.34"/><polygon class="cls-2" points="280.4 348.76 558.29 765.65 563.78 657.35 285.89 240.46 280.4 348.76"/></g><g class="cls-3"><polygon class="cls-4" points="447.52 322.88 846.41 660.41 851.9 552.11 453 214.58 447.52 322.88"/><polygon class="cls-4" points="846.34 656.72 265.93 563.22 270.51 454.88 850.92 548.38 846.34 656.72"/><polygon class="cls-4" points="265.08 563.23 542.97 980.12 548.46 871.82 270.57 454.93 265.08 563.23"/></g><polygon class="cls-5" points="456.71 218.71 855.6 556.24 861.09 447.94 462.2 110.41 456.71 218.71"/><polygon class="cls-6" points="855.53 552.55 275.12 459.05 279.7 350.71 860.12 444.21 855.53 552.55"/><polygon class="cls-7" points="456.61 218.64 0 572.34 4.6 464 461.21 110.3 456.61 218.64"/><polygon class="cls-8" points="274.28 459.06 552.16 875.94 557.65 767.65 279.76 350.76 274.28 459.06"/></g></g></svg>