<svg xmlns="http://www.w3.org/2000/svg" xmlns:xlink="http://www.w3.org/1999/xlink" viewBox="0 0 1104.05 1025.52"><defs><style>.cls-1{filter:url(#filter);}.cls-2{fill:blue;}.cls-3{filter:url(#filter-2);}</style><filter id="filter"><feOffset input="SourceAlpha"/><feGaussianBlur stdDeviation="5" result="blur"/><feFlood/><feComposite operator="in" in2="blur"/><feComposite in="SourceGraphic"/></filter><filter id="filter-2"><feOffset input="SourceAlpha"/><feGaussianBlur stdDeviation="5" result="blur-2"/><feFlood/><feComposite operator="in" in2="blur-2"/><feComposite in="SourceGraphic"/></filter></defs><g id="Layer_2" data-name="Layer 2"><g id="Layer_1-2" data-name="Layer 1"><g class="cls-1"><path class="cls-2" d="M273,232.94a80.84,80.84,0,0,1-19.89,3.15,177.12,177.12,0,0,0,6.36-26.57l16.1,9.85a2.1,2.1,0,0,1,1,1,2.05,2.05,0,0,1-.58,1.78l-6.35,8.65C270.6,231.67,271.92,232,273,232.94Z"/><path class="cls-2" d="M319.93,174.63a18.13,18.13,0,0,1,6.42-5.11,19.5,19.5,0,0,1,7.26-1q5.11,0,10.23.15a2.27,2.27,0,0,1,1.6.47,2.32,2.32,0,0,1,.39,1.76l-1.14,19.72a1.91,1.91,0,0,1-2.23,2.24c-2.31.11-9.18-.74-11.06.74-2.7,2.13-.45,5.24-2.5,7.7-4.16,5-9.31,4.25-15.4,2.2-8.5-2.86-8.73-3.93-4.62-12.46A72.22,72.22,0,0,1,319.93,174.63Z"/><path class="cls-2" d="M379.12,146.24a3.44,3.44,0,0,1-1.24-1.44,3.49,3.49,0,0,1,.3-2.34q4.5-12,9.23-23.82,15.31,22.39,30.64,44.77c-8,4.77-10.58,4.7-17.87-.82Q389.54,154.57,379.12,146.24Z"/><path class="cls-2" d="M379.23,186.21q-5.81,6.38-12,12.42l-9.9-11.71a86.56,86.56,0,0,1,17.06-13.43,3.67,3.67,0,0,1,1.86-.68,3.73,3.73,0,0,1,1.7.59l9.34,5.13a9.73,9.73,0,0,0-4.1,8.09,5.4,5.4,0,0,1-3.59-.2"/><path class="cls-2" d="M238.07,256.11a4,4,0,0,0-1.57.79,4,4,0,0,0-.94,1.82q-1.38,4.33-2.75,8.69c10.56-6.55,20.55-9.86,32-14C258.74,248,244.55,254,238.07,256.11Z"/><path class="cls-2" d="M245.63,158.53a71.82,71.82,0,0,1,21.81-10.75,2.5,2.5,0,0,1,1.82-.06,2.46,2.46,0,0,1,1,1.19c1.82,3.64,2.9,7.6,4.2,11.47,3.66,10.79,9.11,20.86,14.53,30.88-.28-.56-6.55,2.46-6.92,2.64C272.52,180,258.46,169.72,245.63,158.53Z"/><path class="cls-2" d="M281.84,201.88a31.32,31.32,0,0,0-6.18-3.34,7.88,7.88,0,0,0-6.78.47,68.6,68.6,0,0,0,7,6.87,14.7,14.7,0,0,0,5.54,3.37c5.48,1.48,11.86-2.77,16.71.18C293.07,206.36,287,205,281.84,201.88Z"/><path class="cls-2" d="M422.14,112.41a213.89,213.89,0,0,0,23.72-17.65l9.84,13.38a2.53,2.53,0,0,1,.64,1.42,2.48,2.48,0,0,1-.51,1.31l-8.37,13.43a16.69,16.69,0,0,0-6.09-1.51,2.39,2.39,0,0,0-2,.54,2.43,2.43,0,0,0-.46,1.53,50.93,50.93,0,0,0,2.77,20.41c1.49,4.23-3.95,4-6.66,2.8-3.52-1.6-4.39-4.55-5.91-8.06C427.85,137.06,419,114.46,422.14,112.41Z"/><path class="cls-2" d="M336.43,80c-.93-.29-2-.79-2.13-1.76a2.39,2.39,0,0,1,.44-1.4,22.38,22.38,0,0,1,3.56-4.67c.34-.34.7-.68,1.06-1a2.76,2.76,0,0,1,1.88-.89,3,3,0,0,1,1.83,1.24c2.37,2.64,8.11,5.11,5.41,8.45C346.16,82.81,339.11,80.77,336.43,80Z"/><path class="cls-2" d="M313.69,136l-17.41-1.82q1.14-6.14,2.3-12.27,9.75,6.66,19,14L312,142.59a12.89,12.89,0,0,0-4.32-2.6l4.6-2.93"/><path class="cls-2" d="M334.11,116.89A49.88,49.88,0,0,1,346,111.42a1.26,1.26,0,0,1,1,0,1.31,1.31,0,0,1,.44.75,122.22,122.22,0,0,1,5,29.59c.46,10.63-6.81,0-8.8-3.48C342.63,136.44,332.83,117.69,334.11,116.89Z"/><path class="cls-2" d="M243.16,130.38l-15.73,1.81c-1.07-1.82-2.06-3.68-3-5.59-.16-.33-.3-.76,0-1a.94.94,0,0,1,.7-.2l22.42-.42a1.13,1.13,0,0,1,.88.25,1,1,0,0,1,.15.82c-.07.93-.14,1.86-.22,2.79a1.22,1.22,0,0,1-1.42,1.46l-8.36.15"/><path class="cls-2" d="M216.09,162.49c-.57.46-1.18,1-1.14,1.76a1.6,1.6,0,0,0,1.82,1.28,4.73,4.73,0,0,0,2.21-1.11q11.19-8.52,21.59-18c-1.83,1.67-7.37,4-9.91,5.7C225.68,155.44,220.76,158.74,216.09,162.49Z"/><path class="cls-2" d="M273.9,72.42a16.59,16.59,0,0,1,9.74-2.92c.48,0,8.65,29.86,9.12,32.6C284.67,103.61,275.85,78.37,273.9,72.42Z"/><path class="cls-2" d="M310.62,228.59a2.21,2.21,0,0,1,.87-1.36,2.11,2.11,0,0,1,1.14-.16,79.81,79.81,0,0,1,25.53,5.36c-4.3,7.12-8.8,22.68-18.24,18.76-2.38-1-10.33-4.21-11.82-5.56C304.43,242.29,309,233.55,310.62,228.59Z"/><path class="cls-2" d="M303.11,259.09,283,262.24l2.31-9.45a164.73,164.73,0,0,0,18.57,5.75l-3,.3"/><path class="cls-2" d="M477.15,173.11a3,3,0,0,1,3-2.93,62.61,62.61,0,0,1,20.3.77,253.86,253.86,0,0,1-10.57,25.88,1.36,1.36,0,0,1-2.08.84l-11.6-3.89a4.86,4.86,0,0,1-1.84,4.71C470.44,193.81,475.72,178.63,477.15,173.11Z"/><path class="cls-2" d="M426.2,147.23a2.5,2.5,0,0,1-.57-1.3,2.72,2.72,0,0,1,.83-1.73l8-9.57a137.72,137.72,0,0,0,12.66,16.12c-3.75,4-4.6,6.62-10,5.25C432.89,154.94,428.62,150.65,426.2,147.23Z"/><path class="cls-2" d="M433.74,176.75l-11.58-9.22,22.73-4.75-6.47,14.42c-.2.44-.48,1-1,1a1.34,1.34,0,0,1-.91-.39,23.67,23.67,0,0,1-3.35-3.21"/><path class="cls-2" d="M345.26,216.42l4.11-11,9.83,6.86a75.13,75.13,0,0,0-8.12,8.61L347,218.27"/><path class="cls-2" d="M400,184.55a41.43,41.43,0,0,1-1.34-5c-.09-.46-.15-1,.21-1.31a1.41,1.41,0,0,1,.89-.19l11,.25a62.36,62.36,0,0,1-5.83,9.45,2.61,2.61,0,0,1-.89.86c-1.61.77-3.14-1.92-4.88-1.55a1,1,0,0,1,.37-1.38"/><path class="cls-2" d="M277,274.16a33.75,33.75,0,0,0-13.46-5.35c-2.53-.41-5.53-.82-6.69-3.1a7.4,7.4,0,0,0,1.8-3.83A111.74,111.74,0,0,1,282,271.32a7.57,7.57,0,0,1-2.26,2.8,2.58,2.58,0,0,1-3.31-.27"/><path class="cls-2" d="M492.11,140.15a4.65,4.65,0,0,1,.14-2.72,4.7,4.7,0,0,1,1.88-1.76l7.59-4.82c.58,5.17,3.86,25.09-1,27.07C492.25,161.33,492.76,144.35,492.11,140.15Z"/><path class="cls-2" d="M512.17,176.3a39.09,39.09,0,0,0-.09-12.86,12.74,12.74,0,0,1-.31-5c.37-1.64,1.78-3.19,3.46-3.05l1.62,11.08a14.28,14.28,0,0,1,0,6.44c-.65,2.07-2.57,3.91-4.73,3.71a1.26,1.26,0,0,1-.57-1.69"/><path class="cls-2" d="M465.32,182.49a13,13,0,0,1-1.89-4.22,4.5,4.5,0,0,1,1.25-4.26c1.62-1.34,4.28-1,5.7-2.53a55.35,55.35,0,0,0,.1,11.51,5.7,5.7,0,0,1-4-.51"/><path class="cls-2" d="M458.29,155a34.56,34.56,0,0,1,6.59-5.28l6.76,10.45s-5.31-1.74-5.66-1.89Z"/><path class="cls-2" d="M329.31,214.58a.92.92,0,0,1,.5-.25.81.81,0,0,1,.46.21c2.35,1.77,3.88,4.4,5.92,6.51,1.08,1.11,2.31,2.08,3.43,3.16a48.17,48.17,0,0,1,3.85,4.33,10.79,10.79,0,0,0-2.3,3.17c.24-.5-7.68-7.1-8.58-7.89-2.34-2.08-5.27-3.53-7.54-5.62A49.31,49.31,0,0,1,329.31,214.58Z"/><path class="cls-2" d="M300,229.19c-3.52.12-8.1,2.25-11.38,1.72.49-1.62,2.7-3,3.94-4.08,2.55-2.27,4.57-4.81,6.88-7.29C299.71,220.32,300.84,229.16,300,229.19Z"/><path class="cls-2" d="M294.23,247.43l5.54-3.24a18.93,18.93,0,0,1,3.71,7.53.53.53,0,0,1,0,.28.53.53,0,0,1-.31.23c-2.4.93-2.64,1.38-4.24-.25C298.34,251.38,295.1,246.92,294.23,247.43Z"/><path class="cls-2" d="M221.86,220.94a2.69,2.69,0,0,1-2.18-.79,2.82,2.82,0,0,1-.33-1.41l-.15-3.35c6.11.44,13.27,1.08,18.94,3.47-.83,3.69-2.36,2.73-5.36,2.44C229.19,221,225.48,221.1,221.86,220.94Z"/><path class="cls-2" d="M245.41,186.22c.09-.1.24-.2.35-.13s.09.11.12.17q1.89,5,3.77,10a.72.72,0,0,1,0,.59c-.1.2-.35.25-.56.29a22.74,22.74,0,0,0-4.77,1.15c-2.22.88-4.14,2.37-6.34,3.28-1.86.77-2.49-5.07-1.73-6.32C238.31,192,242.61,188.88,245.41,186.22Z"/><path class="cls-2" d="M293,158.77a22.77,22.77,0,0,0,6.87-5.9,68.91,68.91,0,0,1,6.74,10.25c-2.44.74-5.5,2.59-7.45.9-.83-.71-1.22-1.73-2.22-2.48C295.62,160.57,294.21,159.8,293,158.77Z"/><path class="cls-2" d="M372.21,95.26a.79.79,0,0,1-.42-.23.8.8,0,0,1-.08-.51c.18-2.32.36-4.63.53-7L387,94.23a25.17,25.17,0,0,0-2.7,4.54C380.26,97.7,376.22,96.43,372.21,95.26Z"/><path class="cls-2" d="M418.56,129.58a8.11,8.11,0,0,0,.36-4.75l3.92-1.44a1.14,1.14,0,0,1,.65-.09,1.06,1.06,0,0,1,.58.7,14.91,14.91,0,0,1,.75,8.28,19.38,19.38,0,0,0-5.87,1.31,10.72,10.72,0,0,0-.14-4"/><path class="cls-2" d="M467.63,132.68a9.42,9.42,0,0,1-4.66-3.39,37.34,37.34,0,0,0,5.29-4l4.95,7.66-3.89,2.52c-.58-.88-1.16-1.77-1.75-2.65"/><path class="cls-2" d="M375.93,198.94a40,40,0,0,0,4.57-7.15,9.24,9.24,0,0,1,3.11,2.57c2.93,3.16,6.42,5.58,9.51,8.51-3.85,3.17-3.32.32-6.65-1.26S379.2,200.8,375.93,198.94Z"/><path class="cls-2" d="M369.13,213.44a18.9,18.9,0,0,0-4.58-5l5.58-3.41a41.51,41.51,0,0,0,4.09,10.25q-2.72-.39-5.44-.59a1.75,1.75,0,0,0,0-1.59"/><path class="cls-2" d="M355.66,201.93a30.29,30.29,0,0,1-6.61-4.75l2.13-1.39a48.28,48.28,0,0,1,5.09,5.32l-2.21.4"/><path class="cls-2" d="M312.85,51.76a30,30,0,0,1-6.6-4.76l2.12-1.38a48.28,48.28,0,0,1,5.09,5.32l-2.21.4"/><path class="cls-2" d="M507.71,82a29.82,29.82,0,0,1-6.61-4.75l2.12-1.39a48.28,48.28,0,0,1,5.09,5.32l-2.21.4"/><path class="cls-2" d="M338,209.27l-5.72.38c-.09,0-.21,0-.27-.07a.35.35,0,0,1-.06-.21l-.12-4.06a8.84,8.84,0,0,1,5.29-.13c1.55.46,3.14,1.65,3.1,3.26a1.83,1.83,0,0,1-.71,1.43,1.26,1.26,0,0,1-1.53,0"/><path class="cls-2" d="M308.09,222.36a11.52,11.52,0,0,1-2.76-3.45,42.62,42.62,0,0,0,3.81-1.94q1.08,3.06,2.18,6.12l-.59.07a3.21,3.21,0,0,1-1.48,0,1.15,1.15,0,0,1-.83-1.1"/><path class="cls-2" d="M293.44,181.78l5-6.28,2.31,6.29-5.85,5-2.45-2.24a.92.92,0,0,1-.38-.58.94.94,0,0,1,.26-.56l1.57-2.06"/><path class="cls-2" d="M355.66,167.31a1.11,1.11,0,0,1-1.27-1.4c0-.91,0-1.82-.07-2.73a.73.73,0,0,1,.09-.44c.14-.18.41-.17.63-.15a62.22,62.22,0,0,0,11.74,0,.66.66,0,0,1,.46.06.67.67,0,0,1,.19.52c.13,2.62.47,7.25-2.95,6A26.5,26.5,0,0,0,355.66,167.31Z"/><path class="cls-2" d="M363.88,123.65a1.17,1.17,0,0,1,0-.76,1.15,1.15,0,0,1,.56-.48l3.42-1.85c.07.69,0,1.38.07,2.06.23,3.68,2.77,6.84,3.36,10.47a.73.73,0,0,1,0,.36c-.12.38-.65.38-1,.35a4.4,4.4,0,0,0-2.87.83C366.84,130.66,364.81,127.45,363.88,123.65Z"/><path class="cls-2" d="M368.27.49q-1.92,6.4-3.85,12.82l5.39,0L372,4.07a2.51,2.51,0,0,0,0-1.83c-.45-.76-1.51-.81-2.4-.88s-2-.47-2-1.36"/><path class="cls-2" d="M565.54,187.28a6.18,6.18,0,0,0,3.38-5,22.5,22.5,0,0,1,3.08,6.35,53.23,53.23,0,0,0-7.82,1.33c.79-1.2,1.59-2.4,2.39-3.6"/><path class="cls-2" d="M283.25,347.68l9-.18a30.29,30.29,0,0,1,0,4.95,1.24,1.24,0,0,1-1.51,1.35,12.88,12.88,0,0,1-5.36-.33c-2.53-.92-4.33-4-3.09-6.42l1,.48"/><path class="cls-2" d="M456.84,120.46a108.51,108.51,0,0,1,41.5-8c2.26,16.78,1.18,33.8.1,50.68-.19,3-.55,6.32-2.85,8.23a11.16,11.16,0,0,1-4.12,1.85l-25.78,7.5C465.53,180.77,457,123.77,456.84,120.46Z"/><path class="cls-2" d="M250,303.27a3.59,3.59,0,0,1-1.61-1.75,3.83,3.83,0,0,1,.2-2.21q2.57-8.69,5.14-17.36A122.3,122.3,0,0,1,286,297a2.33,2.33,0,0,1,.9.86,2.44,2.44,0,0,1,0,1.62c-1.25,4.93-1.92,10.69-3.89,15.38-2.18,5.18-4.34,3.24-8,.56C267.36,309.76,257.87,308.45,250,303.27Z"/><path class="cls-2" d="M272.06,323.74l-11.9-.79-.36-7.14,11.62,1.76a2.56,2.56,0,0,1,1.88.87,2.39,2.39,0,0,1,.23,1.47,15.72,15.72,0,0,1-1,4.43"/><path class="cls-2" d="M222.62,311.05a1.1,1.1,0,0,1,1.92-.25l18.56,14.3c.27.21.56.48.52.82a1,1,0,0,1-.35.53c-1.78,1.72-5.87,7.42-8.2,8s-5.52-2.54-7.39-4.3a62.22,62.22,0,0,0-12.38-8.91C217.17,317.68,220.18,314.3,222.62,311.05Z"/><path class="cls-2" d="M229.26,298.42a24,24,0,0,1,2.72-8.95l3.55,15.4-5.33-3.19a1.27,1.27,0,0,1-.52-.45,1.29,1.29,0,0,1-.08-.78c.11-1.14.21-2.28.32-3.42"/><path class="cls-2" d="M198.6,291q2.9-2.16,6-4.05a.94.94,0,0,1,.55-.19c.43,0,.58.59.61,1,.1,1.4.2,2.79.31,4.18a1.83,1.83,0,0,1-.16,1.09,1.49,1.49,0,0,1-.65.51,5.17,5.17,0,0,1-6.57-2.28"/><path class="cls-2" d="M282.27,331.13a1.07,1.07,0,0,1-.72-.32,1,1,0,0,1-.14-.57,23.38,23.38,0,0,1,.33-4.73l13.9,4.15c-.54,3.89-1,3.42-4.8,2.81Z"/><path class="cls-2" d="M259.7,346.14a35.81,35.81,0,0,0-1.38-10.94,10.26,10.26,0,0,0,3.89,2.18,1.21,1.21,0,0,1,.77.45,1.18,1.18,0,0,1,.09.62c-.15,3.11-.29,6.21-.44,9.32L259.87,346"/><path class="cls-2" d="M527.08,167.3a74.83,74.83,0,0,1,3-15.83l9.19,7.45-5.49,13.65a7.87,7.87,0,0,1-5.9-4.2"/><path class="cls-2" d="M515.9,126.3a2.59,2.59,0,0,1,.59-1.35c.88-.87,2.35-.14,3.34.61l3.81,2.89c.56.42,1.19,1,1,1.7a1.71,1.71,0,0,1-.55.73c-5.05,4.66-8.38,10.12-11.94,15.86C509.69,144.54,515.07,130,515.9,126.3Z"/><path class="cls-2" d="M533.91,143.56a11.92,11.92,0,0,1-4.65-3,1.31,1.31,0,0,1-.41-.67c-.06-.44.32-.82.64-1.14a8.81,8.81,0,0,0,2.41-4.51l3.26,3.59a89.76,89.76,0,0,1,6.17,7.32,6.17,6.17,0,0,0-3.35.08c-1.12.19-2.45.16-3.15-.73-.45-.56-.85-1.51-1.53-1.27"/><path class="cls-2" d="M519.73,150.2a28.25,28.25,0,0,0,1.92-5.28l2.64,4.18-3.4,2.26a1.27,1.27,0,0,1-.63.27.88.88,0,0,1-.81-.84,2.26,2.26,0,0,1,.37-1.22"/><path class="cls-2" d="M499.78,109.21c-.45-.2-1-.46-1.06-.95a1.42,1.42,0,0,1,.11-.64c.42-1.24.84-2.48,1.27-3.72,1.55,1.26,9.23,6.06,7.86,7.81C506,114.22,501.31,109.87,499.78,109.21Z"/><path class="cls-2" d="M533,178.94a.72.72,0,0,1-.29-.4.76.76,0,0,1,.25-.61l1.1-1.37a.76.76,0,0,1,.32-.27c.35-.12.65.29.81.63,2.44,5,8.19,7.41,11.62,11.77-.49-.62-2.78-.68-3.58-1.17s-1.75-1.56-2.6-2.22C538,183.27,535.44,181.16,533,178.94Z"/><path class="cls-2" d="M472,94.72l6.35-3.5a.48.48,0,0,1,.79.18,51.89,51.89,0,0,1,6,12.36,19.6,19.6,0,0,0-6.06,2.77C478.5,107,472.85,95.5,472,94.72Z"/><path class="cls-2" d="M391,108.49l7.08-8.87A639.65,639.65,0,0,0,445,162.9c-1.1-1.31-9.79,7.9-14.25,2.8-1.46-1.65-1.49-5.37-2.45-7.4-1.65-3.48-4.38-6.63-6.75-9.64C411.18,135.46,398.26,123.92,391,108.49Z"/></g><g class="cls-3"><path class="cls-2" d="M800.22,774.09a80.78,80.78,0,0,1,17.19-10.48,175.83,175.83,0,0,0,4.24,27l-18.64-3a2,2,0,0,1-1.27-.52,2.07,2.07,0,0,1-.14-1.87q1.27-5.21,2.57-10.41C802.87,774.38,801.52,774.54,800.22,774.09Z"/><path class="cls-2" d="M779,845.91a18.09,18.09,0,0,1-4,7.17,19.58,19.58,0,0,1-6.33,3.69q-4.73,2-9.52,3.76a2.25,2.25,0,0,1-1.66.17,2.29,2.29,0,0,1-1-1.48L750,840.56a2.54,2.54,0,0,1-.15-1.83,2.48,2.48,0,0,1,1.36-1.09c2.09-1,8.77-2.81,9.94-4.91,1.69-3-1.57-5-.62-8.07,1.93-6.22,7-7.47,13.4-7.9,8.95-.6,9.56.31,9,9.76A72.23,72.23,0,0,1,779,845.91Z"/><path class="cls-2" d="M735.11,894.72a2.63,2.63,0,0,1,2.31,3.14q.39,12.76.54,25.53l-45.39-29.71c5.62-7.47,8-8.37,16.84-6Q722.31,891,735.11,894.72Z"/><path class="cls-2" d="M719.77,857.81c2-5.4,4.07-10.76,6.34-16l13.61,7.05a86.69,86.69,0,0,1-10.65,18.91,3.71,3.71,0,0,1-1.46,1.35,3.76,3.76,0,0,1-1.8.09L715.22,868a9.73,9.73,0,0,0,.71-9,5.37,5.37,0,0,1,3.4-1.18"/><path class="cls-2" d="M823.63,739.38a4,4,0,0,0,1.16-1.32,4.05,4.05,0,0,0,.17-2c-.25-3-.51-6-.76-9.08C816.92,737,809,743.88,800,752,807.6,754.73,818.45,743.79,823.63,739.38Z"/><path class="cls-2" d="M853.84,832.48a71.86,71.86,0,0,1-16.07,18.25,2.5,2.5,0,0,1-1.66.75,2.39,2.39,0,0,1-1.35-.72c-3.07-2.68-5.58-5.93-8.27-9-7.49-8.58-16.36-15.82-25.2-23,.48.41,5.13-4.77,5.39-5.08C820.81,822.93,837.71,827,853.84,832.48Z"/><path class="cls-2" d="M803.84,806.21a31.11,31.11,0,0,0,7,.72,7.93,7.93,0,0,0,6.1-3,71.27,71.27,0,0,0-9.07-3.7,14.93,14.93,0,0,0-6.41-1c-5.63.72-9.91,7.08-15.52,6.2C791.75,806.33,797.91,805.26,803.84,806.21Z"/><path class="cls-2" d="M708.23,942.4A212.52,212.52,0,0,0,693,967.75l-14.19-8.61a2.62,2.62,0,0,1-1.15-1.08,2.56,2.56,0,0,1,0-1.4q1.3-7.8,2.62-15.6a16.75,16.75,0,0,0,6.2-.93,2.42,2.42,0,0,0,1.63-1.25,2.58,2.58,0,0,0-.16-1.59,51.07,51.07,0,0,0-10.35-17.82c-3-3.34,2.12-5.22,5.1-5.12,3.86.13,5.78,2.53,8.53,5.19C693.56,921.78,710.4,939.29,708.23,942.4Z"/><path class="cls-2" d="M799.84,939.74c1-.09,2.18,0,2.64.81a2.42,2.42,0,0,1,.13,1.46,22.31,22.31,0,0,1-1.51,5.67c-.19.45-.39.9-.6,1.34a2.76,2.76,0,0,1-1.4,1.54,3.05,3.05,0,0,1-2.17-.45c-3.19-1.54-9.43-1.64-8.22-5.76C789.76,940.8,797.05,940,799.84,939.74Z"/><path class="cls-2" d="M799.51,879.27l16.8-4.95,2.55,12.22q-11.57-2.44-22.94-5.71,1.33-4.17,2.66-8.33a13,13,0,0,0,5,.76l-3.14,4.46"/><path class="cls-2" d="M787.91,904.7a49.94,49.94,0,0,1-8.94,9.6,1.23,1.23,0,0,1-1,.4,1.2,1.2,0,0,1-.68-.52,122.36,122.36,0,0,1-15.87-25.46c-4.47-9.66,6.29-2.62,9.46-.14C772.58,889.88,788.78,903.47,787.91,904.7Z"/><path class="cls-2" d="M866.85,857.56l13.86-7.67q2.52,1.9,4.86,4.05c.27.24.56.59.43.93s-.34.35-.57.45l-20.57,8.93a1.1,1.1,0,0,1-.91.11,1.14,1.14,0,0,1-.45-.7c-.29-.88-.57-1.77-.86-2.66a1.22,1.22,0,0,1,.76-1.9l7.67-3.32"/><path class="cls-2" d="M879.64,817.56a2.37,2.37,0,0,0,.39-2.06,1.61,1.61,0,0,0-2.18-.49,4.52,4.52,0,0,0-1.61,1.87q-7.11,12.14-13.11,24.87c1.06-2.24,5.3-6.5,7-9C873.46,827.74,876.75,822.81,879.64,817.56Z"/><path class="cls-2" d="M860.52,922.86a16.49,16.49,0,0,1-7.89,6.41c-.45.17-19.38-24.31-20.86-26.65C838.68,898.13,856.46,918.11,860.52,922.86Z"/><path class="cls-2" d="M767.05,792.48a2.22,2.22,0,0,1-.29,1.59,2.11,2.11,0,0,1-1,.58,79.87,79.87,0,0,1-25.64,4.77c1.25-8.22-.51-24.32,9.71-24.29,2.57,0,11.15,0,13,.64C767.55,777.45,766.68,787.27,767.05,792.48Z"/><path class="cls-2" d="M762.37,761.42l17.42-10.59,1.47,9.62a167.36,167.36,0,0,0-19.36,1.75l2.7-1.42"/><path class="cls-2" d="M634.24,907.24a4,4,0,0,1-.31,2.75,3.75,3.75,0,0,1-1.38,1.11,62.18,62.18,0,0,1-19.06,7,253.19,253.19,0,0,1-.09-28,1.77,1.77,0,0,1,.33-1.13,1.8,1.8,0,0,1,1.27-.43l12.21-.83a4.88,4.88,0,0,1-.1-5C632.55,885.55,633.46,901.59,634.24,907.24Z"/><path class="cls-2" d="M691.2,911.75a2.44,2.44,0,0,1,1,1,2.67,2.67,0,0,1-.11,1.92q-1.86,5.94-3.71,11.88a138.59,138.59,0,0,0-17.85-10.08c1.92-5.16,1.73-7.87,7.22-8.66C682.08,907.18,687.67,909.51,691.2,911.75Z"/><path class="cls-2" d="M673,887.33l14.22,4.12-19.2,13,.48-15.79c0-.48.09-1.06.52-1.29a1.41,1.41,0,0,1,1,0,23.9,23.9,0,0,1,4.32,1.69"/><path class="cls-2" d="M739.66,816.93q.21,5.9.41,11.78l-11.7-2.6a74.87,74.87,0,0,0,4.22-11.05l4.76.82"/><path class="cls-2" d="M701.22,867.25a44.73,44.73,0,0,1,3.15,4.11c.26.39.52.88.3,1.29a1.31,1.31,0,0,1-.75.52l-10.22,3.94a61.58,61.58,0,0,1,1.78-11A2.57,2.57,0,0,1,696,865c1.19-1.33,3.63.57,5.1-.43a1,1,0,0,1,.18,1.42"/><path class="cls-2" d="M780.73,737.54a33.72,33.72,0,0,0,14.49-.18c2.49-.58,5.43-1.35,7.36.32a7.52,7.52,0,0,0-.2,4.23,111.64,111.64,0,0,1-25.12.14,7.7,7.7,0,0,1,1-3.45,2.57,2.57,0,0,1,3.16-1"/><path class="cls-2" d="M633,943.41a3.52,3.52,0,0,1-.15,4.91l-5.19,7.36c-2.49-4.56-13.13-21.73-9.36-25.42C624.76,923.89,630.77,939.78,633,943.41Z"/><path class="cls-2" d="M600.64,917.64a39.3,39.3,0,0,0,5,11.85,13.07,13.07,0,0,1,2.19,4.5c.28,1.65-.44,3.62-2,4.13l-5.73-9.62a14.56,14.56,0,0,1-2.42-6c-.19-2.16.89-4.6,3-5.23a1.26,1.26,0,0,1,1.17,1.34"/><path class="cls-2" d="M641.6,894.06a13.39,13.39,0,0,1,3.36,3.18,4.5,4.5,0,0,1,.46,4.41c-1,1.86-3.58,2.54-4.3,4.52a55.9,55.9,0,0,0-4.48-10.61,5.7,5.7,0,0,1,3.88-1"/><path class="cls-2" d="M658.57,916.78a34.57,34.57,0,0,1-4.08,7.39l-10.24-7.08s5.58-.42,6-.42Z"/><path class="cls-2" d="M755.11,812.55a.85.85,0,0,1-.37.42.78.78,0,0,1-.5,0c-2.85-.74-5.26-2.59-8-3.76-1.43-.62-2.93-1.05-4.38-1.62a48.12,48.12,0,0,1-5.21-2.53,10.9,10.9,0,0,0,.91-3.81c0,.55,9.81,3.64,10.94,4,3,1,6.22,1.25,9.12,2.32A48.47,48.47,0,0,1,755.11,812.55Z"/><path class="cls-2" d="M776.64,787.88c3.21-1.46,6.64-5.17,9.86-5.94.17,1.69-1.36,3.79-2.08,5.29a99.92,99.92,0,0,0-3.58,9.35C780.29,796,775.87,788.23,776.64,787.88Z"/><path class="cls-2" d="M775,768.81l-3.89,5.11a19,19,0,0,1-6.29-5.55.35.35,0,0,1,.08-.58c1.86-1.78,1.91-2.28,4-1.39C769.71,766.73,774.41,769.61,775,768.81Z"/><path class="cls-2" d="M852,765.72a2.67,2.67,0,0,1,2.32-.09,2.56,2.56,0,0,1,.84,1.17l1.42,3c-5.81,1.91-12.67,4.06-18.83,4-.64-3.73,1.14-3.43,4-4.3C845.25,768.5,848.62,767,852,765.72Z"/><path class="cls-2" d="M843.49,806.8c0,.12-.14.27-.28.25a.28.28,0,0,1-.17-.12q-3.64-3.88-7.28-7.78a.73.73,0,0,1-.27-.53c0-.21.23-.36.41-.47a23.57,23.57,0,0,0,4-2.89c1.71-1.65,2.92-3.77,4.61-5.44,1.42-1.42,4.24,3.73,4,5.18C847.87,798.79,845.06,803.27,843.49,806.8Z"/><path class="cls-2" d="M810,850.3a22.76,22.76,0,0,0-4.1,8.07,67.91,67.91,0,0,1-10.14-6.91c2-1.62,4.09-4.49,6.54-3.67,1,.34,1.8,1.14,3,1.45C806.85,849.64,808.44,849.82,810,850.3Z"/><path class="cls-2" d="M760.93,939.22a.78.78,0,0,1,.48,0,.83.83,0,0,1,.26.44l2.16,6.63-16.14-.55a25.12,25.12,0,0,0,.77-5.23C752.55,940,756.78,939.66,760.93,939.22Z"/><path class="cls-2" d="M705,925.15a8.1,8.1,0,0,0,1.47,4.53l-3.08,2.83a1.08,1.08,0,0,1-.56.33,1,1,0,0,1-.8-.43,14.86,14.86,0,0,1-3.85-7.36,19.49,19.49,0,0,0,4.93-3.46,10.65,10.65,0,0,0,1.66,3.68"/><path class="cls-2" d="M658.45,941a9.36,9.36,0,0,1,5.6,1.35,37.51,37.51,0,0,0-3.37,5.69l-7.5-5.19,2.63-3.81,2.63,1.78"/><path class="cls-2" d="M718,844.78a40.18,40.18,0,0,0-1.5,8.36,9.39,9.39,0,0,1-3.85-1.19c-3.92-1.81-8.07-2.72-12-4.24,2.36-4.41,2.95-1.57,6.63-1.38S714.24,844.31,718,844.78Z"/><path class="cls-2" d="M718.74,828.79a18.71,18.71,0,0,0,6.12,2.85L721,836.92a41.74,41.74,0,0,0-7.68-7.92q2.65-.66,5.25-1.53a1.8,1.8,0,0,0,.57,1.5"/><path class="cls-2" d="M735.57,834.29a30,30,0,0,1,7.92,1.88l-1.44,2.09a49.2,49.2,0,0,1-6.73-3l1.89-1.21"/><path class="cls-2" d="M832.38,956.81a30.3,30.3,0,0,1,7.92,1.88c-.47.7-.95,1.39-1.43,2.09a48.78,48.78,0,0,1-6.74-3l1.9-1.21"/><path class="cls-2" d="M640.73,1003.16a30,30,0,0,1,7.92,1.87l-1.44,2.09a49.14,49.14,0,0,1-6.73-3l1.89-1.22"/><path class="cls-2" d="M749.14,820.76l5.14-2.53a.35.35,0,0,1,.28,0,.33.33,0,0,1,.13.17c.55,1.24,1.11,2.47,1.66,3.71a8.84,8.84,0,0,1-4.84,2.13c-1.61.18-3.53-.32-4.1-1.82a1.8,1.8,0,0,1,.1-1.6,1.25,1.25,0,0,1,1.43-.55"/><path class="cls-2" d="M771.77,797.28a11.41,11.41,0,0,1,3.86,2.13,41.06,41.06,0,0,0-2.78,3.25l-4.35-4.83.51-.29a3.47,3.47,0,0,1,1.39-.52,1.14,1.14,0,0,1,1.19.71"/><path class="cls-2" d="M800.78,829.21c-.76,2.57-1.51,5.15-2.27,7.72L794,832l3.51-6.81,3.12,1.13a.68.68,0,0,1,.55,1c-.23.83-.45,1.66-.68,2.5"/><path class="cls-2" d="M748.76,866.3a1.45,1.45,0,0,1,.86-.15c.43.1.67.55.85,1l1.11,2.49a.73.73,0,0,1,.08.45c-.06.22-.31.31-.52.38a61.88,61.88,0,0,0-10.86,4.47.66.66,0,0,1-.45.11.65.65,0,0,1-.36-.4c-1.13-2.38-3.2-6.53.42-6.72A26.41,26.41,0,0,0,748.76,866.3Z"/><path class="cls-2" d="M757.81,909.79a1.22,1.22,0,0,1,.3.71,1.19,1.19,0,0,1-.33.65l-2.47,3c-.32-.6-.55-1.25-.85-1.87-1.61-3.31-5.16-5.27-7.09-8.4a.73.73,0,0,1-.14-.33c0-.4.45-.6.83-.73a4.42,4.42,0,0,0,2.35-1.86C752.4,904.44,755.5,906.63,757.81,909.79Z"/><path class="cls-2" d="M800.69,1025.34q-.66-6.66-1.33-13.32l-5,2.07c.5,3.12,1,6.24,1.49,9.35a2.5,2.5,0,0,0,.73,1.68c.71.54,1.71.17,2.55-.1s2-.32,2.38.5"/><path class="cls-2" d="M547.12,927.83a6.17,6.17,0,0,0-1.23,5.87,22.48,22.48,0,0,1-5.28-4.69,52,52,0,0,0,6.73-4.21c-.28,1.41-.56,2.82-.83,4.24"/><path class="cls-2" d="M747,671.94l-8.24,3.6a32.14,32.14,0,0,1-1.93-4.56,1.72,1.72,0,0,1-.11-.89c.11-.46.58-.73,1-.94a12.9,12.9,0,0,1,5.08-1.73c2.69-.12,5.54,2.07,5.31,4.75l-1.08-.08"/><path class="cls-2" d="M673.09,948.17a108.55,108.55,0,0,1-35.33,23.22c-8.48-14.65-14-30.79-19.41-46.82-1-2.83-1.89-6.05-.5-8.69A11,11,0,0,1,621,912.6l21-16.76C642.06,895.73,671.66,945.19,673.09,948.17Z"/><path class="cls-2" d="M794.63,700.33a3.63,3.63,0,0,1,2.16,1,3.79,3.79,0,0,1,.65,2.12q.94,9,1.87,18a122,122,0,0,1-35.58-1.58,1.8,1.8,0,0,1-1.76-2c-.73-5-2.3-10.62-2.27-15.7,0-5.63,2.78-4.66,7.17-3.57C776.1,701,785.38,698.55,794.63,700.33Z"/><path class="cls-2" d="M766.44,689.82l11.3-3.81c1,2.16,2,4.31,3,6.47l-11.42,2.79a2.6,2.6,0,0,1-2.07-.08,2.36,2.36,0,0,1-.76-1.28,15.45,15.45,0,0,1-.74-4.48"/><path class="cls-2" d="M817,682.7a1.48,1.48,0,0,1-.52,1,1.5,1.5,0,0,1-1.16,0l-22.61-6.15c-.33-.09-.71-.23-.79-.56a1,1,0,0,1,.12-.63c1-2.26,2.6-9.09,4.53-10.52s6.07.25,8.47,1.16a62.34,62.34,0,0,0,14.84,3.52C819.5,674.5,818,678.76,817,682.7Z"/><path class="cls-2" d="M815.66,696.91a24,24,0,0,1,.89,9.31l-9.15-12.89,6.14.92a1.27,1.27,0,0,1,.66.22,1.41,1.41,0,0,1,.37.69c.33,1.09.67,2.19,1,3.29"/><path class="cls-2" d="M846.81,692.05c-1.23,2.06-2.55,4.07-4,6a.9.9,0,0,1-.43.39c-.41.13-.76-.33-.95-.72-.63-1.24-1.25-2.49-1.88-3.74a1.72,1.72,0,0,1-.27-1.07,1.42,1.42,0,0,1,.41-.71,5.16,5.16,0,0,1,6.94-.41"/><path class="cls-2" d="M754.18,686.88a.76.76,0,0,1,1.13.49,22.23,22.23,0,0,1,1.5,4.5l-14.43,1.45c-1-3.79-.37-3.54,3.36-4.42Z"/><path class="cls-2" d="M769.32,664.39a36.11,36.11,0,0,0,5.44,9.59,10.21,10.21,0,0,0-4.42-.53,1.2,1.2,0,0,1-.88-.12,1.1,1.1,0,0,1-.32-.54L766,664l3.24.6"/><path class="cls-2" d="M590.29,931.65a75.08,75.08,0,0,1,3.28,15.77L582.23,944q-.06-7.35-.13-14.71a7.92,7.92,0,0,1,7.06,1.63"/><path class="cls-2" d="M616.26,965.29a2.62,2.62,0,0,1,0,1.47c-.48,1.14-2.12,1-3.32.71l-4.62-1.22c-.68-.17-1.49-.5-1.56-1.2a1.74,1.74,0,0,1,.24-.88c2.88-6.23,3.88-12.55,5-19.22C615,946.06,615.63,961.58,616.26,965.29Z"/><path class="cls-2" d="M593,956.2a11.87,11.87,0,0,1,5.42,1,1.25,1.25,0,0,1,.64.46c.23.39,0,.88-.15,1.3a8.69,8.69,0,0,0-.51,5.09L594,961.94a87.61,87.61,0,0,1-8.49-4.42,6.22,6.22,0,0,0,3.07-1.35c1-.6,2.2-1.08,3.19-.53.62.35,1.35,1.08,1.89.6"/><path class="cls-2" d="M603.6,944.65a29.32,29.32,0,0,0,.24,5.62q-2-1.44-4-2.86l2.29-3.38a1.28,1.28,0,0,1,.48-.5.88.88,0,0,1,1.07.47,2.28,2.28,0,0,1,.12,1.27"/><path class="cls-2" d="M637.67,975c.5,0,1.09,0,1.35.47a1.49,1.49,0,0,1,.14.63l.24,3.93c-1.92-.58-10.85-2.09-10.24-4.23C630,972.68,636,974.92,637.67,975Z"/><path class="cls-2" d="M580.4,923.13a.74.74,0,0,1,.42.26.76.76,0,0,1,0,.66c-.16.56-.33,1.12-.49,1.69a.87.87,0,0,1-.19.37c-.29.25-.71,0-1-.28-4.15-3.68-10.39-3.72-15.22-6.45.68.39,2.83-.43,3.75-.28s2.21.78,3.25,1.06C574.11,921,577.28,922,580.4,923.13Z"/><path class="cls-2" d="M668.86,977.76l-4.53,5.65a.64.64,0,0,1-.38.29.68.68,0,0,1-.42-.15,51.75,51.75,0,0,1-10.3-9.13,19.52,19.52,0,0,0,4.55-4.87C658.2,968.91,667.79,977.35,668.86,977.76Z"/><path class="cls-2" d="M738.5,934.16q-1.57,5.45-3.16,10.89a638.71,638.71,0,0,0-67.52-40.61c1.52.79,6-11,12.11-8,2,1,3.43,4.41,5.09,5.92,2.85,2.59,6.57,4.46,9.91,6.34C709.58,916.91,725.92,922.65,738.5,934.16Z"/></g><path class="cls-2" d="M733,737.81l-3.56-6.49,35.94-29.93V661.8l49-15.84-1-79.28-51.94-18-16.28-19.86,69.23-21.14V396l-20.89,10.09L739.4,383.67s12.08-30.6,19.75-54.07L506.69,183.84,314.15,295l3,31.55H294L289.29,343,267,341.15l-7.86-14.37L199,361.48v39.69c12.35,5,22.23,9.12,22.23,9.12L215,425.92,234.24,450l-13,24.58L199,456.46v94.3l27,14.64-14.13,122L199,698.1v18.67L506.69,894.41,743.23,757.84,732.47,738.2Z"/><polygon class="cls-2" points="823.98 505.46 754.75 526.6 771.03 546.46 823.98 555.26 885.01 565.4 832.98 502.71 823.98 505.46"/><path class="cls-2" d="M823.28,662.17l-49,15.84V717.6l-35.46,29.53,10.81,19.73-.53.3,3.61,6.58,21.57,39.38s92.4-47.77,92.26-60.19-34.2-93.67-34.2-93.67Z"/><polygon class="cls-2" points="732.95 737.81 732.47 738.2 743.23 757.84 743.76 757.54 732.95 737.81"/><path class="cls-2" d="M801.42,399.91l20.9-10.08L870,366.78l-96.77-67.36c-.12,4.2-2.69,13.38-6.17,24-7.67,23.47-19.75,54.07-19.75,54.07Z"/><polygon class="cls-2" points="190.04 554.22 159.77 537.8 166.83 720.86 190.04 701.56 202.92 690.86 217.05 568.86 190.04 554.22"/><path class="cls-2" d="M210.61,416.44l6.3-15.64s-9.88-4.11-22.24-9.11c-20.77-8.41-48.54-19.34-48.14-17.51.63,2.93,10.18,41.79,10.18,41.79l38,31,22.24,18.16,13-24.58Z"/><polygon class="cls-2" points="314.15 288.58 311.61 261.57 238.57 282.8 259.11 320.36 266.97 334.73 289.29 336.54 293.98 320.13 317.11 320.13 314.15 288.58"/><path class="cls-2" d="M867.65,705.14A132.51,132.51,0,0,0,881,735.3a289.07,289.07,0,0,1,30.89-32.38L884,689.53a3.42,3.42,0,0,0-2.2-.49c-1,.26-1.56,1.39-1.94,2.39l-6.25,16.42C871.5,707.24,869.81,705.76,867.65,705.14Z"/><path class="cls-2" d="M906.11,588.64c1.21-4.36,2.18-8.94,1.32-13.38-.76-4-2.92-7.48-5.08-10.87q-4.51-7.07-9.31-13.95a2.79,2.79,0,0,0-4.83-.74l-26.12,19.1a3.12,3.12,0,0,0-1.11,5.06c1.9,3.27,9.19,12,8.82,15.88-.53,5.6-6.8,5.28-8.37,10.29-3.2,10.18,2.43,16.58,10.67,23.14,11.49,9.16,13.16,8.52,21.25-4.72A118.2,118.2,0,0,0,906.11,588.64Z"/><path class="cls-2" d="M892.54,482a4.3,4.3,0,0,0,6.05-2.07Q911,463.07,923.14,446l-88.84-2.35c.6,15.31,2.94,18.74,17,23.87Q871.84,475,892.54,482Z"/><path class="cls-2" d="M837.45,517.34Q833.83,531,831,544.85l24.92,3.21a141.85,141.85,0,0,0,3.3-35.4,6.05,6.05,0,0,0-.71-3.18,6.2,6.2,0,0,0-2.33-1.8l-15.36-8.29a16,16,0,0,1-7.49,12.84,8.78,8.78,0,0,0,3.47,4.75"/><path class="cls-2" d="M866.79,773.73a6.55,6.55,0,0,1,.32,2.87,6.68,6.68,0,0,1-1.67,2.91L855.93,791c-.39-20.36-4.72-37-9.19-56.41C859.53,738.11,863.92,763,866.79,773.73Z"/><path class="cls-2" d="M994.34,676.56a117.59,117.59,0,0,0-4.6-39.57,4.17,4.17,0,0,0-1.54-2.57,4.08,4.08,0,0,0-2.5-.28c-6.64.74-13.05,2.78-19.52,4.41-18.1,4.57-36.81,6-55.42,7.48,1-.11,2.45,11.2,2.52,11.87C941,658.6,967.53,668.86,994.34,676.56Z"/><path class="cls-2" d="M902.5,665.28c3.46,1.66,7.07,3.15,10.08,5.53s5.41,5.91,5.39,9.75a116.93,116.93,0,0,1-15.67-3.48c-3.42-1-6.9-2.25-9.55-4.64-6.91-6.22-6.75-18.78-15.12-22.83C886.34,653.82,893.63,661,902.5,665.28Z"/><path class="cls-2" d="M971.86,382.32A350.25,350.25,0,0,1,975.05,334l-27.15-1.64A3.13,3.13,0,0,0,944,334.6q-5.52,11.73-11,23.46a27.41,27.41,0,0,1,7.48,7,3.86,3.86,0,0,1,1,3.19,4.05,4.05,0,0,1-1.69,2,83.7,83.7,0,0,1-30.56,14.34c-7.15,1.71-2,9,2.08,11.64,5.32,3.43,10.15,2,16.34,1C932.87,396.39,971.88,388.54,971.86,382.32Z"/><path class="cls-2" d="M1021.72,481.74c1.23,1,2.89,2.1,4.32,1.37a4,4,0,0,0,1.53-1.84,37,37,0,0,0,3.26-9c.17-.78.31-1.57.43-2.36a4.46,4.46,0,0,0-.44-3.38c-.75-1-2.11-1.23-3.33-1.42-5.75-.91-14.24-6.6-16.45.08C1009.13,470.9,1018.21,478.79,1021.72,481.74Z"/><path class="cls-2" d="M964.85,562.85l18,22.34,14.84-14.07q-17.85-7.5-36.22-13.71-2.09,6.86-4.19,13.7a21.2,21.2,0,0,1,7.42,3.62l-.06-8.93"/><path class="cls-2" d="M973,517.79a81.84,81.84,0,0,0-3.08-21.27,2,2,0,0,0-.92-1.44,2.08,2.08,0,0,0-1.41.06,200.06,200.06,0,0,0-45.12,19.49c-15,8.83,6,9.39,12.61,9C938.48,523.44,973,520.26,973,517.79Z"/><path class="cls-2" d="M1035.27,654.93l11.49,23.25q5.19-.21,10.33-.91c.59-.08,1.3-.27,1.45-.84a1.55,1.55,0,0,0-.34-1.15q-9.67-15.62-19.37-31.22c-.27-.44-.61-.92-1.12-1a1.84,1.84,0,0,0-1.26.52l-3.64,2.78a2.69,2.69,0,0,0-1.3,1.78,2.58,2.58,0,0,0,.55,1.49l7.23,11.63"/><path class="cls-2" d="M1015.15,720.73c-.12,1.18-.36,2.54-1.39,3.13-1.19.68-2.78-.15-3.39-1.37a7.49,7.49,0,0,1-.43-4q1.75-23,5.57-45.73c-.67,4,1.07,13.7,1,18.71C1016.33,701.25,1016.17,711,1015.15,720.73Z"/><path class="cls-2" d="M1087.68,561.09a27.08,27.08,0,0,0-4.65-16c-.44-.65-48.77,14.66-53,16.43C1035.19,574,1077.77,563.7,1087.68,561.09Z"/><path class="cls-2" d="M857.21,648.54a3.58,3.58,0,0,0,1.09-2.41c0-.64-1.42-1.68-.79-1.71,18.2-.89,1.24-13.95-30.08-30.36-6,12.24-23.38,32.28-9.59,41.77,3.47,2.4,15,10.48,18.16,11.32C843.85,669.24,851.85,655.22,857.21,648.54Z"/><path class="cls-2" d="M804.85,686.89q6.79,15.25,13.58,30.51l11-11.58A272.57,272.57,0,0,1,805,685.39l2.31,4.44"/><path class="cls-2" d="M839.41,360.62c1.05-1.14,2.14-2.44,2.17-4a6.38,6.38,0,0,0-.82-2.79,102.32,102.32,0,0,0-19.12-27.25,414.29,414.29,0,0,0-26.2,37.57,2.87,2.87,0,0,0-.62,1.83,2.93,2.93,0,0,0,1.31,1.76l15.67,12.51A8,8,0,0,0,807,387C816.9,388.25,833.1,367.5,839.41,360.62Z"/><path class="cls-2" d="M849.31,418.05a4.13,4.13,0,0,0,2.31-.36,4.44,4.44,0,0,0,1.63-2.68q3.06-9.75,6.1-19.48a224.38,224.38,0,0,1-33.44-3.08c-2.23,8.75-5,12.21,1.64,18.4C832.77,415.7,842.47,417.76,849.31,418.05Z"/><path class="cls-2" d="M802,433.93l23,7.73L811.3,406.17q-7,10.86-14.09,21.72c-.43.66-.87,1.5-.51,2.2a2.23,2.23,0,0,0,1.35.91,39.33,39.33,0,0,0,7.41,1.75"/><path class="cls-2" d="M826.09,591l11.53-15.48-18.17-7.42a124.29,124.29,0,0,1-4.63,18.82l7.17,3.34"/><path class="cls-2" d="M821.28,487.31a66.08,66.08,0,0,0,8.08-2.6c.71-.27,1.52-.7,1.6-1.45a2.16,2.16,0,0,0-.52-1.39L820.35,467a101.55,101.55,0,0,0-7.82,16.41,4.19,4.19,0,0,0-.38,2c.37,2.89,5.43,2.62,6.47,5.34a1.72,1.72,0,0,0,1.57-1.75"/><path class="cls-2" d="M807.31,736.17a55.34,55.34,0,0,1,19.34,13.77c2.81,3.11,6,6.88,10.21,6.44a12.18,12.18,0,0,1,3.67-5.88,183.05,183.05,0,0,0-33.69-23.63,12.32,12.32,0,0,0-1.85,5.6c0,2,1.34,4.11,3.31,4.31"/><path class="cls-2" d="M871.46,310.72a5.76,5.76,0,0,0,4.37-6.75q0-7.38-.12-14.74c-7.61,3.81-38,17-36.32,25.48C842.2,329.36,865.11,313.57,871.46,310.72Z"/><path class="cls-2" d="M803.89,315.26A64.63,64.63,0,0,1,821.66,304c2.53-1.08,5.21-2,7.14-4s2.8-5.29,1.12-7.47l-16.7,7.62c-3.23,1.47-6.57,3-8.84,5.77s-3.08,7-.88,9.81a2.06,2.06,0,0,0,2.82-.72"/><path class="cls-2" d="M837,385.24a21.47,21.47,0,0,0,7.49-1.16c2.35-1,4.44-3,4.74-5.51.41-3.42-2.46-6.75-1.58-10.08a91.15,91.15,0,0,1-15.93,10.09,9.36,9.36,0,0,0,4.25,5"/><path class="cls-2" d="M881.09,370.48a57.38,57.38,0,0,0,1.41-13.76l-20.41,0s7.12,5.77,7.64,6.12Q875.4,366.66,881.09,370.48Z"/><path class="cls-2" d="M842.8,611.25a1.39,1.39,0,0,0-.11-.9,1.31,1.31,0,0,0-.69-.45c-4.52-1.66-9.49-1.42-14.21-2.36-2.5-.49-4.92-1.32-7.4-1.91a77.8,77.8,0,0,0-9.38-1.44,18,18,0,0,1-2.32,6c.47-.77,16.6,4.25,18.49,4.78,4.94,1.39,9.53,4.12,14.44,5.38A77.7,77.7,0,0,0,842.8,611.25Z"/><path class="cls-2" d="M848.77,664.57c3,5,4.11,13.16,7.74,17.2,1.8-2.11,1.7-6.37,2.12-9.06.85-5.53,2.55-10.56,3.91-15.93C861.22,657.09,848.06,663.39,848.77,664.57Z"/><path class="cls-2" d="M828.79,688.74c-.15-3.5-.31-7-.46-10.51a30.94,30.94,0,0,0-13.66,1.6.81.81,0,0,0-.39.23.76.76,0,0,0,0,.63c.85,4.13.44,4.86,4.12,5.62C819.71,686.59,828.72,687.09,828.79,688.74Z"/><path class="cls-2" d="M929.6,764.76c.76,1.07,1.71,2.25,3,2.29a4.39,4.39,0,0,0,2.23-.79l4.74-2.78c-6-8-13.28-17.29-21.61-23-4.34,4.42-1.67,5.68,1.4,9.54C923.07,754.69,926.17,759.92,929.6,764.76Z"/><path class="cls-2" d="M956.44,701.49c0-.22.06-.51-.14-.61a.5.5,0,0,0-.34,0l-17.07,3.68a.9.9,0,0,0-.74,1.49,38.18,38.18,0,0,1,2.65,7.59c.76,3.82.41,7.8,1.12,11.63.6,3.24,9.19-1.07,10.23-3.23C954.87,716.35,955.26,707.7,956.44,701.49Z"/><path class="cls-2" d="M951.93,611.65a37.32,37.32,0,0,1,2-14.71,113.39,113.39,0,0,0-20.1-.15c1.16,4,1.33,9.86,5.39,11.06,1.72.5,3.47.13,5.38.83C947.08,609.59,949.39,610.85,951.93,611.65Z"/><path class="cls-2" d="M968.84,446.12a1.22,1.22,0,0,0,.69.38,1.29,1.29,0,0,0,.77-.34l9.09-6.92-22.24-14.31a41.77,41.77,0,0,1-3.85,7.75C958.32,437.22,963.66,441.65,968.84,446.12Z"/><path class="cls-2" d="M880.39,412.88a13.37,13.37,0,0,1,6.22-4.73c-.5-2.22-1-4.45-1.51-6.67a1.77,1.77,0,0,0-.44-1,1.71,1.71,0,0,0-1.49-.17,24.39,24.39,0,0,0-12.06,6.32,31.92,31.92,0,0,1,3.42,9.25,17.79,17.79,0,0,1,5.67-3.39"/><path class="cls-2" d="M903.52,337.75a15.21,15.21,0,0,0,8.81,3.4,62,62,0,0,1,.77-10.8H898.16c0,2.53,0,5.06,0,7.59l5.19.05"/><path class="cls-2" d="M822.87,533.21a65.47,65.47,0,0,1,5.78-12.66c-1.83-1.27-4.12-1.61-6.31-2-7-1.21-13.39-3.86-20.16-5.51-.94,8.12,2.5,4.86,7.65,8S817.4,530.36,822.87,533.21Z"/><path class="cls-2" d="M809,555.46a30.72,30.72,0,0,1,10.91,1.86c-.09-3.57-.17-7.14-.26-10.71a68,68,0,0,1-17.74,3.5q3,3.38,5.64,7a2.89,2.89,0,0,1,2.16-1.48"/><path class="cls-2" d="M836.77,563.75a49.3,49.3,0,0,0,12.42,4.87c0-1.39,0-2.77,0-4.16a80.86,80.86,0,0,0-11.84-2.28l1.41,3.4"/><path class="cls-2" d="M1081.47,489.12a49.65,49.65,0,0,0,12.42,4.86c0-1.38,0-2.77,0-4.15a79.69,79.69,0,0,0-11.85-2.28l1.42,3.4"/><path class="cls-2" d="M937.67,237.52a49.08,49.08,0,0,0,12.41,4.87c0-1.39,0-2.77,0-4.16A80.86,80.86,0,0,0,938.26,236l1.41,3.4"/><path class="cls-2" d="M842.42,594.64l4.56,8.2c.08.14.18.29.34.31a.5.5,0,0,0,.33-.1l5.7-3.45a14.39,14.39,0,0,0-4.53-7.39c-2-1.73-5.05-2.87-7.23-1.37a3,3,0,0,0-1.35,2.25,2.07,2.07,0,0,0,1.42,2.07"/><path class="cls-2" d="M851,647.38a19,19,0,0,0,7.19.73,65.3,65.3,0,0,1-.71-7l-10.37,2.45.42.86a5.76,5.76,0,0,0,1.39,2,1.89,1.89,0,0,0,2.26.16"/><path class="cls-2" d="M919.84,631.44q2.07-6.26,4.15-12.5l-10.7,2.42-1.63,12.46,5.26,1.39a1.13,1.13,0,0,0,1.68-.85l1.42-4"/><path class="cls-2" d="M884.41,533a2.46,2.46,0,0,0,1,1,2.4,2.4,0,0,0,2.05-.51l3.82-2.32a1.09,1.09,0,0,0,.52-.52c.13-.35-.12-.71-.35-1A101.75,101.75,0,0,1,881,513.47a1.12,1.12,0,0,0-.5-.57,1.09,1.09,0,0,0-.87.2c-3.73,2.16-10.39,5.8-5.7,9.44C878,525.69,881.39,528.45,884.41,533Z"/><path class="cls-2" d="M937.18,482.84a2,2,0,0,0,1.06-.67,1.92,1.92,0,0,0,.16-1.19c-.17-2.12-.33-4.24-.5-6.36-1,.51-1.92,1.18-2.9,1.74-5.26,3-11.87,2.28-17.39,4.69a1.25,1.25,0,0,0-.49.31c-.43.5,0,1.23.44,1.76a7.26,7.26,0,0,1,1.42,4.69C924.9,485,931.12,484.94,937.18,482.84Z"/><path class="cls-2" d="M165.72,361.92a132.51,132.51,0,0,0-13.37-30.16,289.07,289.07,0,0,1-30.89,32.38l27.87,13.39a3.3,3.3,0,0,0,2.2.49c1-.26,1.56-1.39,1.94-2.39q3.12-8.2,6.25-16.42C161.88,359.83,163.56,361.31,165.72,361.92Z"/><path class="cls-2" d="M127.26,478.42c-1.21,4.36-2.18,8.94-1.32,13.38.76,3.95,2.92,7.48,5.08,10.87q4.51,7.08,9.31,13.95a3.67,3.67,0,0,0,2.08,1.77,3.72,3.72,0,0,0,2.76-1l26.11-19.09a3.13,3.13,0,0,0,1.11-5.07c-1.9-3.27-9.19-12-8.82-15.88.53-5.59,6.8-5.27,8.38-10.28,3.2-10.19-2.44-16.59-10.68-23.15-11.48-9.15-13.16-8.51-21.25,4.73A118.34,118.34,0,0,0,127.26,478.42Z"/><path class="cls-2" d="M140.83,585.11a4.31,4.31,0,0,0-6.05,2.08Q122.35,604,110.23,621.06l88.84,2.35c-.59-15.31-2.94-18.73-17-23.87Q161.54,592.05,140.83,585.11Z"/><path class="cls-2" d="M195.92,549.73q3.62-13.66,6.44-27.52L177.44,519a142.35,142.35,0,0,0-3.3,35.41,4.56,4.56,0,0,0,3,5l15.36,8.3a16,16,0,0,1,7.5-12.84,8.86,8.86,0,0,0-3.48-4.76"/><path class="cls-2" d="M166.58,293.33a6.51,6.51,0,0,1-.32-2.86,6.72,6.72,0,0,1,1.67-2.92L177.44,276c.39,20.36,4.72,37,9.19,56.42C173.84,329,169.45,304.11,166.58,293.33Z"/><path class="cls-2" d="M.18,651.42A117.62,117.62,0,0,0,4.77,691a4.12,4.12,0,0,0,1.54,2.56,4,4,0,0,0,2.5.28c6.64-.74,13.05-2.77,19.53-4.41,18.09-4.56,36.8-6,55.41-7.48-1,.12-2.45-11.19-2.52-11.86C53.56,669.38,27,659.11.18,651.42Z"/><path class="cls-2" d="M130.88,401.79c-3.47-1.67-7.08-3.15-10.09-5.54s-5.41-5.9-5.39-9.75A114.76,114.76,0,0,1,131.07,390c3.42,1,6.9,2.24,9.56,4.63,6.9,6.22,6.74,18.78,15.11,22.83C147,413.24,139.74,406,130.88,401.79Z"/><path class="cls-2" d="M81.77,377.7a351,351,0,0,1-40.31,26.84l15.19,22.55a4.2,4.2,0,0,0,1.85,1.79,4.25,4.25,0,0,0,2.29-.06l25.34-5.5a27.58,27.58,0,0,1,1-10.22,4,4,0,0,1,1.93-2.76,4.05,4.05,0,0,1,2.61.14,83.47,83.47,0,0,1,30,15.55c5.7,4.64,8.38-3.87,8-8.73-.51-6.31-4.58-9.27-9.15-13.57C116.64,400.11,86.7,373.91,81.77,377.7Z"/><path class="cls-2" d="M616.85,776.86c-1.23-1-2.89-2.1-4.31-1.37a3.91,3.91,0,0,0-1.53,1.84,36.55,36.55,0,0,0-3.26,9c-.17.78-.32,1.57-.44,2.36a4.52,4.52,0,0,0,.44,3.38c.75,1,2.11,1.23,3.34,1.42,5.75.91,14.23,6.6,16.45-.08C629.44,787.7,620.36,779.81,616.85,776.86Z"/><path class="cls-2" d="M68.52,504.21l-18-22.33L35.68,496q17.87,7.5,36.22,13.71Q74,502.8,76.09,496a21,21,0,0,1-7.42-3.62l.06,8.93"/><path class="cls-2" d="M60.42,549.27a81.77,81.77,0,0,0,3.07,21.27,2.07,2.07,0,0,0,.92,1.45,2.14,2.14,0,0,0,1.41-.07,200.48,200.48,0,0,0,45.12-19.48c15-8.83-6-9.4-12.61-9C94.89,543.62,60.39,546.8,60.42,549.27Z"/><path class="cls-2" d="M18.22,346.33c.12-1.18.36-2.54,1.39-3.13,1.19-.68,2.78.16,3.4,1.37a7.59,7.59,0,0,1,.42,4q-1.75,23-5.57,45.73c.67-4-1.06-13.69-1-18.71C17,365.81,17.2,356.1,18.22,346.33Z"/><path class="cls-2" d="M91.76,740.58a27.07,27.07,0,0,0,16.51,2.19c.77-.14,6.23-50.54,6.29-55.09C101.07,687.33,93.36,730.46,91.76,740.58Z"/><path class="cls-2" d="M193.22,417.63a3.6,3.6,0,0,0-1.09,2.41,3.53,3.53,0,0,0,.79,1.71A130.75,130.75,0,0,0,223,452.11c6-12.24,23.38-32.27,9.59-41.77-3.47-2.4-15-10.48-18.16-11.32C206.58,396.93,198.58,411,193.22,417.63Z"/><path class="cls-2" d="M228.52,380.17q-6.79-15.26-13.58-30.5l-11,11.58a270.9,270.9,0,0,1,24.44,20.43l-2.3-4.45"/><path class="cls-2" d="M194,706.44c-1.05,1.15-2.14,2.45-2.17,4a6.23,6.23,0,0,0,.83,2.79,102,102,0,0,0,19.11,27.25,414.14,414.14,0,0,0,26.2-37.56,3,3,0,0,0,.63-1.84,3,3,0,0,0-1.32-1.76L221.57,686.8a8,8,0,0,0,4.85-6.72C216.47,678.81,200.27,699.56,194,706.44Z"/><path class="cls-2" d="M184.06,649a4.17,4.17,0,0,0-2.3.37,4.38,4.38,0,0,0-1.64,2.68L174,671.53a224.37,224.37,0,0,1,33.43,3.08c2.23-8.75,5-12.2-1.64-18.4C200.61,651.37,190.9,649.3,184.06,649Z"/><path class="cls-2" d="M231.38,633.14l-23-7.73,13.68,35.49q7-10.86,14.09-21.72c.43-.67.87-1.51.51-2.21a2.26,2.26,0,0,0-1.35-.9,38.42,38.42,0,0,0-7.41-1.76"/><path class="cls-2" d="M207.29,476.12q-5.78,7.72-11.54,15.47L213.92,499a124.29,124.29,0,0,1,4.63-18.82l-7.17-3.33"/><path class="cls-2" d="M212.09,579.75a69.72,69.72,0,0,0-8.08,2.6c-.7.28-1.52.7-1.6,1.46a2.14,2.14,0,0,0,.52,1.38q5,7.44,10.09,14.86a101.55,101.55,0,0,0,7.82-16.41,4.36,4.36,0,0,0,.39-2c-.37-2.89-5.44-2.61-6.48-5.34a1.7,1.7,0,0,0-1.56,1.75"/><path class="cls-2" d="M226.07,330.89a55.44,55.44,0,0,1-19.34-13.76c-2.82-3.11-6-6.89-10.22-6.44a12.18,12.18,0,0,1-3.67,5.88,182.86,182.86,0,0,0,33.69,23.62,12.32,12.32,0,0,0,1.85-5.59c0-2-1.34-4.12-3.31-4.32"/><path class="cls-2" d="M161.91,756.34a7.66,7.66,0,0,0-3.63,2.61,7.77,7.77,0,0,0-.74,4.15l.12,14.74c7.61-3.81,38-17,36.32-25.49C191.17,737.71,168.26,753.49,161.91,756.34Z"/><path class="cls-2" d="M229.48,751.8a64.43,64.43,0,0,1-17.77,11.31c-2.53,1.07-5.21,2-7.14,4s-2.8,5.3-1.12,7.47l16.7-7.61c3.23-1.48,6.58-3,8.84-5.78s3.08-7,.88-9.81a2.07,2.07,0,0,0-2.82.72"/><path class="cls-2" d="M196.34,681.82a21.71,21.71,0,0,0-7.49,1.16c-2.35,1-4.44,3-4.74,5.51-.41,3.42,2.46,6.75,1.58,10.08a91.15,91.15,0,0,1,15.93-10.09,9.39,9.39,0,0,0-4.25-5"/><path class="cls-2" d="M152.28,696.58a57.41,57.41,0,0,0-1.4,13.77h20.4s-7.12-5.77-7.63-6.12Z"/><path class="cls-2" d="M190.57,455.81a1.42,1.42,0,0,0,.11.91,1.29,1.29,0,0,0,.69.44c4.52,1.67,9.49,1.42,14.21,2.36,2.5.5,4.92,1.32,7.4,1.91a79.86,79.86,0,0,0,9.38,1.45,17.92,17.92,0,0,1,2.33-6c-.48.76-16.6-4.26-18.49-4.79-4.95-1.38-9.54-4.12-14.44-5.38A75.9,75.9,0,0,0,190.57,455.81Z"/><path class="cls-2" d="M184.6,402.49c-2.95-5-4.11-13.16-7.74-17.2-1.8,2.12-1.7,6.38-2.12,9.06-.85,5.53-2.55,10.57-3.91,15.94C172.15,410,185.31,403.67,184.6,402.49Z"/><path class="cls-2" d="M204.58,378.33q.24,5.25.46,10.5a31.08,31.08,0,0,0,13.66-1.59.77.77,0,0,0,.39-.23.83.83,0,0,0,0-.64c-.86-4.12-.45-4.85-4.12-5.61C213.66,380.47,204.66,380,204.58,378.33Z"/><path class="cls-2" d="M103.77,302.31c-.76-1.08-1.71-2.26-3-2.3a4.28,4.28,0,0,0-2.22.8l-4.75,2.77c6,8,13.28,17.29,21.61,23,4.35-4.42,1.67-5.68-1.4-9.54C110.3,312.37,107.2,307.14,103.77,302.31Z"/><path class="cls-2" d="M76.93,365.58c0,.22-.06.5.14.6a.52.52,0,0,0,.35,0l17.06-3.68a1.19,1.19,0,0,0,.85-.47,1.16,1.16,0,0,0-.11-1,37.31,37.31,0,0,1-2.64-7.59c-.77-3.82-.42-7.79-1.13-11.63-.6-3.24-9.19,1.07-10.23,3.24C78.5,350.71,78.12,359.36,76.93,365.58Z"/><path class="cls-2" d="M81.44,455.42a37.27,37.27,0,0,1-2,14.7,112.45,112.45,0,0,0,20.1.15c-1.15-4-1.33-9.86-5.39-11-1.72-.51-3.47-.14-5.38-.84C86.29,457.47,84,456.22,81.44,455.42Z"/><path class="cls-2" d="M64.53,620.94a1.15,1.15,0,0,0-.69-.37,1.18,1.18,0,0,0-.77.34L54,627.82l22.24,14.31a42.4,42.4,0,0,1,3.85-7.75C75.05,629.85,69.71,625.41,64.53,620.94Z"/><path class="cls-2" d="M153,654.19a13.42,13.42,0,0,1-6.22,4.72c.51,2.23,1,4.45,1.51,6.68a1.32,1.32,0,0,0,1.93,1.15,24.4,24.4,0,0,0,12.06-6.33,31.81,31.81,0,0,1-3.42-9.25,17.5,17.5,0,0,1-5.67,3.39"/><path class="cls-2" d="M129.85,729.31a15.34,15.34,0,0,0-8.8-3.4,61.12,61.12,0,0,1-.78,10.81h14.94q0-3.79,0-7.59l-5.2,0"/><path class="cls-2" d="M210.5,533.86a65.94,65.94,0,0,1-5.77,12.65c1.82,1.27,4.11,1.62,6.3,2,7,1.22,13.39,3.86,20.16,5.52.94-8.13-2.5-4.87-7.64-8S216,536.71,210.5,533.86Z"/><path class="cls-2" d="M224.4,511.61a30.77,30.77,0,0,1-10.91-1.87q.13,5.35.26,10.71a68.07,68.07,0,0,1,17.74-3.5c-2-2.24-3.85-4.57-5.64-7a2.93,2.93,0,0,1-2.16,1.49"/><path class="cls-2" d="M196.6,503.31a49.65,49.65,0,0,0-12.42-4.86c0,1.38,0,2.77,0,4.15A79.69,79.69,0,0,0,196,504.88l-1.42-3.4"/><path class="cls-2" d="M191,472.42l-4.56-8.19c-.08-.14-.18-.3-.34-.32a.52.52,0,0,0-.33.11l-5.7,3.45a14.47,14.47,0,0,0,4.53,7.38c2,1.73,5,2.87,7.23,1.37a3,3,0,0,0,1.35-2.24,2.07,2.07,0,0,0-1.41-2.08"/><path class="cls-2" d="M182.39,419.69a18.57,18.57,0,0,0-7.19-.73,67.82,67.82,0,0,1,.72,7l10.36-2.44-.42-.87a5.51,5.51,0,0,0-1.39-2,1.87,1.87,0,0,0-2.26-.15"/><path class="cls-2" d="M113.53,435.62q-2.07,6.25-4.15,12.51l10.7-2.43,1.63-12.45-5.26-1.39a1.12,1.12,0,0,0-1.68.84c-.47,1.34-1,2.67-1.42,4"/><path class="cls-2" d="M149,534.1a2.43,2.43,0,0,0-1-1,2.39,2.39,0,0,0-2,.5l-3.81,2.32a1.07,1.07,0,0,0-.53.52,1.13,1.13,0,0,0,.35,1,102.21,102.21,0,0,1,10.45,16.15,1.08,1.08,0,0,0,.5.57,1,1,0,0,0,.87-.2c3.73-2.16,10.39-5.8,5.7-9.43C155.36,541.37,152,538.61,149,534.1Z"/><path class="cls-2" d="M96.19,584.23a1.88,1.88,0,0,0-1.06.66,1.94,1.94,0,0,0-.16,1.19q.25,3.18.5,6.36c1-.51,1.92-1.18,2.9-1.73,5.26-3,11.87-2.28,17.4-4.7a1.17,1.17,0,0,0,.48-.31c.43-.5,0-1.23-.44-1.75a7.27,7.27,0,0,1-1.42-4.7C108.47,582.06,102.25,582.13,96.19,584.23Z"/><path class="cls-2" d="M207.17,596.24c1.1-2.35,2.21-4.69,3.31-7a1.56,1.56,0,0,0-.75-2.51l-27.08-15.61c.76,7.08,1.93,9.65,7.34,14.34C191.46,586.69,206.65,597.35,207.17,596.24Z"/><path class="cls-2" d="M186.41,639.23c.22-.54-1,0-.56.38s1.11,0,1.58-.29a20.82,20.82,0,0,1,14.94-3.69,5.88,5.88,0,0,0-4.62-7.69c-4.29-.45-8,4-12.25,3.55a29.78,29.78,0,0,0,.25,8.38"/><path class="cls-2" d="M168.73,371c1.6-2.21,3.14-4.45,4.63-6.74q1.86-2.86,3.61-5.81c4.76,2.74,21.07,8.16,16.4,14.44C190.38,376.93,168.73,372.21,168.73,371Z"/><path class="cls-2" d="M176,344.46a7.08,7.08,0,0,0,7.87,2.39,53.37,53.37,0,0,1,3.51-14.3,100.59,100.59,0,0,0-19.85.65,11.07,11.07,0,0,0,8.75,12.16"/><path class="cls-2" d="M124.94,315.38a22.83,22.83,0,0,0,12.86,10.35q.81-3.8,1.6-7.57a4.09,4.09,0,0,0,0-2.72,4.16,4.16,0,0,0-2.42-1.7l-9.65-3.69a18.57,18.57,0,0,0,.64,8.44"/><path class="cls-2" d="M113.18,528.77a15.31,15.31,0,0,1,7.38-5.47c2-.67,4.38-1.24,5-3.21.54-1.68-.6-3.4-1.68-4.81-2.26-2.94-5.65-6.23-9.1-4.87a8.62,8.62,0,0,0-3,2.33L107,517.9a11.1,11.1,0,0,0-1.51,1.85,5.62,5.62,0,0,0,8.52,7.14"/><path class="cls-2" d="M118.8,661.67a24,24,0,0,0,14-8.09,4.64,4.64,0,0,0,1.39-3.14c-.16-2.08-2.62-3.05-4.65-3.55a28.48,28.48,0,0,0-8.23-1.17,9.61,9.61,0,0,0-7.29,3.48c-1.18,1.59-1.66,3.61-2.84,5.18-.74,1-1.76,1.84-1.92,3-.32,2.56,3.14,3.64,5.72,3.75"/><path class="cls-2" d="M49.34,748.75l-14.22,16.7L30.36,758,41.1,746.81a4.07,4.07,0,0,1,2.55-1.58c1.45-.06,2.46,1.36,3.34,2.52s2.41,2.3,3.65,1.55"/><path class="cls-2" d="M1102.74,367.27,1088.52,384l-4.75-7.43,10.73-11.21a4.14,4.14,0,0,1,2.55-1.58c1.45-.06,2.46,1.36,3.34,2.52s2.41,2.3,3.66,1.55"/><path class="cls-2" d="M87.6,794.56a10.17,10.17,0,0,1,3.83-9.07,36.54,36.54,0,0,0-11.49,1.41,84.52,84.52,0,0,1,5.13,11.94l2.83-6.48"/><path class="cls-2" d="M741.32,251.6a10.17,10.17,0,0,1,3.83-9.06,36.82,36.82,0,0,0-11.49,1.4,84.64,84.64,0,0,1,5.13,11.95l2.83-6.49"/><path class="cls-2" d="M17.78,536a29.5,29.5,0,0,0,14.81,6.22q-1.41-7.87-2.83-15.76l-2.9.87c-2.23.67-4.56,1.4-6.21,3s-2.32,4.53-.82,6.32c-.1-.55-.2-1.1-.31-1.65"/><path class="cls-2" d="M39,588.47l-.09-13.08-4.67,0a54.41,54.41,0,0,1,1.24,16.49h2.61a3,3,0,0,0,.28-3.42"/><path class="cls-2" d="M25.15,447.64l4-8.85c-1.59-.83-3.33-1.69-5.1-1.41-3.8.61-4.87,5.5-5.05,9.34l6.67.82c-.43-1.14-.87-2.27-1.31-3.4"/><path class="cls-2" d="M56.87,334.57,49.13,322a52.11,52.11,0,0,0-6.85,4.35,2,2,0,0,0-.51,3.28c1.4,2.6,2.87,5.28,5.22,7.07,3.51,2.67,9.41,2.39,11.58-1.44l-1.52-.9"/><path class="cls-2" d="M700.62,793l-7.74-12.55a51.63,51.63,0,0,0-6.86,4.36,2.51,2.51,0,0,0-1,1.09,2.75,2.75,0,0,0,.47,2.19c1.4,2.6,2.88,5.28,5.23,7.07,3.5,2.67,9.4,2.38,11.58-1.45l-1.53-.89"/><path class="cls-2" d="M929.93,341.75A177.56,177.56,0,0,0,904,277.53c-25.08,11.81-47.54,28.42-69.82,44.93-3.93,2.91-8.19,6.37-8.79,11.23-.3,2.47.42,4.93,1.13,7.32l12.6,42.15C839.21,383.41,925.22,344.44,929.93,341.75Z"/><path class="cls-2" d="M147.46,719.39c1.18,1.51,2.59,3.11,4.5,3.29a7.28,7.28,0,0,0,4.14-1.4c17.73-10.41,36.14-21.47,47.07-38.88a9.09,9.09,0,0,0,1.53-3.58,9.79,9.79,0,0,0-.58-3.92l-8.43-28.65a250.62,250.62,0,0,0-34.18,15.06c-9.32,5-30.49,10.59-33.09,22.19C125.77,695.33,140.83,711,147.46,719.39Z"/><path class="cls-2" d="M190.05,414.22a3.32,3.32,0,0,0,1.27.73c1.21.26,2.29-.9,2.67-2.08a29,29,0,0,1,.9-3.59c1.26-2.63,5.15-3.46,5.87-6.3.52-2-.87-4-2.21-5.57a170.73,170.73,0,0,0-24.75-24.15,6.38,6.38,0,0,0-2.75-1.51c-1.57-.27-3.08.64-4.42,1.5l-8.24,5.32C150.27,383.81,185.91,410.94,190.05,414.22Z"/><path class="cls-2" d="M791.3,799.25a5.91,5.91,0,0,0,3.83.67,6.34,6.34,0,0,0,2.87-2.25l19.32-22.51a200.28,200.28,0,0,0-49.4-31.07,3.8,3.8,0,0,0-2-.47,3.94,3.94,0,0,0-2.21,1.47c-5.67,6.1-13,12.15-17.69,19-5.2,7.61-.61,8.86,6.31,11.48C766.92,781.13,777.17,793,791.3,799.25Z"/><path class="cls-2" d="M743.52,787.1q5.84,7.83,11.66,15.67l10.15-5.86L752.56,782.5c-.77-.88-1.7-1.83-2.86-1.82a3.77,3.77,0,0,0-2.22,1A25.27,25.27,0,0,0,742.3,787"/><path class="cls-2" d="M804.94,843.85a1.82,1.82,0,0,0-1.36-2.87l-36.19-12.82c-.52-.18-1.16-.35-1.58,0a1.58,1.58,0,0,0-.43,1c-.78,4-5,14.67-3.71,18.4s8.4,5.33,12.49,6.34c9,2.22,14.93,4.94,23.26,9.11C800.67,857.24,802.63,850.1,804.94,843.85Z"/><path class="cls-2" d="M816.42,823.48a39.59,39.59,0,0,0,9.89-11.7L802,820.6l9.12,4.49a1.65,1.65,0,0,0,2.23-.27l4.42-3.49"/><path class="cls-2" d="M90.61,257.55a39.23,39.23,0,0,0,9.9-11.7l-24.36,8.82,9.13,4.5a2.25,2.25,0,0,0,1.09.31,2.19,2.19,0,0,0,1.14-.58l4.41-3.49"/><path class="cls-2" d="M143.21,584.51a4.32,4.32,0,0,0-6.05,2.06q-12.43,16.73-24.55,33.67l88.84,2.34c-.59-15.21-2.94-18.62-17-23.73Q163.91,591.41,143.21,584.51Z"/><path class="cls-2" d="M2.55,650.41a116.54,116.54,0,0,0,4.6,39.34,4.1,4.1,0,0,0,1.54,2.54,4.09,4.09,0,0,0,2.5.28c6.64-.73,13.05-2.76,19.53-4.38,18.09-4.54,36.8-6,55.41-7.44-1,.12-2.45-11.12-2.52-11.79C55.93,668.26,29.36,658.06,2.55,650.41Z"/><path class="cls-2" d="M133.25,402.31c-3.46-1.66-7.07-3.13-10.08-5.51s-5.41-5.86-5.39-9.68a116.52,116.52,0,0,1,15.67,3.46c3.42,1,6.9,2.23,9.55,4.61,6.91,6.18,6.75,18.66,15.12,22.68C149.41,413.69,142.12,406.54,133.25,402.31Z"/><path class="cls-2" d="M84.15,378.37A350.2,350.2,0,0,1,43.83,405L59,427.46a4.16,4.16,0,0,0,1.85,1.77,4.06,4.06,0,0,0,2.29-.06l25.34-5.46a27.05,27.05,0,0,1,1-10.16,4,4,0,0,1,1.92-2.74,4.15,4.15,0,0,1,2.62.13,84,84,0,0,1,30,15.46c5.7,4.61,8.38-3.84,8-8.67-.51-6.27-4.59-9.22-9.15-13.49C119,400.64,89.08,374.6,84.15,378.37Z"/><path class="cls-2" d="M70.9,504.1l-18-22.19-14.84,14q17.85,7.46,36.22,13.63,2.1-6.81,4.19-13.62a21.15,21.15,0,0,1-7.42-3.6l.06,8.87"/><path class="cls-2" d="M62.79,548.89A80.87,80.87,0,0,0,65.87,570a2,2,0,0,0,.92,1.44,2.14,2.14,0,0,0,1.41-.07A201,201,0,0,0,113.32,552c15-8.78-6-9.34-12.61-9C97.27,543.28,62.76,546.44,62.79,548.89Z"/><path class="cls-2" d="M20.6,347.19c.12-1.17.36-2.52,1.39-3.11,1.19-.67,2.78.15,3.39,1.36a7.42,7.42,0,0,1,.43,4q-1.75,22.83-5.57,45.45c.67-4-1.06-13.62-1-18.6C19.42,366.55,19.58,356.9,20.6,347.19Z"/><path class="cls-2" d="M94.14,739a27.14,27.14,0,0,0,16.51,2.18c.77-.14,6.23-50.24,6.29-54.75C103.45,686.11,95.74,729,94.14,739Z"/><path class="cls-2" d="M106.15,303.43c-.76-1.06-1.71-2.23-3-2.27a4.29,4.29,0,0,0-2.23.78l-4.74,2.76c6,8,13.28,17.19,21.61,22.83,4.34-4.39,1.67-5.64-1.4-9.48C112.68,313.44,109.58,308.24,106.15,303.43Z"/><path class="cls-2" d="M79.31,366.32c0,.22-.06.5.14.6a.56.56,0,0,0,.34,0l17.07-3.66a.9.9,0,0,0,.74-1.49A37.74,37.74,0,0,1,95,354.24c-.76-3.8-.41-7.75-1.12-11.56-.6-3.22-9.19,1.06-10.23,3.21C80.88,351.54,80.49,360.14,79.31,366.32Z"/><path class="cls-2" d="M83.82,455.61a36.83,36.83,0,0,1-2,14.61,113.39,113.39,0,0,0,20.1.16c-1.16-4-1.33-9.81-5.39-11-1.72-.5-3.47-.14-5.38-.83C88.67,457.65,86.36,456.41,83.82,455.61Z"/><path class="cls-2" d="M66.91,620.12a1.27,1.27,0,0,0-.69-.37,1.29,1.29,0,0,0-.77.34L56.36,627,78.6,641.19a41.73,41.73,0,0,1,3.85-7.71C77.43,629,72.09,624.57,66.91,620.12Z"/><path class="cls-2" d="M132.23,727.83a15.39,15.39,0,0,0-8.8-3.38,62.26,62.26,0,0,1-.78,10.74h14.94c0-2.52,0-5,0-7.55l-5.19,0"/><path class="cls-2" d="M115.91,435.94l-4.15,12.42,10.7-2.41,1.63-12.37-5.26-1.39a1.13,1.13,0,0,0-1.68.85c-.47,1.32-1,2.64-1.42,4"/><path class="cls-2" d="M98.57,583.63a2,2,0,0,0-1.06.66,1.93,1.93,0,0,0-.16,1.19c.17,2.11.34,4.21.5,6.32,1-.51,1.92-1.18,2.9-1.73,5.26-2.94,11.87-2.26,17.4-4.66a1.28,1.28,0,0,0,.48-.31c.43-.5,0-1.22-.44-1.75a7.18,7.18,0,0,1-1.42-4.66C110.85,581.48,104.63,581.55,98.57,583.63Z"/><path class="cls-2" d="M115.56,528.51a15.3,15.3,0,0,1,7.38-5.43c2-.67,4.38-1.23,5-3.19.54-1.67-.6-3.38-1.68-4.78-2.26-2.92-5.65-6.19-9.11-4.84a8.65,8.65,0,0,0-2.94,2.31l-4.87,5.13a11,11,0,0,0-1.51,1.84,5.76,5.76,0,0,0,1.2,7.17,5.84,5.84,0,0,0,7.32-.08"/><path class="cls-2" d="M121.18,660.6a24,24,0,0,0,14-8,4.49,4.49,0,0,0,1.39-3.12c-.16-2.07-2.61-3-4.64-3.53a28.81,28.81,0,0,0-8.23-1.16,9.69,9.69,0,0,0-7.29,3.46c-1.18,1.58-1.66,3.58-2.84,5.15-.74,1-1.76,1.83-1.92,3-.32,2.54,3.14,3.62,5.72,3.73"/><path class="cls-2" d="M51.72,747.15,37.5,763.75l-4.76-7.38,10.74-11.15A4.08,4.08,0,0,1,46,743.66c1.45-.06,2.46,1.35,3.34,2.5s2.41,2.28,3.65,1.54"/><path class="cls-2" d="M90,792.68a10.09,10.09,0,0,1,3.82-9,36.79,36.79,0,0,0-11.48,1.4,83.68,83.68,0,0,1,5.13,11.87l2.83-6.45"/><path class="cls-2" d="M20.16,535.7A29.6,29.6,0,0,0,35,541.89q-1.41-7.85-2.83-15.67l-2.9.86c-2.23.67-4.56,1.39-6.21,3s-2.32,4.5-.82,6.27c-.1-.54-.2-1.09-.31-1.63"/><path class="cls-2" d="M41.36,587.85l-.09-13-4.67,0a53.76,53.76,0,0,1,1.24,16.39h2.61a3,3,0,0,0,.28-3.4"/><path class="cls-2" d="M27.53,447.88l4-8.8c-1.59-.82-3.33-1.67-5.1-1.39-3.8.6-4.87,5.46-5.06,9.28l6.68.81c-.44-1.13-.87-2.26-1.31-3.38"/><path class="cls-2" d="M59.25,335.5,51.51,323a51.26,51.26,0,0,0-6.85,4.32,2.66,2.66,0,0,0-1,1.09,2.77,2.77,0,0,0,.47,2.18c1.41,2.58,2.88,5.24,5.23,7,3.51,2.66,9.4,2.37,11.58-1.44l-1.52-.88"/><path class="cls-2" d="M93,259a39.19,39.19,0,0,0,9.9-11.62l-24.36,8.76,9.13,4.47a2.22,2.22,0,0,0,1.09.31,2.19,2.19,0,0,0,1.14-.58l4.41-3.47"/><path class="cls-2" d="M361.1,797a39.38,39.38,0,0,0,9.9-11.7l-24.36,8.82,9.13,4.49a2.23,2.23,0,0,0,1.09.32,2.35,2.35,0,0,0,1.14-.58l4.41-3.5"/><path class="cls-2" d="M853.82,859.1q.4-5.9.28-11.8a1.55,1.55,0,0,0-.22-.93c-.44-.56-1.33-.26-2,.08l-6,3.28a2.91,2.91,0,0,0-1.37,1.19,2.48,2.48,0,0,0-.11,1.35,8.48,8.48,0,0,0,9,7"/><path class="cls-2" d="M397.7,277.5q.41-5.89.28-11.81a1.52,1.52,0,0,0-.22-.92c-.44-.56-1.33-.27-2,.08l-6,3.28a2.91,2.91,0,0,0-1.37,1.19,2.44,2.44,0,0,0-.11,1.34,8.46,8.46,0,0,0,9,7"/><path class="cls-2" d="M724.27,779.63a1.79,1.79,0,0,0,1.08.7,1.65,1.65,0,0,0,.91-.32,37.59,37.59,0,0,0,6.21-4.66L714.4,759.93c-4.87,4.19-3.81,4.42.4,9.1Z"/><path class="cls-2" d="M723.68,824A59.32,59.32,0,0,1,740,816.19a16.56,16.56,0,0,1-6.44-3.41,2,2,0,0,0-1.31-.66,1.85,1.85,0,0,0-.93.43l-12.44,8.9,4.91,2.21"/><path class="cls-2" d="M803,286.74a123.21,123.21,0,0,0,19.13-18.17l-18.43-6-13.9,19.69a13,13,0,0,0,11,4.39"/><path class="cls-2" d="M869.38,265.67a4.34,4.34,0,0,0,1.33-2c.41-2-1.91-3.36-3.82-4.05l-7.36-2.68c-1.08-.39-2.48-.71-3.22.17a3,3,0,0,0-.5,1.4C853.88,269.59,849.33,279,844.6,289,849.8,290.43,865.07,270.08,869.38,265.67Z"/><path class="cls-2" d="M829.61,256.24a19.61,19.61,0,0,0,8.21,3.76,2.18,2.18,0,0,0,1.29,0c.67-.32.85-1.17,1-1.89a14.42,14.42,0,0,1,4.07-7.33l-7.84-1.29a140.62,140.62,0,0,0-15.55-2c1.52,1.06,2.13,3,2.86,4.68s2,3.5,3.8,3.69c1.17.11,2.83-.18,3.12,1"/><path class="cls-2" d="M833.08,281.65a46.07,46.07,0,0,1,5.56-7.33l-8.11.08-.08,6.68a2.18,2.18,0,0,0,.19,1.11,1.43,1.43,0,0,0,1.88.37,3.62,3.62,0,0,0,1.35-1.59"/><path class="cls-2" d="M907.22,272.65c.68.45,1.51,1,2.26.62a2.43,2.43,0,0,0,.78-.72l4-5.06c-3.12-1-16.56-7.31-17.74-3.86C894.81,268.57,905,271.13,907.22,272.65Z"/><path class="cls-2" d="M781.75,289a1.36,1.36,0,0,0,.82,0,1.31,1.31,0,0,0,.61-.89c.3-.91.6-1.82.91-2.73a1.34,1.34,0,0,0,.09-.68c-.15-.6-1-.63-1.6-.56-9,1.08-17.47-4.68-26.52-5.52,1.28.12,3.41,3.22,4.8,3.88,1.55.74,3.7,1,5.35,1.6C771.34,285.93,776.51,287.57,781.75,289Z"/><path class="cls-2" d="M951.85,298q-.4-5.93-.82-11.85a.79.79,0,0,0-1-.93,84.91,84.91,0,0,0-22.38,2.68,32,32,0,0,1,1.58,10.81C929.24,299.94,950,297.53,951.85,298Z"/><path class="cls-2" d="M226.24,289.23c5.46,2,11.06,4,16.86,3.93a21.69,21.69,0,0,1,.61-9.87c-6.83-3.08-13.74-6.18-21.11-7.56-3.76-.7-7.62-1-11.29-2.07-2.36-.71-4.68-1.8-7.15-1.84a12.71,12.71,0,0,1,.08,7.88c-1.25,3.94,4.59,3.29,7.38,4.26C216.51,285.66,221.37,287.48,226.24,289.23Z"/><path class="cls-2" d="M232.54,252.67c-.54,1.15-2.12,1.21-3.4,1.16a34.13,34.13,0,0,0-11.36,1.54,28.86,28.86,0,0,1,8.1,6.26,44,44,0,0,0,3.52,3.82,9.57,9.57,0,0,0,4.36,2.28C235.14,263.83,233.18,256.9,232.54,252.67Z"/><path class="cls-2" d="M299.24,282.88a9.06,9.06,0,0,0-2.66-2.54,7.72,7.72,0,0,0-3.15-.72c-9.3-.6-18.13,3.68-26.46,7.86,1.92-.16,3.58,1.25,4.94,2.62a82.07,82.07,0,0,1,6,6.75,29.25,29.25,0,0,0,5.41,5.85c4.75,3.44,11.17,3.11,17,2.47,4.73-.51,12.81.25,11-6.57C310,293.36,302.61,287.11,299.24,282.88Z"/><path class="cls-2" d="M184.17,810.42a76.89,76.89,0,0,0-11-8.37,38.25,38.25,0,0,1,12.33-10.29,24.81,24.81,0,0,0,5.36-3.23c2.16-2,3.51-4.24,6.7-3.2,3.57,1.17,3.84,4.67,2.82,7.25C197.89,799,189.18,805.87,184.17,810.42Z"/><path class="cls-2" d="M220,798.09l-4.4-18.55c-.32-1.36-.52-3.09.64-3.88a3.62,3.62,0,0,1,1.6-.45c6.41-.74,11.92-2.8,9.49,5.18C226.08,784.38,219.05,794.21,220,798.09Z"/><path class="cls-2" d="M249.33,807.41a1.46,1.46,0,0,1-.06.88,1.54,1.54,0,0,1-1.11.62,18.69,18.69,0,0,0-8.46,4.63c1.94-7.75,1.34-15.88.72-23.84-.23-3-2.25-8.74,2.18-8.44,2.63.18,2.87,2.31,3.61,4.33C248.58,792,248.37,800.62,249.33,807.41Z"/><path class="cls-2" d="M170.59,798.22c-.77.79-1.77,1.67-2.84,1.39-1.39-.36-1.58-2.21-1.61-3.64a24.82,24.82,0,0,0-2-9.34c.5,1.31,22.17-10.39,23.74-6.73C189.57,783.93,173,795.68,170.59,798.22Z"/><path class="cls-2" d="M933.92,432q3-8.82,5.9-17.62A1050.66,1050.66,0,0,1,811,406.08c2.78.35-2.16,20.49,8.82,22.1,3.58.53,8.72-2.74,12.37-3.22,6.26-.82,13,.13,19.26.71C878.87,428.25,906.24,435.77,933.92,432Z"/></g></g></svg>