<svg xmlns="http://www.w3.org/2000/svg" xmlns:xlink="http://www.w3.org/1999/xlink" viewBox="0 0 1104.05 710.9"><defs><style>.cls-1{fill:none;}.cls-2{clip-path:url(#clip-path);}.cls-3{fill:#00fff2;}</style><clipPath id="clip-path"><path class="cls-1" d="M504,262.48c-56.69,97.33-31.7-93.31-126.45-151.83-5.25,25.51-85.8,118.23-93.67,180.23C275.33,358.35,343.8,336,331.4,330.3c5.55-4.63,19.25,7.29,1.73,28.41S264.3,367,266.46,318.57c2.14-48.15,113.29-179.19,104.41-210.63h0l.56-1,8.6-8c94,54.77,66.25,260.44,114.24,157.89,27.71-59.24,17.83-232,2-240.74S121.57,242.39,117.13,243.34s-17.11-8.21-10.47-17.62S501.09,0,501.09,0q2.64,5.16,5,10.44l.05.11C532.35,69.72,539,202.41,504,262.48Z"/></clipPath></defs><g id="Layer_2" data-name="Layer 2"><g id="Layer_1-2" data-name="Layer 1"><path d="M732.83,554.3l-3.56-6.49,35.92-29.93V478.3l49-15.84-1-79.29-51.88-18L745,345.26l69.16-21.14V212.48l-20.87,10.09-54-22.41s12.07-30.6,19.73-54.07L506.82.33,314.47,111.5l3,31.54H294.11l-4.69,16.41-22.31-1.8-7.85-14.38L199.19,178v39.7c12.35,5,22.22,9.11,22.22,9.11l-6.29,15.64,19.28,24.11-13,24.59L199.19,273v94.3l27,14.64-14.13,122-12.86,10.7v18.67L506.7,710.9,743.11,574.33,732.35,554.7Z"/><polygon points="823.98 321.99 754.75 343.13 771.03 362.99 823.98 371.79 885.01 381.93 832.98 319.24 823.98 321.99"/><path d="M823.24,478.7l-49,15.83v39.59l-35.46,29.53,10.81,19.73-.53.31,3.61,6.58,21.57,39.37s92.4-47.76,92.25-60.19-34.2-93.66-34.2-93.66Z"/><polygon points="732.95 554.34 732.47 554.73 743.23 574.37 743.76 574.07 732.95 554.34"/><path d="M801.42,216.44l20.9-10.09,47.71-23-96.77-67.37c-.12,4.21-2.69,13.38-6.17,24C759.42,163.44,747.34,194,747.34,194Z"/><polygon points="190.04 370.74 159.77 354.33 166.83 537.38 190.04 518.09 202.92 507.39 217.05 385.38 190.04 370.74"/><path d="M210.61,233l6.3-15.64s-9.88-4.11-22.24-9.11c-20.77-8.41-48.54-19.34-48.14-17.51.63,2.92,10.18,41.79,10.18,41.79l38,31,22.24,18.16,13-24.59Z"/><polygon points="314.15 105.5 311.61 78.49 238.57 99.72 259.11 137.27 266.97 151.65 289.29 153.45 293.98 137.04 317.11 137.04 314.15 105.5"/><path d="M867.65,521.67A132.51,132.51,0,0,0,881,551.83a289.07,289.07,0,0,1,30.89-32.38L884,506.06a3.36,3.36,0,0,0-2.2-.49c-1,.26-1.56,1.39-1.94,2.39l-6.25,16.42C871.5,523.76,869.81,522.28,867.65,521.67Z"/><path d="M906.11,405.17c1.21-4.36,2.18-8.94,1.32-13.38-.76-4-2.92-7.48-5.08-10.87Q897.84,373.85,893,367a2.79,2.79,0,0,0-4.83-.74l-26.12,19.1a4.15,4.15,0,0,0-1.92,2.32,4.2,4.2,0,0,0,.81,2.74c1.9,3.27,9.19,12,8.82,15.88-.53,5.59-6.8,5.27-8.37,10.28-3.2,10.19,2.43,16.59,10.67,23.15,11.49,9.15,13.16,8.51,21.25-4.73A118,118,0,0,0,906.11,405.17Z"/><path d="M892.54,298.48a4.29,4.29,0,0,0,6.05-2.08q12.43-16.81,24.55-33.87l-88.84-2.35c.6,15.31,2.94,18.73,17,23.87Q871.84,291.54,892.54,298.48Z"/><path d="M837.45,333.86q-3.62,13.67-6.44,27.52l24.92,3.21a141.88,141.88,0,0,0,3.3-35.41,6,6,0,0,0-.71-3.17,6.1,6.1,0,0,0-2.33-1.8l-15.36-8.3a16,16,0,0,1-7.49,12.84,8.84,8.84,0,0,0,3.47,4.76"/><path d="M866.79,590.26a6.51,6.51,0,0,1,.32,2.86,6.72,6.72,0,0,1-1.67,2.92l-9.51,11.51c-.39-20.36-4.72-37-9.19-56.42C859.53,554.63,863.92,579.48,866.79,590.26Z"/><path d="M994.34,493.09a117.65,117.65,0,0,0-4.6-39.58A4.14,4.14,0,0,0,988.2,451a4.08,4.08,0,0,0-2.5-.28c-6.64.74-13.05,2.77-19.52,4.41-18.1,4.57-36.81,6-55.42,7.48,1-.11,2.45,11.2,2.52,11.86C941,475.13,967.53,485.39,994.34,493.09Z"/><path d="M902.5,481.8c3.46,1.67,7.07,3.15,10.08,5.54s5.41,5.9,5.39,9.75a115.43,115.43,0,0,1-15.67-3.49c-3.42-1-6.9-2.24-9.55-4.63-6.91-6.22-6.75-18.78-15.12-22.83C886.34,470.35,893.63,477.55,902.5,481.8Z"/><path d="M971.86,198.85a350.3,350.3,0,0,1,3.19-48.33l-27.15-1.63a3.13,3.13,0,0,0-3.88,2.24q-5.52,11.73-11,23.46a27.23,27.23,0,0,1,7.48,7,3.9,3.9,0,0,1,1,3.2,4.09,4.09,0,0,1-1.69,2,83.7,83.7,0,0,1-30.56,14.34c-7.15,1.71-2,9,2.08,11.64,5.32,3.42,10.15,2,16.34,1C932.87,212.92,971.88,205.07,971.86,198.85Z"/><path d="M1021.72,298.26c1.23,1,2.89,2.11,4.32,1.37a3.94,3.94,0,0,0,1.53-1.83,36.88,36.88,0,0,0,3.26-9.06c.17-.78.31-1.56.43-2.35a4.46,4.46,0,0,0-.44-3.38c-.75-1-2.11-1.23-3.33-1.42-5.75-.91-14.24-6.61-16.45.08C1009.13,287.43,1018.21,295.31,1021.72,298.26Z"/><path d="M964.85,379.38l18,22.34,14.84-14.08q-17.85-7.5-36.22-13.7-2.09,6.84-4.19,13.7a21,21,0,0,1,7.42,3.62l-.06-8.93"/><path d="M973,334.32a81.78,81.78,0,0,0-3.08-21.27,2.09,2.09,0,0,0-.92-1.45,2.15,2.15,0,0,0-1.41.07,200.06,200.06,0,0,0-45.12,19.49c-15,8.82,6,9.39,12.61,9C938.48,340,973,336.79,973,334.32Z"/><path d="M1035.27,471.45l11.49,23.26c3.46-.14,6.9-.45,10.33-.91.59-.08,1.3-.27,1.45-.85a1.54,1.54,0,0,0-.34-1.14q-9.67-15.62-19.37-31.22c-.27-.44-.61-.93-1.12-1a1.84,1.84,0,0,0-1.26.52l-3.64,2.78a2.69,2.69,0,0,0-1.3,1.77,2.58,2.58,0,0,0,.55,1.5l7.23,11.63"/><path d="M1015.15,537.26c-.12,1.18-.36,2.54-1.39,3.13-1.19.68-2.78-.16-3.39-1.37a7.49,7.49,0,0,1-.43-4q1.75-23,5.57-45.73c-.67,4,1.07,13.7,1,18.71C1016.33,517.78,1016.17,527.49,1015.15,537.26Z"/><path d="M1087.68,377.61a27.07,27.07,0,0,0-4.65-16c-.44-.65-48.77,14.66-53,16.43C1035.19,390.54,1077.77,380.23,1087.68,377.61Z"/><path d="M857.21,465.07a3.6,3.6,0,0,0,1.09-2.42c0-.63-1.42-1.67-.79-1.7,18.2-.9,1.24-13.95-30.08-30.36-6,12.24-23.38,32.27-9.59,41.77,3.47,2.4,15,10.47,18.16,11.32C843.85,485.77,851.85,471.74,857.21,465.07Z"/><path d="M804.85,503.42l13.58,30.5,11-11.58A270.9,270.9,0,0,1,805,501.91l2.31,4.45"/><path d="M839.41,177.15c1.05-1.15,2.14-2.44,2.17-4a6.34,6.34,0,0,0-.82-2.79,102.16,102.16,0,0,0-19.12-27.25,414.14,414.14,0,0,0-26.2,37.56,2.88,2.88,0,0,0-.62,1.84,2.93,2.93,0,0,0,1.31,1.76l15.67,12.51a8,8,0,0,0-4.85,6.72C816.9,204.78,833.1,184,839.41,177.15Z"/><path d="M849.31,234.58a4.31,4.31,0,0,0,2.31-.36,4.47,4.47,0,0,0,1.63-2.69q3.06-9.74,6.1-19.47A224.38,224.38,0,0,1,825.91,209c-2.23,8.75-5,12.21,1.64,18.4C832.77,232.22,842.47,234.29,849.31,234.58Z"/><path d="M802,250.46l23,7.72L811.3,222.69q-7,10.86-14.09,21.72c-.43.67-.87,1.51-.51,2.21a2.26,2.26,0,0,0,1.35.9,38.6,38.6,0,0,0,7.41,1.76"/><path d="M826.09,407.47,837.62,392l-18.17-7.42a124.29,124.29,0,0,1-4.63,18.82l7.17,3.33"/><path d="M821.28,303.84a69.72,69.72,0,0,0,8.08-2.6c.71-.28,1.52-.7,1.6-1.46a2.14,2.14,0,0,0-.52-1.38l-10.09-14.86A101.55,101.55,0,0,0,812.53,300a4.25,4.25,0,0,0-.38,2c.37,2.89,5.43,2.61,6.47,5.34a1.72,1.72,0,0,0,1.57-1.75"/><path d="M807.31,552.7a55.44,55.44,0,0,1,19.34,13.76c2.81,3.12,6,6.89,10.21,6.44a12.18,12.18,0,0,1,3.67-5.88,182.52,182.52,0,0,0-33.69-23.62A12.32,12.32,0,0,0,805,549c0,2,1.34,4.11,3.31,4.31"/><path d="M871.46,127.25a7.66,7.66,0,0,0,3.63-2.61,7.58,7.58,0,0,0,.74-4.15q0-7.36-.12-14.73c-7.61,3.8-38,17-36.32,25.48C842.2,145.88,865.11,130.1,871.46,127.25Z"/><path d="M803.89,131.79a64.67,64.67,0,0,1,17.77-11.31c2.53-1.07,5.21-2,7.14-4s2.8-5.3,1.12-7.47l-16.7,7.62c-3.23,1.47-6.57,3-8.84,5.77s-3.08,7-.88,9.81a2.07,2.07,0,0,0,2.82-.72"/><path d="M837,201.77a21.47,21.47,0,0,0,7.49-1.16c2.35-1,4.44-3,4.74-5.51.41-3.42-2.46-6.75-1.58-10.08a91.15,91.15,0,0,1-15.93,10.09,9.39,9.39,0,0,0,4.25,5"/><path d="M881.09,187a57.38,57.38,0,0,0,1.41-13.76l-20.41,0s7.12,5.77,7.64,6.12Z"/><path d="M842.8,427.78a1.38,1.38,0,0,0-.11-.9,1.25,1.25,0,0,0-.69-.45c-4.52-1.66-9.49-1.42-14.21-2.36-2.5-.5-4.92-1.32-7.4-1.91a79.86,79.86,0,0,0-9.38-1.45,17.82,17.82,0,0,1-2.32,6c.47-.76,16.6,4.26,18.49,4.79,4.94,1.38,9.53,4.12,14.44,5.38A78,78,0,0,0,842.8,427.78Z"/><path d="M848.77,481.1c3,5,4.11,13.16,7.74,17.2,1.8-2.12,1.7-6.37,2.12-9.06.85-5.53,2.55-10.57,3.91-15.94C861.22,473.61,848.06,479.92,848.77,481.1Z"/><path d="M828.79,505.26c-.15-3.5-.31-7-.46-10.5a31.08,31.08,0,0,0-13.66,1.59.59.59,0,0,0-.43.87c.85,4.12.44,4.85,4.12,5.62C819.71,503.12,828.72,503.61,828.79,505.26Z"/><path d="M929.6,581.28c.76,1.08,1.71,2.26,3,2.3a4.32,4.32,0,0,0,2.23-.8L939.6,580c-6-8-13.28-17.29-21.61-23-4.34,4.42-1.67,5.68,1.4,9.54C923.07,571.22,926.17,576.45,929.6,581.28Z"/><path d="M956.44,518c0-.21.06-.5-.14-.6a.5.5,0,0,0-.34,0l-17.07,3.69a1.15,1.15,0,0,0-.85.46,1.19,1.19,0,0,0,.11,1,38.18,38.18,0,0,1,2.65,7.59c.76,3.82.41,7.8,1.12,11.63.6,3.24,9.19-1.07,10.23-3.24C954.87,532.88,955.26,524.23,956.44,518Z"/><path d="M951.93,428.17a37.27,37.27,0,0,1,2-14.7,112.45,112.45,0,0,0-20.1-.15c1.16,4,1.33,9.86,5.39,11.05,1.72.51,3.47.14,5.38.84C947.08,426.12,949.39,427.37,951.93,428.17Z"/><path d="M968.84,262.65a1.15,1.15,0,0,0,.69.37,1.18,1.18,0,0,0,.77-.34l9.09-6.91-22.24-14.31a42.4,42.4,0,0,1-3.85,7.75C958.32,253.75,963.66,258.18,968.84,262.65Z"/><path d="M880.39,229.4a13.42,13.42,0,0,1,6.22-4.72c-.5-2.23-1-4.45-1.51-6.68a1.77,1.77,0,0,0-.44-1,1.75,1.75,0,0,0-1.49-.18,24.4,24.4,0,0,0-12.06,6.33,31.81,31.81,0,0,1,3.42,9.25A17.79,17.79,0,0,1,880.2,229"/><path d="M903.52,154.28a15.35,15.35,0,0,0,8.81,3.4,62.14,62.14,0,0,1,.77-10.81H898.16c0,2.53,0,5.06,0,7.59l5.19,0"/><path d="M822.87,349.73a65.65,65.65,0,0,1,5.78-12.65c-1.83-1.27-4.12-1.62-6.31-2-7-1.22-13.39-3.86-20.16-5.51-.94,8.12,2.5,4.86,7.65,8S817.4,346.88,822.87,349.73Z"/><path d="M809,372a30.72,30.72,0,0,1,10.91,1.86c-.09-3.57-.17-7.14-.26-10.71a68,68,0,0,1-17.74,3.5q3,3.38,5.64,7a2.93,2.93,0,0,1,2.16-1.49"/><path d="M836.77,380.28a49.65,49.65,0,0,0,12.42,4.86c0-1.38,0-2.77,0-4.15a79.56,79.56,0,0,0-11.84-2.28l1.41,3.4"/><path d="M1081.47,305.64a49.3,49.3,0,0,0,12.42,4.87c0-1.39,0-2.77,0-4.16a82.34,82.34,0,0,0-11.85-2.28l1.42,3.41"/><path d="M937.67,54.05a49.43,49.43,0,0,0,12.41,4.86c0-1.38,0-2.77,0-4.15a79.56,79.56,0,0,0-11.84-2.28l1.41,3.4"/><path d="M842.42,411.17l4.56,8.19c.08.14.18.3.34.32a.51.51,0,0,0,.33-.11l5.7-3.44a14.39,14.39,0,0,0-4.53-7.39c-2-1.73-5.05-2.87-7.23-1.37a3,3,0,0,0-1.35,2.24,2.08,2.08,0,0,0,1.42,2.08"/><path d="M851,463.9a18.59,18.59,0,0,0,7.19.73,64.85,64.85,0,0,1-.71-7l-10.37,2.44.42.87a5.76,5.76,0,0,0,1.39,2,1.87,1.87,0,0,0,2.26.15"/><path d="M919.84,448q2.07-6.25,4.15-12.51l-10.7,2.43-1.63,12.45,5.26,1.39a1.12,1.12,0,0,0,1.68-.84c.47-1.34.95-2.67,1.42-4"/><path d="M884.41,349.49a2.43,2.43,0,0,0,1,1,2.39,2.39,0,0,0,2.05-.5l3.82-2.32a1.09,1.09,0,0,0,.52-.52c.13-.35-.12-.71-.35-1A101.75,101.75,0,0,1,881,330a.81.81,0,0,0-1.37-.37c-3.73,2.16-10.39,5.8-5.7,9.43C878,342.22,881.39,345,884.41,349.49Z"/><path d="M937.18,299.37a1.45,1.45,0,0,0,1.22-1.86c-.17-2.12-.33-4.24-.5-6.36-1,.51-1.92,1.18-2.9,1.73-5.26,3-11.87,2.28-17.39,4.7a1.14,1.14,0,0,0-.49.31c-.43.5,0,1.23.44,1.76a7.22,7.22,0,0,1,1.42,4.69C924.9,301.53,931.12,301.46,937.18,299.37Z"/><path d="M165.72,178.45a132.51,132.51,0,0,0-13.37-30.16,289.07,289.07,0,0,1-30.89,32.38l27.87,13.39a3.42,3.42,0,0,0,2.2.49c1-.26,1.56-1.39,1.94-2.39l6.25-16.42C161.88,176.36,163.56,177.83,165.72,178.45Z"/><path d="M127.26,295c-1.21,4.36-2.18,8.94-1.32,13.38.76,3.95,2.92,7.48,5.08,10.87q4.51,7.07,9.31,13.95a3.67,3.67,0,0,0,2.08,1.77,3.72,3.72,0,0,0,2.76-1l26.11-19.1a3.12,3.12,0,0,0,1.11-5.06c-1.9-3.27-9.19-12-8.82-15.88.53-5.6,6.8-5.28,8.38-10.29,3.2-10.18-2.44-16.58-10.68-23.14-11.48-9.16-13.16-8.51-21.25,4.72A118.56,118.56,0,0,0,127.26,295Z"/><path d="M140.83,401.64a4.3,4.3,0,0,0-6.05,2.07q-12.44,16.82-24.55,33.88l88.84,2.35c-.59-15.31-2.94-18.73-17-23.87Q161.54,408.59,140.83,401.64Z"/><path d="M195.92,366.25q3.62-13.65,6.44-27.51l-24.92-3.21a142.35,142.35,0,0,0-3.3,35.41,6.14,6.14,0,0,0,.71,3.17,6.2,6.2,0,0,0,2.33,1.8l15.36,8.29a16,16,0,0,1,7.5-12.83,8.83,8.83,0,0,0-3.48-4.76"/><path d="M166.58,109.86a6.52,6.52,0,0,1-.32-2.86,6.72,6.72,0,0,1,1.67-2.92l9.51-11.51c.39,20.36,4.72,37.05,9.19,56.42C173.84,145.49,169.45,120.64,166.58,109.86Z"/><path d="M.18,467.94a117.65,117.65,0,0,0,4.59,39.58,4.14,4.14,0,0,0,1.54,2.56,4.09,4.09,0,0,0,2.5.28c6.64-.74,13.05-2.77,19.53-4.41,18.09-4.57,36.8-6,55.41-7.48-1,.11-2.45-11.2-2.52-11.86C53.56,485.9,27,475.64.18,467.94Z"/><path d="M130.88,218.31c-3.47-1.66-7.08-3.14-10.09-5.53s-5.41-5.91-5.39-9.75a116.24,116.24,0,0,1,15.67,3.48c3.42,1,6.9,2.25,9.56,4.64,6.9,6.22,6.74,18.78,15.11,22.83C147,229.77,139.74,222.57,130.88,218.31Z"/><path d="M81.77,194.23a352.31,352.31,0,0,1-40.31,26.84l15.19,22.55a4.26,4.26,0,0,0,1.85,1.79,4.16,4.16,0,0,0,2.29-.07l25.34-5.49a27.61,27.61,0,0,1,1-10.23,4,4,0,0,1,1.93-2.75,4.12,4.12,0,0,1,2.61.13,83.65,83.65,0,0,1,30,15.56c5.7,4.64,8.38-3.87,8-8.73-.51-6.31-4.58-9.28-9.15-13.57C116.64,216.64,86.7,190.43,81.77,194.23Z"/><path d="M616.85,593.39c-1.23-1-2.89-2.11-4.31-1.37a3.91,3.91,0,0,0-1.53,1.84,36.41,36.41,0,0,0-3.26,9c-.17.78-.32,1.57-.44,2.36a4.49,4.49,0,0,0,.44,3.37c.75,1,2.11,1.23,3.34,1.43,5.75.9,14.23,6.6,16.45-.08C629.44,604.23,620.36,596.34,616.85,593.39Z"/><path d="M68.52,320.74l-18-22.34L35.68,312.48Q53.55,320,71.9,326.18l4.19-13.7a21.2,21.2,0,0,1-7.42-3.62l.06,8.93"/><path d="M60.42,365.8a81.77,81.77,0,0,0,3.07,21.27,2.09,2.09,0,0,0,.92,1.45,2.14,2.14,0,0,0,1.41-.07A200.06,200.06,0,0,0,110.94,369c15-8.83-6-9.39-12.61-9C94.89,360.15,60.39,363.33,60.42,365.8Z"/><path d="M18.22,162.86c.12-1.18.36-2.54,1.39-3.13,1.19-.68,2.78.15,3.4,1.37a7.59,7.59,0,0,1,.42,4q-1.75,23-5.57,45.73c.67-4-1.06-13.7-1-18.71C17,182.34,17.2,172.63,18.22,162.86Z"/><path d="M91.76,557.1a27,27,0,0,0,16.51,2.2c.77-.14,6.23-50.55,6.29-55.09C101.07,503.86,93.36,547,91.76,557.1Z"/><path d="M193.22,234.16a2.73,2.73,0,0,0-.3,4.12A130.9,130.9,0,0,0,223,268.63c6-12.24,23.38-32.27,9.59-41.77-3.47-2.39-15-10.47-18.16-11.32C206.58,213.46,198.58,227.48,193.22,234.16Z"/><path d="M228.52,196.7q-6.79-15.25-13.58-30.51l-11,11.58a274.26,274.26,0,0,1,24.44,20.43q-1.15-2.22-2.3-4.44"/><path d="M194,523c-1.05,1.14-2.14,2.44-2.17,4a6.23,6.23,0,0,0,.83,2.79A102.13,102.13,0,0,0,211.73,557a414.29,414.29,0,0,0,26.2-37.57,3,3,0,0,0,.63-1.83,3,3,0,0,0-1.32-1.76l-15.67-12.51a8,8,0,0,0,4.85-6.72C216.47,495.34,200.27,516.09,194,523Z"/><path d="M184.06,465.54a4.26,4.26,0,0,0-2.3.36,4.41,4.41,0,0,0-1.64,2.69L174,488.06a224.37,224.37,0,0,1,33.43,3.08c2.23-8.75,5-12.21-1.64-18.4C200.61,467.89,190.9,465.83,184.06,465.54Z"/><path d="M231.38,449.66l-23-7.73,13.68,35.49q7-10.86,14.09-21.72c.43-.66.87-1.5.51-2.2a2.26,2.26,0,0,0-1.35-.9,38.42,38.42,0,0,0-7.41-1.76"/><path d="M207.29,292.64l-11.54,15.48,18.17,7.42a124.29,124.29,0,0,1,4.63-18.82l-7.17-3.33"/><path d="M212.09,396.28a67.85,67.85,0,0,0-8.08,2.6c-.7.27-1.52.7-1.6,1.45a2.16,2.16,0,0,0,.52,1.39q5,7.42,10.09,14.86a102,102,0,0,0,7.82-16.42,4.32,4.32,0,0,0,.39-2c-.37-2.89-5.44-2.61-6.48-5.34a1.7,1.7,0,0,0-1.56,1.75"/><path d="M226.07,147.42a55.34,55.34,0,0,1-19.34-13.77c-2.82-3.11-6-6.88-10.22-6.44a12.18,12.18,0,0,1-3.67,5.88,182.91,182.91,0,0,0,33.69,23.63,12.32,12.32,0,0,0,1.85-5.6c0-2-1.34-4.11-3.31-4.31"/><path d="M161.91,572.87a7.71,7.71,0,0,0-3.63,2.6,7.8,7.8,0,0,0-.74,4.15l.12,14.74c7.61-3.8,38-17,36.32-25.48C191.17,554.23,168.26,570,161.91,572.87Z"/><path d="M229.48,568.33a64.4,64.4,0,0,1-17.77,11.3c-2.53,1.08-5.21,2-7.14,4s-2.8,5.29-1.12,7.47l16.7-7.62c3.23-1.47,6.58-3,8.84-5.77s3.08-7,.88-9.81a2.06,2.06,0,0,0-2.82.72"/><path d="M196.34,498.35a21.47,21.47,0,0,0-7.49,1.16c-2.35,1-4.44,3-4.74,5.51-.41,3.42,2.46,6.75,1.58,10.08A91.15,91.15,0,0,1,201.62,505a9.39,9.39,0,0,0-4.25-5"/><path d="M152.28,513.11a57.38,57.38,0,0,0-1.4,13.76l20.4,0s-7.12-5.77-7.63-6.12Z"/><path d="M190.57,272.34a1.39,1.39,0,0,0,.11.9,1.31,1.31,0,0,0,.69.45c4.52,1.66,9.49,1.42,14.21,2.36,2.5.49,4.92,1.32,7.4,1.91a77.8,77.8,0,0,0,9.38,1.44,17.87,17.87,0,0,1,2.33-6c-.48.76-16.6-4.26-18.49-4.79-4.95-1.38-9.54-4.12-14.44-5.38A75.63,75.63,0,0,0,190.57,272.34Z"/><path d="M184.6,219c-2.95-5-4.11-13.16-7.74-17.2-1.8,2.12-1.7,6.37-2.12,9.06-.85,5.53-2.55,10.56-3.91,15.93C172.15,226.5,185.31,220.2,184.6,219Z"/><path d="M204.58,194.85q.24,5.27.46,10.51a30.94,30.94,0,0,0,13.66-1.6.71.71,0,0,0,.39-.23.8.8,0,0,0,0-.63c-.86-4.13-.45-4.85-4.12-5.62C213.66,197,204.66,196.5,204.58,194.85Z"/><path d="M103.77,118.83c-.76-1.07-1.71-2.25-3-2.29a4.28,4.28,0,0,0-2.22.8l-4.75,2.77c6,8,13.28,17.29,21.61,23,4.35-4.42,1.67-5.68-1.4-9.54C110.3,128.9,107.2,123.67,103.77,118.83Z"/><path d="M76.93,182.1c0,.22-.06.51.14.61a.59.59,0,0,0,.35,0L94.48,179a1.18,1.18,0,0,0,.85-.46,1.16,1.16,0,0,0-.11-1A37.52,37.52,0,0,1,92.58,170c-.77-3.82-.42-7.8-1.13-11.63-.6-3.24-9.19,1.07-10.23,3.23C78.5,167.24,78.12,175.89,76.93,182.1Z"/><path d="M81.44,271.94a37.32,37.32,0,0,1-2,14.71,112.45,112.45,0,0,0,20.1.15c-1.15-4-1.33-9.86-5.39-11.05-1.72-.51-3.47-.14-5.38-.84C86.29,274,84,272.74,81.44,271.94Z"/><path d="M64.53,437.47a1.22,1.22,0,0,0-.69-.38,1.29,1.29,0,0,0-.77.34L54,444.35l22.24,14.31a42.08,42.08,0,0,1,3.85-7.75C75.05,446.37,69.71,441.94,64.53,437.47Z"/><path d="M153,470.72a13.42,13.42,0,0,1-6.22,4.72q.77,3.33,1.51,6.68a1.72,1.72,0,0,0,.45,1,1.69,1.69,0,0,0,1.48.17,24.39,24.39,0,0,0,12.06-6.32,31.92,31.92,0,0,1-3.42-9.25,17.68,17.68,0,0,1-5.67,3.39"/><path d="M129.85,545.84a15.27,15.27,0,0,0-8.8-3.4,61.07,61.07,0,0,1-.78,10.8h14.94q0-3.79,0-7.59l-5.2,0"/><path d="M210.5,350.39A66.22,66.22,0,0,1,204.73,363c1.82,1.27,4.11,1.61,6.3,2,7,1.21,13.39,3.86,20.16,5.51.94-8.12-2.5-4.86-7.64-8S216,353.23,210.5,350.39Z"/><path d="M224.4,328.13a30.76,30.76,0,0,1-10.91-1.86q.13,5.36.26,10.71a68.07,68.07,0,0,1,17.74-3.5q-3-3.37-5.64-7a2.89,2.89,0,0,1-2.16,1.48"/><path d="M196.6,319.84A48.9,48.9,0,0,0,184.18,315c0,1.38,0,2.76,0,4.15A81,81,0,0,0,196,321.41l-1.42-3.4"/><path d="M191,289l-4.56-8.2c-.08-.14-.18-.29-.34-.31a.47.47,0,0,0-.33.11L180,284a14.45,14.45,0,0,0,4.53,7.39c2,1.73,5,2.87,7.23,1.37a3,3,0,0,0,1.35-2.24,2.07,2.07,0,0,0-1.41-2.08"/><path d="M182.39,236.21a19,19,0,0,0-7.19-.73,68,68,0,0,1,.72,7L186.28,240l-.42-.86a5.51,5.51,0,0,0-1.39-2,1.89,1.89,0,0,0-2.26-.16"/><path d="M113.53,252.15q-2.07,6.25-4.15,12.5l10.7-2.42,1.63-12.46-5.26-1.39a1.13,1.13,0,0,0-1.68.85l-1.42,4"/><path d="M149,350.63a2.46,2.46,0,0,0-1-1,2.43,2.43,0,0,0-2,.51l-3.81,2.32a1.07,1.07,0,0,0-.53.52,1.13,1.13,0,0,0,.35,1,101.75,101.75,0,0,1,10.45,16.15.81.81,0,0,0,1.37.37c3.73-2.16,10.39-5.8,5.7-9.44C155.36,357.9,152,355.14,149,350.63Z"/><path d="M96.19,400.75a2,2,0,0,0-1.06.67,1.92,1.92,0,0,0-.16,1.19q.25,3.18.5,6.36c1-.51,1.92-1.18,2.9-1.73,5.26-3,11.87-2.29,17.4-4.7a1.28,1.28,0,0,0,.48-.31c.43-.5,0-1.23-.44-1.76a7.24,7.24,0,0,1-1.42-4.69C108.47,398.59,102.25,398.65,96.19,400.75Z"/><path d="M207.17,412.77c1.1-2.35,2.21-4.7,3.31-7a1.57,1.57,0,0,0-.75-2.52l-27.08-15.6c.76,7.08,1.93,9.65,7.34,14.33C191.46,403.22,206.65,413.88,207.17,412.77Z"/><path d="M186.41,455.76c.22-.55-1,0-.56.38s1.11,0,1.58-.3a20.91,20.91,0,0,1,14.94-3.69,5.88,5.88,0,0,0-4.62-7.68c-4.29-.45-8,4-12.25,3.55a29.8,29.8,0,0,0,.25,8.38"/><path d="M168.73,187.53q2.4-3.32,4.63-6.74,1.86-2.86,3.61-5.81c4.76,2.74,21.07,8.16,16.4,14.44C190.38,193.46,168.73,188.74,168.73,187.53Z"/><path d="M176,161a7.09,7.09,0,0,0,7.87,2.39,53.37,53.37,0,0,1,3.51-14.3,100.59,100.59,0,0,0-19.85.65,11.06,11.06,0,0,0,8.75,12.15"/><path d="M124.94,131.91a22.77,22.77,0,0,0,12.86,10.34q.81-3.78,1.6-7.56a4.09,4.09,0,0,0,0-2.72,4.16,4.16,0,0,0-2.42-1.7l-9.65-3.69a18.52,18.52,0,0,0,.64,8.43"/><path d="M113.18,345.29a15.31,15.31,0,0,1,7.38-5.47c2-.67,4.38-1.23,5-3.2.54-1.68-.6-3.41-1.68-4.81-2.26-2.94-5.65-6.23-9.1-4.87a8.62,8.62,0,0,0-3,2.33L107,334.43a10.71,10.71,0,0,0-1.51,1.85,5.62,5.62,0,0,0,8.52,7.13"/><path d="M118.8,478.2a24,24,0,0,0,14-8.1,4.6,4.6,0,0,0,1.39-3.13c-.16-2.09-2.62-3.05-4.65-3.55a28.48,28.48,0,0,0-8.23-1.17,9.61,9.61,0,0,0-7.29,3.48c-1.18,1.58-1.66,3.6-2.84,5.18-.74,1-1.76,1.84-1.92,3-.32,2.56,3.14,3.64,5.72,3.75"/><path d="M49.34,565.27,35.12,582l-4.76-7.42L41.1,563.33a4.05,4.05,0,0,1,2.55-1.57c1.45-.06,2.46,1.36,3.34,2.52s2.41,2.3,3.65,1.54"/><path d="M1102.74,183.79l-14.22,16.7-4.75-7.42q5.37-5.61,10.73-11.21a4.05,4.05,0,0,1,2.55-1.58c1.45-.06,2.46,1.36,3.34,2.52s2.41,2.3,3.66,1.55"/><path d="M87.6,611.08A10.17,10.17,0,0,1,91.43,602a36.82,36.82,0,0,0-11.49,1.4,84.64,84.64,0,0,1,5.13,12l2.83-6.49"/><path d="M741.32,68.13a10.16,10.16,0,0,1,3.83-9.06,36.53,36.53,0,0,0-11.49,1.4,85,85,0,0,1,5.13,11.94q1.43-3.24,2.83-6.48"/><path d="M17.78,352.53a29.5,29.5,0,0,0,14.81,6.22q-1.41-7.87-2.83-15.76l-2.9.87c-2.23.67-4.56,1.39-6.21,3s-2.32,4.53-.82,6.31c-.1-.55-.2-1.09-.31-1.64"/><path d="M39,405l-.09-13.08-4.67,0a54.48,54.48,0,0,1,1.24,16.5l2.61,0a3,3,0,0,0,.28-3.42"/><path d="M25.15,264.17l4-8.86c-1.59-.83-3.33-1.68-5.1-1.4-3.8.6-4.87,5.5-5.05,9.34l6.67.81c-.43-1.13-.87-2.26-1.31-3.4"/><path d="M56.87,151.1l-7.74-12.54a51.09,51.09,0,0,0-6.85,4.35,2.72,2.72,0,0,0-1,1.09,2.76,2.76,0,0,0,.48,2.19c1.4,2.6,2.87,5.28,5.22,7.07,3.51,2.67,9.41,2.39,11.58-1.44l-1.52-.9"/><path d="M700.62,609.53,692.88,597a51.56,51.56,0,0,0-6.86,4.35,2.59,2.59,0,0,0-1,1.1,2.75,2.75,0,0,0,.47,2.19c1.4,2.6,2.88,5.28,5.23,7.07,3.5,2.67,9.4,2.38,11.58-1.45l-1.53-.89"/><path d="M929.93,158.28A177.68,177.68,0,0,0,904,94.05c-25.08,11.81-47.54,28.43-69.82,44.94-3.93,2.91-8.19,6.37-8.79,11.23-.3,2.47.42,4.93,1.13,7.31l12.6,42.15C839.21,199.94,925.22,161,929.93,158.28Z"/><path d="M147.46,535.92c1.18,1.5,2.59,3.11,4.5,3.28a7.2,7.2,0,0,0,4.14-1.39c17.73-10.41,36.14-21.47,47.07-38.88a9.14,9.14,0,0,0,1.53-3.59,9.72,9.72,0,0,0-.58-3.91l-8.43-28.66a253.11,253.11,0,0,0-34.18,15.06c-9.32,5-30.49,10.6-33.09,22.19C125.77,511.86,140.83,527.49,147.46,535.92Z"/><path d="M190.05,230.75a3.17,3.17,0,0,0,1.27.72c1.21.27,2.29-.89,2.67-2.07a28.55,28.55,0,0,1,.9-3.59c1.26-2.64,5.15-3.47,5.87-6.3.52-2-.87-4-2.21-5.58a170.67,170.67,0,0,0-24.75-24.14,6.38,6.38,0,0,0-2.75-1.51c-1.57-.27-3.08.63-4.42,1.5l-8.24,5.32C150.27,200.34,185.91,227.47,190.05,230.75Z"/><path d="M791.3,615.78a5.84,5.84,0,0,0,3.83.66A6.25,6.25,0,0,0,798,614.2l19.32-22.51a200.28,200.28,0,0,0-49.4-31.07,3.91,3.91,0,0,0-2-.48,4,4,0,0,0-2.21,1.48c-5.67,6.1-13,12.15-17.69,19-5.2,7.62-.61,8.86,6.31,11.49C766.92,597.66,777.17,609.55,791.3,615.78Z"/><path d="M743.52,603.63l11.66,15.66,10.15-5.85L752.56,599c-.77-.87-1.7-1.82-2.86-1.81a3.82,3.82,0,0,0-2.22,1,25.32,25.32,0,0,0-5.18,5.36"/><path d="M804.94,660.37a1.81,1.81,0,0,0-1.36-2.86l-36.19-12.82a1.61,1.61,0,0,0-1.58,0,1.58,1.58,0,0,0-.43.95c-.78,4-5,14.68-3.71,18.4s8.4,5.33,12.49,6.35c9,2.22,14.93,4.94,23.26,9.11C800.67,673.77,802.63,666.62,804.94,660.37Z"/><path d="M816.42,640a39.34,39.34,0,0,0,9.89-11.7L802,637.12l9.12,4.5a2.28,2.28,0,0,0,1.09.31,2.19,2.19,0,0,0,1.14-.58l4.42-3.49"/><path d="M90.61,74.08a39.23,39.23,0,0,0,9.9-11.7L76.15,71.2l9.13,4.49a2.26,2.26,0,0,0,1.09.32,2.19,2.19,0,0,0,1.14-.58l4.41-3.5"/><path d="M143.21,401a4.32,4.32,0,0,0-6.05,2.06q-12.43,16.71-24.55,33.67l88.84,2.34c-.59-15.22-2.94-18.62-17-23.73Q163.91,407.94,143.21,401Z"/><path d="M2.55,466.94a116.48,116.48,0,0,0,4.6,39.33,4.09,4.09,0,0,0,1.54,2.55,4.09,4.09,0,0,0,2.5.28c6.64-.74,13.05-2.76,19.53-4.38,18.09-4.54,36.8-6,55.41-7.44-1,.11-2.45-11.13-2.52-11.79C55.93,484.79,29.36,474.59,2.55,466.94Z"/><path d="M133.25,218.83c-3.46-1.65-7.07-3.13-10.08-5.5s-5.41-5.87-5.39-9.69a116.55,116.55,0,0,1,15.67,3.47c3.42,1,6.9,2.23,9.55,4.6,6.91,6.19,6.75,18.67,15.12,22.69C149.41,230.22,142.12,223.06,133.25,218.83Z"/><path d="M84.15,194.9a350.2,350.2,0,0,1-40.32,26.67Q51.44,232.77,59,244a4.16,4.16,0,0,0,1.85,1.77,4.25,4.25,0,0,0,2.29-.06l25.34-5.47a27.08,27.08,0,0,1,1-10.16,4,4,0,0,1,1.92-2.73,4.15,4.15,0,0,1,2.62.13,83.82,83.82,0,0,1,30,15.46c5.7,4.61,8.38-3.84,8-8.68-.51-6.27-4.59-9.21-9.15-13.48C119,217.17,89.08,191.12,84.15,194.9Z"/><path d="M70.9,320.63l-18-22.2-14.84,14Q55.91,319.88,74.28,326q2.1-6.81,4.19-13.62a21.15,21.15,0,0,1-7.42-3.6l.06,8.88"/><path d="M62.79,365.42a80.87,80.87,0,0,0,3.08,21.14,2,2,0,0,0,.92,1.44,2.14,2.14,0,0,0,1.41-.07,200.58,200.58,0,0,0,45.12-19.37c15-8.77-6-9.33-12.61-8.95C97.27,359.81,62.76,363,62.79,365.42Z"/><path d="M20.6,163.72c.12-1.18.36-2.53,1.39-3.11,1.19-.68,2.78.15,3.39,1.36a7.41,7.41,0,0,1,.43,4q-1.75,22.83-5.57,45.44c.67-4-1.06-13.61-1-18.59C19.42,183.08,19.58,173.43,20.6,163.72Z"/><path d="M94.14,555.56a27.21,27.21,0,0,0,16.51,2.18c.77-.14,6.23-50.24,6.29-54.76C103.45,502.64,95.74,545.5,94.14,555.56Z"/><path d="M106.15,120c-.76-1.07-1.71-2.24-3-2.28a4.39,4.39,0,0,0-2.23.79l-4.74,2.76c6,8,13.28,17.18,21.61,22.83,4.34-4.4,1.67-5.64-1.4-9.49C112.68,130,109.58,124.77,106.15,120Z"/><path d="M79.31,182.84c0,.22-.06.51.14.61a.5.5,0,0,0,.34,0l17.07-3.66a1.18,1.18,0,0,0,.85-.46,1.17,1.17,0,0,0-.11-1A38,38,0,0,1,95,170.77c-.76-3.8-.41-7.75-1.12-11.57-.6-3.22-9.19,1.07-10.23,3.22C80.88,168.07,80.49,176.67,79.31,182.84Z"/><path d="M83.82,272.14a36.83,36.83,0,0,1-2,14.61,113.39,113.39,0,0,0,20.1.15c-1.16-4-1.33-9.8-5.39-11-1.72-.51-3.47-.14-5.38-.84C88.67,274.18,86.36,272.93,83.82,272.14Z"/><path d="M66.91,436.65a1.21,1.21,0,0,0-.69-.37,1.18,1.18,0,0,0-.77.34l-9.09,6.87L78.6,457.71a41.65,41.65,0,0,1,3.85-7.7C77.43,445.5,72.09,441.09,66.91,436.65Z"/><path d="M132.23,544.36a15.39,15.39,0,0,0-8.8-3.38,62.33,62.33,0,0,1-.78,10.74h14.94c0-2.52,0-5,0-7.55l-5.19,0"/><path d="M115.91,252.46q-2.07,6.22-4.15,12.43l10.7-2.41,1.63-12.38-5.26-1.38a1.13,1.13,0,0,0-1.68.84c-.47,1.33-1,2.65-1.42,4"/><path d="M98.57,400.16A1.44,1.44,0,0,0,97.35,402c.17,2.1.34,4.21.5,6.31,1-.5,1.92-1.17,2.9-1.72,5.26-2.94,11.87-2.26,17.4-4.66a1.42,1.42,0,0,0,.48-.31c.43-.5,0-1.23-.44-1.75a7.19,7.19,0,0,1-1.42-4.67C110.85,398,104.63,398.07,98.57,400.16Z"/><path d="M115.56,345a15.32,15.32,0,0,1,7.38-5.44c2-.66,4.38-1.23,5-3.18.54-1.68-.6-3.39-1.68-4.78-2.26-2.93-5.65-6.2-9.11-4.84a8.65,8.65,0,0,0-2.94,2.31l-4.87,5.13a11,11,0,0,0-1.51,1.84,5.76,5.76,0,0,0,1.2,7.17,5.84,5.84,0,0,0,7.32-.08"/><path d="M121.18,477.13a24,24,0,0,0,14-8A4.49,4.49,0,0,0,136.6,466c-.16-2.07-2.61-3-4.64-3.53a28.47,28.47,0,0,0-8.23-1.16,9.63,9.63,0,0,0-7.29,3.46c-1.18,1.57-1.66,3.58-2.84,5.15-.74,1-1.76,1.83-1.92,3-.32,2.54,3.14,3.61,5.72,3.73"/><path d="M51.72,563.68,37.5,580.27l-4.76-7.38,10.74-11.14A4.1,4.1,0,0,1,46,560.18c1.45,0,2.46,1.35,3.34,2.51S51.78,565,53,564.22"/><path d="M90,609.21a10.09,10.09,0,0,1,3.82-9,37.09,37.09,0,0,0-11.48,1.39,84.18,84.18,0,0,1,5.13,11.87c.94-2.14,1.89-4.29,2.83-6.44"/><path d="M20.16,352.23A29.5,29.5,0,0,0,35,358.41q-1.41-7.83-2.83-15.66l-2.9.86c-2.23.67-4.56,1.39-6.21,3s-2.32,4.49-.82,6.27c-.1-.54-.2-1.09-.31-1.63"/><path d="M41.36,404.38l-.09-13-4.67,0a53.83,53.83,0,0,1,1.24,16.4l2.61,0a3,3,0,0,0,.28-3.4"/><path d="M27.53,264.41l4-8.8c-1.59-.83-3.33-1.68-5.1-1.4-3.8.6-4.87,5.47-5.06,9.29l6.68.8c-.44-1.12-.87-2.25-1.31-3.37"/><path d="M59.25,152l-7.74-12.47a51.32,51.32,0,0,0-6.85,4.33,2.66,2.66,0,0,0-1,1.09,2.75,2.75,0,0,0,.47,2.17c1.41,2.59,2.88,5.25,5.23,7,3.51,2.65,9.4,2.37,11.58-1.44l-1.52-.89"/><path d="M93,75.48a39.23,39.23,0,0,0,9.9-11.63L78.53,72.62l9.13,4.46a2.23,2.23,0,0,0,1.09.32,2.19,2.19,0,0,0,1.14-.58l4.41-3.47"/><path d="M361.1,613.57a39.63,39.63,0,0,0,9.9-11.7l-24.36,8.81,9.13,4.5a2.12,2.12,0,0,0,1.09.31,2.19,2.19,0,0,0,1.14-.58l4.41-3.49"/><path d="M853.82,675.63q.4-5.89.28-11.81a1.52,1.52,0,0,0-.22-.92c-.44-.56-1.33-.27-2,.07l-6,3.29a2.91,2.91,0,0,0-1.37,1.19,2.44,2.44,0,0,0-.11,1.34,8.46,8.46,0,0,0,9,7"/><path d="M397.7,94q.41-5.89.28-11.8a1.52,1.52,0,0,0-.22-.92c-.44-.57-1.33-.27-2,.07l-6,3.29a2.86,2.86,0,0,0-1.37,1.19,2.43,2.43,0,0,0-.11,1.34,8.46,8.46,0,0,0,9,7"/><path d="M724.27,596.15a1.76,1.76,0,0,0,1.08.71,1.65,1.65,0,0,0,.91-.32,38.15,38.15,0,0,0,6.21-4.66L714.4,576.46c-4.87,4.18-3.81,4.41.4,9.1Q719.54,590.84,724.27,596.15Z"/><path d="M723.68,640.55A59.32,59.32,0,0,1,740,632.72a16.69,16.69,0,0,1-6.44-3.41,2,2,0,0,0-1.31-.66,1.85,1.85,0,0,0-.93.43L718.83,638l4.91,2.22"/><path d="M803,103.27A123.21,123.21,0,0,0,822.15,85.1l-18.43-6q-6.94,9.84-13.9,19.69a13,13,0,0,0,11,4.39"/><path d="M869.38,82.2a4.39,4.39,0,0,0,1.33-2c.41-2-1.91-3.36-3.82-4.06l-7.36-2.67c-1.08-.4-2.48-.71-3.22.17a2.91,2.91,0,0,0-.5,1.4c-1.93,11.09-6.48,20.53-11.21,30.54C849.8,107,865.07,86.61,869.38,82.2Z"/><path d="M829.61,72.77a19.46,19.46,0,0,0,8.21,3.75,2,2,0,0,0,1.29,0c.67-.31.85-1.16,1-1.88a14.38,14.38,0,0,1,4.07-7.33L836.34,66a143,143,0,0,0-15.55-2c1.52,1.06,2.13,3,2.86,4.68s2,3.51,3.8,3.69c1.17.12,2.83-.18,3.12,1"/><path d="M833.08,98.18a46.07,46.07,0,0,1,5.56-7.33l-8.11.08-.08,6.68a2.2,2.2,0,0,0,.19,1.11,1.44,1.44,0,0,0,1.88.37,3.62,3.62,0,0,0,1.35-1.59"/><path d="M907.22,89.18c.68.45,1.51,1,2.26.62a2.43,2.43,0,0,0,.78-.72l4-5.06c-3.12-1-16.56-7.31-17.74-3.86C894.81,85.09,905,87.66,907.22,89.18Z"/><path d="M781.75,105.52a1.36,1.36,0,0,0,.82,0,1.31,1.31,0,0,0,.61-.9c.3-.91.6-1.82.91-2.73a1.3,1.3,0,0,0,.09-.67c-.15-.6-1-.64-1.6-.56-9,1.08-17.47-4.68-26.52-5.52,1.28.11,3.41,3.22,4.8,3.88,1.55.73,3.7,1,5.35,1.6C771.34,102.46,776.51,104.1,781.75,105.52Z"/><path d="M951.85,114.51q-.4-5.92-.82-11.85a1.08,1.08,0,0,0-.25-.75,1,1,0,0,0-.71-.18,84.5,84.5,0,0,0-22.38,2.68,32,32,0,0,1,1.58,10.81C929.24,116.47,950,114.05,951.85,114.51Z"/><path d="M226.24,105.76c5.46,2,11.06,4,16.86,3.93a21.68,21.68,0,0,1,.61-9.87c-6.83-3.08-13.74-6.18-21.11-7.56-3.76-.71-7.62-1-11.29-2.07-2.36-.72-4.68-1.8-7.15-1.85a12.71,12.71,0,0,1,.08,7.88c-1.25,3.94,4.59,3.29,7.38,4.26C216.51,102.19,221.37,104,226.24,105.76Z"/><path d="M232.54,69.2c-.54,1.15-2.12,1.2-3.4,1.16a34.13,34.13,0,0,0-11.36,1.54,28.86,28.86,0,0,1,8.1,6.26A45.5,45.5,0,0,0,229.4,82a9.64,9.64,0,0,0,4.36,2.27C235.14,80.36,233.18,73.43,232.54,69.2Z"/><path d="M299.24,99.4a9,9,0,0,0-2.66-2.53,7.73,7.73,0,0,0-3.15-.73c-9.3-.59-18.13,3.69-26.46,7.86,1.92-.15,3.58,1.26,4.94,2.63a80.46,80.46,0,0,1,6,6.75,29.25,29.25,0,0,0,5.41,5.85c4.75,3.43,11.17,3.1,17,2.47,4.73-.51,12.81.24,11-6.57C310,109.89,302.61,103.64,299.24,99.4Z"/><path d="M184.17,627a76.16,76.16,0,0,0-11-8.37,38.28,38.28,0,0,1,12.33-10.3,24.38,24.38,0,0,0,5.36-3.22c2.16-2,3.51-4.24,6.7-3.2,3.57,1.17,3.84,4.67,2.82,7.24C197.89,615.52,189.18,622.39,184.17,627Z"/><path d="M220,614.62l-4.4-18.55c-.32-1.36-.52-3.09.64-3.88a3.49,3.49,0,0,1,1.6-.45c6.41-.74,11.92-2.8,9.49,5.18C226.08,600.9,219.05,610.74,220,614.62Z"/><path d="M249.33,623.94a1.46,1.46,0,0,1-.06.88c-.2.39-.68.51-1.11.62a18.67,18.67,0,0,0-8.46,4.62c1.94-7.74,1.34-15.87.72-23.84-.23-3-2.25-8.73,2.18-8.43,2.63.18,2.87,2.31,3.61,4.33C248.58,608.55,248.37,617.14,249.33,623.94Z"/><path d="M170.59,614.74c-.77.8-1.77,1.68-2.84,1.4-1.39-.37-1.58-2.21-1.61-3.65a24.81,24.81,0,0,0-2-9.33c.5,1.3,22.17-10.39,23.74-6.73C189.57,600.45,173,612.21,170.59,614.74Z"/><path d="M933.92,248.54q3-8.81,5.9-17.62A1046.72,1046.72,0,0,1,811,222.6c2.78.36-2.16,20.5,8.82,22.11,3.58.52,8.72-2.74,12.37-3.22,6.26-.82,13,.12,19.26.71C878.87,244.78,906.24,252.29,933.92,248.54Z"/><g class="cls-2"><path class="cls-3" d="M726.83,554.3l-3.56-6.49,35.92-29.93V478.3l49-15.84-1-79.29-51.88-18L739,345.26l69.16-21.14V212.48l-20.87,10.09-54-22.41s12.07-30.6,19.73-54.07L500.82.33,308.47,111.5l3,31.54H288.11l-4.69,16.41-22.31-1.8-7.85-14.38L193.19,178v39.7c12.35,5,22.22,9.11,22.22,9.11l-6.29,15.64,19.28,24.11-13,24.59L193.19,273v94.3l27,14.64-14.13,122-12.86,10.7v18.67L500.7,710.9,737.11,574.33,726.35,554.7Z"/><polygon class="cls-3" points="818.21 321.62 748.98 342.76 765.27 362.63 818.21 371.42 879.25 381.56 827.22 318.87 818.21 321.62"/><path class="cls-3" d="M817.24,478.33l-49,15.84v39.59l-35.46,29.53L743.54,583l-.53.3,3.61,6.58,21.57,39.38s92.4-47.77,92.25-60.19-34.2-93.67-34.2-93.67Z"/><polygon class="cls-3" points="727.18 553.97 726.71 554.36 737.47 574 737.99 573.7 727.18 553.97"/><path class="cls-3" d="M795.66,216.08,816.55,206l47.72-23.05L767.5,115.58c-.12,4.2-2.69,13.38-6.17,24-7.67,23.47-19.75,54.07-19.75,54.07Z"/><polygon class="cls-3" points="184.28 370.38 154 353.96 161.07 537.02 184.28 517.72 197.16 507.02 211.29 385.02 184.28 370.38"/><path class="cls-3" d="M204.85,232.6l6.3-15.64s-9.89-4.11-22.24-9.11c-20.77-8.41-48.54-19.34-48.14-17.5.63,2.92,10.18,41.78,10.18,41.78l38,31,22.24,18.16,13-24.58Z"/><polygon class="cls-3" points="308.39 104.5 305.85 77.49 232.81 98.72 253.35 136.27 261.21 150.65 283.53 152.45 288.22 136.04 311.35 136.04 308.39 104.5"/><path class="cls-3" d="M861.89,521.3a132.07,132.07,0,0,0,13.37,30.16,289.93,289.93,0,0,1,30.89-32.38l-27.87-13.39a3.42,3.42,0,0,0-2.2-.49c-1,.26-1.56,1.39-1.94,2.39L867.89,524C865.73,523.4,864.05,521.92,861.89,521.3Z"/><path class="cls-3" d="M900.34,404.8c1.22-4.36,2.19-8.94,1.33-13.38-.76-3.95-2.92-7.47-5.08-10.87q-4.51-7.07-9.31-13.95a2.8,2.8,0,0,0-4.84-.74L856.33,385a3.12,3.12,0,0,0-1.11,5.06c1.9,3.28,9.19,12,8.82,15.89-.53,5.59-6.8,5.27-8.38,10.28-3.2,10.18,2.44,16.58,10.68,23.15,11.48,9.15,13.16,8.51,21.25-4.73A118,118,0,0,0,900.34,404.8Z"/><path class="cls-3" d="M886.78,298.11a5.71,5.71,0,0,0,3.09.43,5.79,5.79,0,0,0,3-2.5q12.43-16.82,24.55-33.88l-88.84-2.35c.59,15.31,2.94,18.74,17,23.87Q866.07,291.17,886.78,298.11Z"/><path class="cls-3" d="M831.69,333.5q-3.62,13.67-6.44,27.52l24.92,3.2a142.27,142.27,0,0,0,3.3-35.4,4.56,4.56,0,0,0-3-5l-15.36-8.29a16,16,0,0,1-7.5,12.84,8.8,8.8,0,0,0,3.48,4.75"/><path class="cls-3" d="M861,589.89a5,5,0,0,1-1.35,5.78l-9.51,11.51c-.39-20.36-4.72-37-9.19-56.41C853.77,554.27,858.16,579.11,861,589.89Z"/><path class="cls-3" d="M988.57,492.72A117.62,117.62,0,0,0,984,453.15a4.17,4.17,0,0,0-1.54-2.57,4,4,0,0,0-2.5-.27c-6.64.73-13.05,2.77-19.53,4.4-18.09,4.57-36.8,6-55.41,7.48,1-.11,2.45,11.2,2.52,11.87C935.19,474.76,961.77,485,988.57,492.72Z"/><path class="cls-3" d="M896.73,481.44c3.47,1.66,7.08,3.15,10.09,5.54s5.41,5.9,5.39,9.74a116.24,116.24,0,0,1-15.67-3.48c-3.42-1-6.9-2.25-9.56-4.64-6.91-6.22-6.74-18.77-15.11-22.82C880.58,470,887.87,477.18,896.73,481.44Z"/><path class="cls-3" d="M966.1,198.48a350.25,350.25,0,0,1,3.19-48.32l-27.15-1.64a3.13,3.13,0,0,0-3.88,2.24q-5.52,11.73-11,23.46a27.56,27.56,0,0,1,7.48,7,4,4,0,0,1,1,3.2,4.12,4.12,0,0,1-1.69,2,83.67,83.67,0,0,1-30.57,14.34c-7.14,1.71-2,9,2.09,11.65,5.32,3.42,10.15,2,16.34,1C927.11,212.56,966.12,204.7,966.1,198.48Z"/><path class="cls-3" d="M1016,297.9c1.23,1,2.89,2.1,4.32,1.37a4,4,0,0,0,1.53-1.84,37.37,37.37,0,0,0,3.26-9.05c.17-.78.31-1.57.43-2.36a4.47,4.47,0,0,0-.44-3.38c-.75-1-2.11-1.22-3.33-1.42-5.75-.9-14.24-6.6-16.45.08C1003.37,287.06,1012.45,295,1016,297.9Z"/><path class="cls-3" d="M959.09,379l18,22.33,14.84-14.07q-17.86-7.5-36.22-13.71-2.1,6.85-4.19,13.7a21.37,21.37,0,0,1,7.42,3.62l-.06-8.92"/><path class="cls-3" d="M967.19,334a81.89,81.89,0,0,0-3.07-21.27,2,2,0,0,0-.92-1.44,2,2,0,0,0-1.41.07,200,200,0,0,0-45.12,19.48c-15,8.83,6,9.39,12.61,9C932.72,339.6,967.22,336.42,967.19,334Z"/><path class="cls-3" d="M1029.51,471.09,1041,494.35c3.46-.15,6.9-.45,10.33-.92.59-.08,1.3-.27,1.45-.84a1.55,1.55,0,0,0-.34-1.15q-9.69-15.6-19.37-31.22c-.27-.44-.61-.92-1.12-1a1.78,1.78,0,0,0-1.27.52l-3.64,2.78a2,2,0,0,0-.75,3.26l7.24,11.63"/><path class="cls-3" d="M1009.39,536.89c-.12,1.18-.36,2.54-1.39,3.13-1.19.68-2.78-.15-3.4-1.37a7.69,7.69,0,0,1-.43-4q1.77-23,5.58-45.73c-.67,4,1.06,13.7,1,18.71C1010.57,517.41,1010.4,527.12,1009.39,536.89Z"/><path class="cls-3" d="M1081.91,377.25a27,27,0,0,0-4.64-16c-.44-.65-48.77,14.66-53,16.43C1029.43,390.17,1072,379.86,1081.91,377.25Z"/><path class="cls-3" d="M851.45,464.7a3.63,3.63,0,0,0,1.09-2.41c0-.63-1.43-1.68-.79-1.71,18.2-.89,1.24-13.95-30.08-30.35-6,12.24-23.38,32.27-9.59,41.77,3.47,2.39,15,10.47,18.16,11.32C838.09,485.4,846.09,471.38,851.45,464.7Z"/><path class="cls-3" d="M799.09,503.05q6.79,15.26,13.58,30.51l11-11.58a272.57,272.57,0,0,1-24.44-20.43q1.15,2.22,2.3,4.44"/><path class="cls-3" d="M833.65,176.78c1.05-1.14,2.14-2.44,2.17-4A6.19,6.19,0,0,0,835,170a102.18,102.18,0,0,0-19.11-27.26,414.29,414.29,0,0,0-26.2,37.57,3,3,0,0,0-.63,1.83,3,3,0,0,0,1.32,1.77L806,196.42a8,8,0,0,0-4.85,6.72C811.14,204.41,827.34,183.66,833.65,176.78Z"/><path class="cls-3" d="M843.55,234.21a4.08,4.08,0,0,0,2.3-.36,4.41,4.41,0,0,0,1.64-2.68l6.09-19.48a225.7,225.7,0,0,1-33.43-3.07c-2.23,8.74-5,12.2,1.64,18.39C827,231.86,836.71,233.92,843.55,234.21Z"/><path class="cls-3" d="M796.23,250.09l23,7.73-13.68-35.49q-7,10.86-14.09,21.72c-.43.66-.87,1.5-.51,2.21a2.26,2.26,0,0,0,1.35.9,39.15,39.15,0,0,0,7.41,1.75"/><path class="cls-3" d="M820.32,407.11l11.54-15.48-18.17-7.42A124.29,124.29,0,0,1,809.06,403l7.17,3.34"/><path class="cls-3" d="M815.52,303.47a67.07,67.07,0,0,0,8.07-2.59c.71-.28,1.53-.71,1.61-1.46a2.18,2.18,0,0,0-.52-1.39l-10.09-14.85a101.55,101.55,0,0,0-7.82,16.41,4.32,4.32,0,0,0-.39,2c.37,2.9,5.44,2.62,6.48,5.34a1.69,1.69,0,0,0,1.56-1.74"/><path class="cls-3" d="M801.54,552.33a55.34,55.34,0,0,1,19.34,13.77c2.82,3.11,6,6.89,10.22,6.44a12.18,12.18,0,0,1,3.67-5.88A183.39,183.39,0,0,0,801.08,543a12.32,12.32,0,0,0-1.85,5.6c0,2,1.34,4.11,3.31,4.31"/><path class="cls-3" d="M865.7,126.88a7.65,7.65,0,0,0,3.63-2.6,7.8,7.8,0,0,0,.74-4.15L870,105.39c-7.61,3.81-38,17-36.32,25.48C836.44,145.52,859.35,129.73,865.7,126.88Z"/><path class="cls-3" d="M798.13,131.43a64.43,64.43,0,0,1,17.77-11.31c2.53-1.08,5.21-2.05,7.14-4s2.8-5.29,1.12-7.47l-16.7,7.62c-3.23,1.47-6.58,3-8.84,5.77s-3.08,7-.88,9.81a2.06,2.06,0,0,0,2.82-.72"/><path class="cls-3" d="M831.27,201.4a21.47,21.47,0,0,0,7.49-1.16c2.35-1,4.44-3,4.74-5.5.41-3.43-2.46-6.76-1.58-10.09A90.62,90.62,0,0,1,826,194.75a9.37,9.37,0,0,0,4.25,5"/><path class="cls-3" d="M875.33,186.64a57.38,57.38,0,0,0,1.4-13.76h-20.4s7.12,5.77,7.63,6.11Z"/><path class="cls-3" d="M837,427.42a1.34,1.34,0,0,0-.1-.91,1.31,1.31,0,0,0-.69-.45c-4.52-1.66-9.49-1.42-14.21-2.36-2.5-.49-4.92-1.32-7.4-1.91a79.84,79.84,0,0,0-9.38-1.44,17.92,17.92,0,0,1-2.33,6c.48-.77,16.6,4.25,18.49,4.78,5,1.39,9.54,4.13,14.44,5.38A73.74,73.74,0,0,0,837,427.42Z"/><path class="cls-3" d="M843,480.74c3,4.95,4.11,13.15,7.74,17.19,1.8-2.11,1.7-6.37,2.12-9.06.85-5.52,2.55-10.56,3.91-15.93C855.46,473.25,842.3,479.55,843,480.74Z"/><path class="cls-3" d="M823,504.9q-.24-5.25-.46-10.51a31.06,31.06,0,0,0-13.66,1.6.77.77,0,0,0-.39.23.8.8,0,0,0,0,.63c.86,4.13.45,4.86,4.12,5.62C813.94,502.75,823,503.25,823,504.9Z"/><path class="cls-3" d="M923.84,580.92c.76,1.07,1.71,2.25,3,2.29a4.27,4.27,0,0,0,2.22-.79l4.75-2.78c-6-8-13.28-17.29-21.61-23-4.35,4.42-1.67,5.68,1.4,9.55C917.31,570.85,920.41,576.08,923.84,580.92Z"/><path class="cls-3" d="M950.68,517.65c0-.22.06-.51-.14-.61a.53.53,0,0,0-.35,0l-17.06,3.68a1.23,1.23,0,0,0-.86.46,1.19,1.19,0,0,0,.12,1A38.15,38.15,0,0,1,935,529.8c.77,3.82.42,7.8,1.13,11.63.6,3.24,9.19-1.07,10.23-3.23C949.11,532.51,949.49,523.86,950.68,517.65Z"/><path class="cls-3" d="M946.17,427.81a37.34,37.34,0,0,1,2-14.71,114.35,114.35,0,0,0-20.1-.15c1.15,4,1.33,9.86,5.39,11.06,1.72.5,3.47.13,5.38.83C941.32,425.75,943.63,427,946.17,427.81Z"/><path class="cls-3" d="M963.08,262.29a1.27,1.27,0,0,0,.69.37,1.29,1.29,0,0,0,.77-.34l9.09-6.92-22.24-14.31a41.77,41.77,0,0,1-3.85,7.75C952.56,253.38,957.9,257.81,963.08,262.29Z"/><path class="cls-3" d="M874.63,229a13.29,13.29,0,0,1,6.22-4.72q-.76-3.34-1.51-6.68a1.31,1.31,0,0,0-1.93-1.15,24.47,24.47,0,0,0-12.06,6.32,31.92,31.92,0,0,1,3.42,9.25,17.68,17.68,0,0,1,5.67-3.39"/><path class="cls-3" d="M897.76,153.92a15.26,15.26,0,0,0,8.8,3.39,61.07,61.07,0,0,1,.78-10.8H892.4q0,3.8,0,7.59l5.2.06"/><path class="cls-3" d="M817.11,349.37a66,66,0,0,1,5.77-12.66c-1.82-1.26-4.11-1.61-6.3-2-7-1.22-13.39-3.87-20.16-5.52-.94,8.12,2.5,4.86,7.64,8S811.64,346.52,817.11,349.37Z"/><path class="cls-3" d="M803.21,371.62a30.55,30.55,0,0,1,10.91,1.87c-.09-3.57-.18-7.15-.26-10.72a68.07,68.07,0,0,1-17.74,3.5q3,3.38,5.64,7a2.89,2.89,0,0,1,2.16-1.48"/><path class="cls-3" d="M831,379.91a49.3,49.3,0,0,0,12.42,4.87c0-1.39,0-2.77,0-4.16a82.34,82.34,0,0,0-11.85-2.28l1.42,3.41"/><path class="cls-3" d="M1075.71,305.28a49.65,49.65,0,0,0,12.42,4.86c0-1.38,0-2.77,0-4.15a79.69,79.69,0,0,0-11.85-2.28l1.42,3.4"/><path class="cls-3" d="M931.9,53.68a49.3,49.3,0,0,0,12.42,4.87c0-1.39,0-2.77,0-4.16a82.34,82.34,0,0,0-11.85-2.28l1.42,3.41"/><path class="cls-3" d="M836.65,410.8l4.57,8.2c.08.14.18.29.34.32a.59.59,0,0,0,.33-.11l5.7-3.45a14.45,14.45,0,0,0-4.53-7.39c-2-1.73-5-2.86-7.23-1.37a3,3,0,0,0-1.35,2.25,2.06,2.06,0,0,0,1.41,2.07"/><path class="cls-3" d="M845.21,463.54a19,19,0,0,0,7.2.73,68,68,0,0,1-.72-7l-10.36,2.45.42.86a5.34,5.34,0,0,0,1.39,2,1.87,1.87,0,0,0,2.26.16"/><path class="cls-3" d="M914.08,447.6q2.07-6.24,4.15-12.5l-10.7,2.42L905.9,450l5.26,1.39a1.13,1.13,0,0,0,1.68-.85c.47-1.33.94-2.66,1.42-4"/><path class="cls-3" d="M878.65,349.12a2.46,2.46,0,0,0,1,1,2.42,2.42,0,0,0,2.05-.5l3.81-2.33a1.07,1.07,0,0,0,.53-.52,1.13,1.13,0,0,0-.35-1,101.3,101.3,0,0,1-10.45-16.15.81.81,0,0,0-1.37-.37c-3.73,2.16-10.39,5.8-5.7,9.44C872.25,341.85,875.63,344.62,878.65,349.12Z"/><path class="cls-3" d="M931.42,299a2,2,0,0,0,1.06-.67,2,2,0,0,0,.16-1.19q-.25-3.18-.5-6.35c-1,.5-1.92,1.17-2.9,1.73-5.26,3-11.87,2.28-17.4,4.69a1.28,1.28,0,0,0-.48.31c-.43.5,0,1.23.44,1.76a7.26,7.26,0,0,1,1.42,4.69C919.14,301.17,925.36,301.1,931.42,299Z"/><path class="cls-3" d="M160,178.09a132.78,132.78,0,0,0-13.37-30.17A289.07,289.07,0,0,1,115.7,180.3l27.87,13.39a3.3,3.3,0,0,0,2.2.49c1-.26,1.56-1.39,1.94-2.39L154,175.37C156.11,176,157.8,177.47,160,178.09Z"/><path class="cls-3" d="M121.5,294.58c-1.21,4.36-2.18,8.94-1.32,13.38.76,4,2.91,7.48,5.08,10.87q4.52,7.08,9.31,13.95a2.79,2.79,0,0,0,4.83.75l26.12-19.1a3.12,3.12,0,0,0,1.11-5.06c-1.9-3.28-9.19-12-8.82-15.89.52-5.59,6.8-5.27,8.37-10.28,3.2-10.19-2.43-16.59-10.67-23.15-11.49-9.15-13.16-8.51-21.25,4.73A118,118,0,0,0,121.5,294.58Z"/><path class="cls-3" d="M135.07,401.27a4.31,4.31,0,0,0-6,2.08q-12.45,16.81-24.55,33.87l88.84,2.35c-.6-15.3-2.94-18.73-17-23.87Q155.77,408.22,135.07,401.27Z"/><path class="cls-3" d="M190.16,365.89q3.61-13.67,6.44-27.52l-24.92-3.21a141.88,141.88,0,0,0-3.3,35.41,6,6,0,0,0,.71,3.17,6.1,6.1,0,0,0,2.33,1.8l15.36,8.3A16,16,0,0,1,194.27,371a8.84,8.84,0,0,0-3.47-4.76"/><path class="cls-3" d="M160.82,109.5a6.57,6.57,0,0,1-.32-2.87,6.68,6.68,0,0,1,1.67-2.91l9.51-11.52c.38,20.36,4.71,37.05,9.19,56.42C168.08,145.12,163.69,120.27,160.82,109.5Z"/><path class="cls-3" d="M-5.59,467.58A117.62,117.62,0,0,0-1,507.15a4.12,4.12,0,0,0,1.54,2.56,4,4,0,0,0,2.5.28c6.64-.74,13.05-2.77,19.52-4.4,18.1-4.57,36.81-6,55.42-7.49-1,.12-2.45-11.19-2.52-11.86C47.79,485.54,21.22,475.27-5.59,467.58Z"/><path class="cls-3" d="M125.11,218c-3.46-1.66-7.07-3.15-10.08-5.54s-5.41-5.9-5.39-9.74a115.4,115.4,0,0,1,15.67,3.48c3.42,1,6.9,2.24,9.55,4.63,6.91,6.23,6.75,18.78,15.12,22.83C141.27,229.4,134,222.2,125.11,218Z"/><path class="cls-3" d="M76,193.86A350.25,350.25,0,0,1,35.69,220.7l15.2,22.56A4.23,4.23,0,0,0,52.74,245,4.16,4.16,0,0,0,55,245l25.33-5.5a27.58,27.58,0,0,1,1-10.22,4,4,0,0,1,1.92-2.76,4.15,4.15,0,0,1,2.62.14,83.55,83.55,0,0,1,30,15.55c5.7,4.64,8.38-3.86,8-8.73-.52-6.31-4.59-9.27-9.15-13.57C110.88,216.27,80.94,190.07,76,193.86Z"/><path class="cls-3" d="M611.09,593c-1.23-1-2.89-2.1-4.32-1.37a3.94,3.94,0,0,0-1.52,1.84,37,37,0,0,0-3.27,9c-.17.79-.31,1.57-.43,2.36a4.5,4.5,0,0,0,.44,3.38c.75,1,2.11,1.23,3.34,1.42,5.74.91,14.23,6.61,16.45-.08C623.68,603.86,614.6,596,611.09,593Z"/><path class="cls-3" d="M62.76,320.37,44.76,298,29.92,312.11q17.85,7.5,36.22,13.71,2.08-6.85,4.19-13.71a21.15,21.15,0,0,1-7.43-3.62c0,3,.05,5.95.07,8.93"/><path class="cls-3" d="M54.65,365.44a82.32,82.32,0,0,0,3.07,21.27,2.11,2.11,0,0,0,.93,1.44,2,2,0,0,0,1.41-.07,200.48,200.48,0,0,0,45.12-19.48c15-8.83-6-9.4-12.61-9C89.13,359.78,54.62,363,54.65,365.44Z"/><path class="cls-3" d="M12.46,162.5c.12-1.19.36-2.55,1.39-3.14,1.19-.68,2.78.16,3.39,1.38a7.47,7.47,0,0,1,.43,4q-1.76,23-5.57,45.72c.67-4-1.07-13.69-1-18.71C11.28,182,11.44,172.26,12.46,162.5Z"/><path class="cls-3" d="M86,556.74a27.06,27.06,0,0,0,16.51,2.19c.77-.14,6.23-50.54,6.29-55.09C95.31,503.49,87.6,546.62,86,556.74Z"/><path class="cls-3" d="M187.46,233.79a3.6,3.6,0,0,0-1.09,2.42,3.54,3.54,0,0,0,.79,1.7,130.75,130.75,0,0,0,30.08,30.36c6-12.24,23.38-32.27,9.59-41.77-3.47-2.4-15-10.47-18.16-11.32C200.82,213.09,192.82,227.12,187.46,233.79Z"/><path class="cls-3" d="M222.76,196.33q-6.8-15.24-13.58-30.5l-11,11.58a270.9,270.9,0,0,1,24.44,20.43l-2.31-4.45"/><path class="cls-3" d="M188.2,522.61c-1,1.14-2.14,2.44-2.17,4a6.34,6.34,0,0,0,.82,2.78A102,102,0,0,0,206,556.63a412.75,412.75,0,0,0,26.2-37.56,2.88,2.88,0,0,0,.62-1.84,3,3,0,0,0-1.31-1.76L215.81,503a8,8,0,0,0,4.85-6.71C210.71,495,194.51,515.72,188.2,522.61Z"/><path class="cls-3" d="M178.29,465.17a4.19,4.19,0,0,0-2.3.37,4.42,4.42,0,0,0-1.63,2.68q-3.06,9.73-6.1,19.47a224.51,224.51,0,0,1,33.44,3.08c2.23-8.74,5-12.2-1.64-18.39C194.84,467.53,185.14,465.47,178.29,465.17Z"/><path class="cls-3" d="M225.62,449.3l-23-7.73,13.69,35.49q7-10.86,14.09-21.72c.43-.67.87-1.51.5-2.21a2.2,2.2,0,0,0-1.34-.9,40.15,40.15,0,0,0-7.41-1.76"/><path class="cls-3" d="M201.52,292.28,190,307.75l18.17,7.42a124.29,124.29,0,0,1,4.63-18.82L205.62,293"/><path class="cls-3" d="M206.33,395.91a69.72,69.72,0,0,0-8.08,2.6c-.71.28-1.52.7-1.6,1.46a2.18,2.18,0,0,0,.52,1.39l10.09,14.85a101.55,101.55,0,0,0,7.82-16.41,4.21,4.21,0,0,0,.38-2c-.37-2.9-5.43-2.62-6.47-5.35a1.73,1.73,0,0,0-1.57,1.75"/><path class="cls-3" d="M220.3,147.05A55.44,55.44,0,0,1,201,133.29c-2.81-3.11-6-6.89-10.21-6.44a12.18,12.18,0,0,1-3.67,5.88,182.52,182.52,0,0,0,33.69,23.62,12.32,12.32,0,0,0,1.85-5.59c0-2-1.34-4.12-3.31-4.32"/><path class="cls-3" d="M156.15,572.5a5.79,5.79,0,0,0-4.38,6.76q.06,7.37.13,14.74c7.61-3.81,37.95-17,36.32-25.49C185.41,553.87,162.5,569.65,156.15,572.5Z"/><path class="cls-3" d="M223.72,568A64.43,64.43,0,0,1,206,579.27c-2.53,1.07-5.21,2-7.14,4s-2.8,5.29-1.12,7.46l16.69-7.61c3.24-1.48,6.58-3,8.85-5.78s3.08-7,.88-9.81a2.07,2.07,0,0,0-2.82.72"/><path class="cls-3" d="M190.58,498a21.71,21.71,0,0,0-7.49,1.16c-2.35,1-4.44,3-4.74,5.51-.41,3.42,2.46,6.75,1.58,10.09a90.62,90.62,0,0,1,15.93-10.1,9.39,9.39,0,0,0-4.25-5"/><path class="cls-3" d="M146.52,512.74a57.47,57.47,0,0,0-1.41,13.77h20.41s-7.12-5.77-7.64-6.12Z"/><path class="cls-3" d="M184.81,272a1.41,1.41,0,0,0,.11.91,1.37,1.37,0,0,0,.69.45c4.51,1.66,9.49,1.42,14.21,2.35,2.5.5,4.92,1.32,7.4,1.91A79.86,79.86,0,0,0,216.6,279a17.9,17.9,0,0,1,2.32-6c-.47.76-16.6-4.26-18.49-4.79-5-1.38-9.53-4.12-14.44-5.38A78,78,0,0,0,184.81,272Z"/><path class="cls-3" d="M178.84,218.65c-3-5-4.11-13.16-7.74-17.2-1.8,2.12-1.7,6.38-2.12,9.07-.86,5.52-2.55,10.56-3.91,15.93C166.39,226.14,179.55,219.84,178.84,218.65Z"/><path class="cls-3" d="M198.82,194.49c.15,3.5.31,7,.46,10.5a31.08,31.08,0,0,0,13.66-1.59.81.81,0,0,0,.39-.23.77.77,0,0,0,0-.63c-.85-4.13-.44-4.86-4.12-5.62C207.9,196.64,198.89,196.14,198.82,194.49Z"/><path class="cls-3" d="M98,118.47c-.76-1.07-1.71-2.25-3-2.29a4.3,4.3,0,0,0-2.23.79L88,119.74c6,8,13.28,17.29,21.61,23,4.34-4.42,1.67-5.67-1.4-9.54C104.54,128.53,101.44,123.3,98,118.47Z"/><path class="cls-3" d="M71.17,181.74c0,.22-.06.5.14.61a.56.56,0,0,0,.34,0l17.07-3.68a.91.91,0,0,0,.74-1.5,38.09,38.09,0,0,1-2.65-7.58c-.76-3.83-.41-7.8-1.12-11.64-.6-3.24-9.19,1.07-10.23,3.24C72.74,166.87,72.35,175.53,71.17,181.74Z"/><path class="cls-3" d="M75.68,271.58a37.27,37.27,0,0,1-2,14.7,113.39,113.39,0,0,0,20.1.16c-1.16-4-1.33-9.87-5.39-11.06-1.72-.51-3.47-.14-5.38-.84C80.53,273.63,78.22,272.38,75.68,271.58Z"/><path class="cls-3" d="M58.77,437.1a1.24,1.24,0,0,0-.69-.37,1.18,1.18,0,0,0-.77.34L48.22,444l22.24,14.31a42,42,0,0,1,3.85-7.74C69.29,446,64,441.57,58.77,437.1Z"/><path class="cls-3" d="M147.22,470.35a13.35,13.35,0,0,1-6.22,4.72c.5,2.23,1,4.45,1.51,6.68a1.77,1.77,0,0,0,.44,1,1.71,1.71,0,0,0,1.49.18,24.4,24.4,0,0,0,12.06-6.33,31.81,31.81,0,0,1-3.42-9.25,17.61,17.61,0,0,1-5.67,3.39"/><path class="cls-3" d="M124.09,545.47a15.35,15.35,0,0,0-8.81-3.4,62.07,62.07,0,0,1-.77,10.81h14.94c0-2.53,0-5.06,0-7.59l-5.19,0"/><path class="cls-3" d="M204.74,350A65.11,65.11,0,0,1,199,362.67c1.83,1.27,4.12,1.62,6.31,2,6.95,1.22,13.39,3.86,20.16,5.52.94-8.13-2.5-4.87-7.65-8S210.21,352.87,204.74,350Z"/><path class="cls-3" d="M218.64,327.77a30.73,30.73,0,0,1-10.91-1.87c.09,3.57.17,7.14.26,10.71a68,68,0,0,1,17.74-3.5c-2-2.24-3.85-4.57-5.64-7a2.93,2.93,0,0,1-2.16,1.49"/><path class="cls-3" d="M190.83,319.47a49.43,49.43,0,0,0-12.41-4.86c0,1.38,0,2.77,0,4.15A79.56,79.56,0,0,0,190.24,321l-1.41-3.4"/><path class="cls-3" d="M185.19,288.58l-4.56-8.19c-.08-.14-.18-.3-.34-.32a.51.51,0,0,0-.33.11l-5.7,3.45a14.43,14.43,0,0,0,4.53,7.39c2,1.73,5.05,2.86,7.23,1.36a3,3,0,0,0,1.35-2.24,2.09,2.09,0,0,0-1.42-2.08"/><path class="cls-3" d="M176.63,235.85a18.59,18.59,0,0,0-7.19-.73,65,65,0,0,1,.71,7l10.37-2.45c-.14-.29-.28-.58-.43-.87a5.48,5.48,0,0,0-1.38-2,1.86,1.86,0,0,0-2.26-.16"/><path class="cls-3" d="M107.77,251.78q-2.07,6.25-4.16,12.51l10.71-2.43L116,249.41,110.69,248a1.47,1.47,0,0,0-1.13,0,1.51,1.51,0,0,0-.55.85l-1.42,4"/><path class="cls-3" d="M143.2,350.26a1.82,1.82,0,0,0-3.06-.5l-3.82,2.33a1.12,1.12,0,0,0-.52.51c-.13.35.12.71.35,1a101.84,101.84,0,0,1,10.45,16.16,1.1,1.1,0,0,0,.5.56,1,1,0,0,0,.87-.2c3.73-2.15,10.39-5.8,5.7-9.43C149.6,357.54,146.22,354.77,143.2,350.26Z"/><path class="cls-3" d="M90.43,400.39a1.93,1.93,0,0,0-1.06.66,2,2,0,0,0-.16,1.2c.17,2.11.33,4.23.5,6.35,1-.51,1.92-1.18,2.9-1.73,5.26-3,11.87-2.28,17.39-4.69a1.27,1.27,0,0,0,.49-.32c.43-.5,0-1.23-.44-1.75a7.27,7.27,0,0,1-1.42-4.7C102.71,398.22,96.49,398.29,90.43,400.39Z"/><path class="cls-3" d="M201.41,412.4c1.1-2.35,2.2-4.69,3.31-7a1.56,1.56,0,0,0-.75-2.51l-27.09-15.61c.77,7.08,1.93,9.65,7.34,14.34C185.7,402.85,200.89,413.51,201.41,412.4Z"/><path class="cls-3" d="M180.65,455.39c.21-.54-1,0-.56.38s1.1.05,1.58-.29a20.8,20.8,0,0,1,14.94-3.69A5.89,5.89,0,0,0,192,444.1c-4.29-.45-8,4-12.25,3.55A29.87,29.87,0,0,0,180,456"/><path class="cls-3" d="M163,187.16c1.59-2.21,3.14-4.45,4.62-6.74,1.25-1.91,2.45-3.84,3.61-5.81,4.77,2.74,21.08,8.16,16.41,14.45C184.61,193.09,163,188.37,163,187.16Z"/><path class="cls-3" d="M170.24,160.62a7.06,7.06,0,0,0,7.87,2.39,53.46,53.46,0,0,1,3.51-14.3,100.54,100.54,0,0,0-19.85.65,11.05,11.05,0,0,0,8.74,12.16"/><path class="cls-3" d="M119.18,131.54A22.76,22.76,0,0,0,132,141.89c.53-2.53,1.07-5,1.6-7.57a4.15,4.15,0,0,0,0-2.72,4.2,4.2,0,0,0-2.43-1.7l-9.64-3.69a18.57,18.57,0,0,0,.64,8.44"/><path class="cls-3" d="M107.42,344.93a15.31,15.31,0,0,1,7.38-5.47c2-.67,4.38-1.24,5-3.21.54-1.68-.6-3.4-1.68-4.81-2.26-2.94-5.65-6.23-9.11-4.87a8.71,8.71,0,0,0-2.94,2.33l-4.87,5.16a11.1,11.1,0,0,0-1.51,1.85,5.62,5.62,0,0,0,8.52,7.14"/><path class="cls-3" d="M113,477.83a24,24,0,0,0,14-8.09,4.6,4.6,0,0,0,1.39-3.14c-.16-2.08-2.61-3.05-4.64-3.55a28.48,28.48,0,0,0-8.23-1.17,9.68,9.68,0,0,0-7.29,3.48c-1.18,1.59-1.66,3.61-2.85,5.18-.73,1-1.75,1.85-1.91,3-.32,2.56,3.14,3.64,5.71,3.75"/><path class="cls-3" d="M43.58,564.91l-14.22,16.7-4.76-7.43L35.34,563a4.09,4.09,0,0,1,2.54-1.58c1.46,0,2.47,1.36,3.34,2.52s2.42,2.3,3.66,1.55"/><path class="cls-3" d="M1097,183.43l-14.22,16.7L1078,192.7l10.73-11.21a4.05,4.05,0,0,1,2.55-1.57c1.45-.06,2.46,1.35,3.34,2.51s2.41,2.3,3.66,1.55"/><path class="cls-3" d="M81.84,610.72a10.17,10.17,0,0,1,3.82-9.07,36.9,36.9,0,0,0-11.49,1.41A83.91,83.91,0,0,1,79.31,615l2.83-6.48"/><path class="cls-3" d="M735.56,67.76a10.18,10.18,0,0,1,3.82-9.06,36.79,36.79,0,0,0-11.48,1.4A85.14,85.14,0,0,1,733,72.05l2.83-6.49"/><path class="cls-3" d="M12,352.16a29.47,29.47,0,0,0,14.8,6.22L24,342.62l-2.9.87c-2.23.67-4.56,1.4-6.21,3s-2.32,4.53-.82,6.32c-.11-.55-.21-1.1-.31-1.65"/><path class="cls-3" d="M33.22,404.63l-.09-13.07-4.67,0A54.09,54.09,0,0,1,29.69,408h2.62a3,3,0,0,0,.28-3.42"/><path class="cls-3" d="M19.39,263.8l4-8.85c-1.59-.83-3.33-1.69-5.1-1.4-3.8.6-4.87,5.49-5.06,9.34l6.68.81c-.44-1.14-.87-2.27-1.31-3.4"/><path class="cls-3" d="M51.11,150.73l-7.74-12.54a51.46,51.46,0,0,0-6.85,4.35,2.68,2.68,0,0,0-1,1.1,2.79,2.79,0,0,0,.47,2.19c1.41,2.59,2.88,5.27,5.23,7.07,3.51,2.67,9.4,2.38,11.58-1.45l-1.52-.9"/><path class="cls-3" d="M694.86,609.16l-7.74-12.55a51.63,51.63,0,0,0-6.86,4.36,2.63,2.63,0,0,0-1,1.09,2.72,2.72,0,0,0,.47,2.19c1.4,2.6,2.87,5.28,5.22,7.07,3.51,2.67,9.41,2.39,11.58-1.45L695,609"/><path class="cls-3" d="M924.17,157.91a177.56,177.56,0,0,0-25.91-64.22c-25.08,11.81-47.54,28.43-69.82,44.93-3.93,2.92-8.2,6.37-8.79,11.23-.3,2.47.42,4.94,1.13,7.32l12.6,42.15C833.45,199.57,919.46,160.61,924.17,157.91Z"/><path class="cls-3" d="M141.69,535.56c1.19,1.5,2.6,3.11,4.5,3.28a7.29,7.29,0,0,0,4.15-1.4C168.07,527,186.47,516,197.4,498.56a9,9,0,0,0,1.54-3.58,9.63,9.63,0,0,0-.59-3.92q-4.22-14.32-8.42-28.65a250.62,250.62,0,0,0-34.18,15.06c-9.32,5-30.49,10.59-33.09,22.19C120,511.5,135.07,527.13,141.69,535.56Z"/><path class="cls-3" d="M184.29,230.38a3.32,3.32,0,0,0,1.27.73c1.21.26,2.29-.9,2.67-2.07a26.54,26.54,0,0,1,.9-3.59c1.26-2.64,5.15-3.47,5.87-6.3.52-2-.87-4-2.21-5.58A171.24,171.24,0,0,0,168,189.42a6.38,6.38,0,0,0-2.75-1.51c-1.57-.26-3.08.64-4.42,1.5l-8.25,5.33C144.51,200,180.15,227.11,184.29,230.38Z"/><path class="cls-3" d="M785.54,615.41a5.9,5.9,0,0,0,3.83.67,6.26,6.26,0,0,0,2.86-2.25l19.33-22.5a200.32,200.32,0,0,0-49.4-31.08,2.95,2.95,0,0,0-4.2,1c-5.67,6.09-13,12.14-17.7,19-5.19,7.61-.61,8.86,6.32,11.48C761.16,597.29,771.41,609.18,785.54,615.41Z"/><path class="cls-3" d="M737.75,603.26l11.67,15.67,10.14-5.86q-6.37-7.2-12.76-14.41c-.77-.88-1.7-1.82-2.87-1.82a3.83,3.83,0,0,0-2.21,1,25.32,25.32,0,0,0-5.18,5.36"/><path class="cls-3" d="M799.18,660a1.82,1.82,0,0,0-1.36-2.87l-36.19-12.82a1.66,1.66,0,0,0-1.59,0,1.62,1.62,0,0,0-.42,1c-.78,4-5,14.67-3.71,18.4s8.4,5.33,12.49,6.34c9,2.22,14.93,4.94,23.26,9.11C794.91,673.4,796.87,666.26,799.18,660Z"/><path class="cls-3" d="M810.66,639.64a39.34,39.34,0,0,0,9.89-11.7l-24.35,8.82,9.12,4.49a1.65,1.65,0,0,0,2.23-.27l4.42-3.49"/><path class="cls-3" d="M84.85,73.72A39.63,39.63,0,0,0,94.75,62L70.39,70.83l9.13,4.5a2.12,2.12,0,0,0,1.09.31,2.19,2.19,0,0,0,1.14-.58l4.41-3.49"/><path class="cls-3" d="M137.45,400.68a4.3,4.3,0,0,0-6,2.06Q119,419.45,106.85,436.4l88.83,2.34c-.59-15.21-2.93-18.62-17-23.72Q158.15,407.58,137.45,400.68Z"/><path class="cls-3" d="M-3.21,466.58a116.26,116.26,0,0,0,4.6,39.33,4.1,4.1,0,0,0,1.54,2.54,4,4,0,0,0,2.5.28C12.07,508,18.48,506,25,504.35c18.1-4.54,36.81-6,55.42-7.44-1,.12-2.45-11.12-2.52-11.79C50.17,484.42,23.6,474.22-3.21,466.58Z"/><path class="cls-3" d="M127.49,218.47c-3.46-1.65-7.07-3.13-10.08-5.51S112,207.1,112,203.28a116.86,116.86,0,0,1,15.67,3.46c3.42,1,6.9,2.23,9.55,4.61C144.15,217.53,144,230,152.35,234,143.65,229.85,136.36,222.7,127.49,218.47Z"/><path class="cls-3" d="M78.39,194.53A350.2,350.2,0,0,1,38.07,221.2l15.2,22.42a4.23,4.23,0,0,0,1.85,1.78,4.16,4.16,0,0,0,2.29-.07l25.33-5.46a27.27,27.27,0,0,1,1-10.16A3.93,3.93,0,0,1,85.7,227a4.15,4.15,0,0,1,2.62.13,83.84,83.84,0,0,1,30,15.47c5.7,4.6,8.38-3.85,8-8.68-.52-6.27-4.59-9.22-9.15-13.49C113.26,216.8,83.31,190.76,78.39,194.53Z"/><path class="cls-3" d="M65.14,320.27l-18-22.2-14.84,14q17.85,7.45,36.22,13.63,2.08-6.81,4.19-13.62a21.28,21.28,0,0,1-7.43-3.6q0,4.44.07,8.87"/><path class="cls-3" d="M57,365.06A81.34,81.34,0,0,0,60.1,386.2a2.06,2.06,0,0,0,.93,1.43,2,2,0,0,0,1.41-.07,201.2,201.2,0,0,0,45.12-19.36c15-8.78-6-9.34-12.61-9C91.51,359.44,57,362.6,57,365.06Z"/><path class="cls-3" d="M14.84,163.35c.12-1.17.36-2.52,1.39-3.11,1.19-.67,2.78.16,3.39,1.37a7.38,7.38,0,0,1,.43,4q-1.76,22.83-5.57,45.45c.67-4-1.07-13.61-1-18.6C13.66,182.71,13.82,173.06,14.84,163.35Z"/><path class="cls-3" d="M88.37,555.19a27.17,27.17,0,0,0,16.52,2.18c.77-.14,6.23-50.23,6.29-54.75C97.69,502.27,90,545.14,88.37,555.19Z"/><path class="cls-3" d="M100.39,119.6c-.76-1.07-1.72-2.24-3-2.28a4.3,4.3,0,0,0-2.23.79l-4.74,2.75c6,8,13.28,17.19,21.61,22.83,4.34-4.39,1.67-5.64-1.4-9.48C106.92,129.6,103.82,124.4,100.39,119.6Z"/><path class="cls-3" d="M73.55,182.48c0,.22-.06.5.14.6a.5.5,0,0,0,.34,0l17.07-3.66A1.2,1.2,0,0,0,92,179a1.19,1.19,0,0,0-.11-1,37.52,37.52,0,0,1-2.65-7.54c-.77-3.8-.41-7.75-1.12-11.56-.6-3.22-9.2,1.06-10.23,3.21C75.12,167.71,74.73,176.31,73.55,182.48Z"/><path class="cls-3" d="M78.06,271.77a36.83,36.83,0,0,1-2,14.61,113.39,113.39,0,0,0,20.1.16c-1.16-4-1.33-9.81-5.39-11-1.72-.5-3.47-.14-5.39-.83C82.91,273.81,80.6,272.57,78.06,271.77Z"/><path class="cls-3" d="M61.15,436.28a1.3,1.3,0,0,0-.69-.37,1.29,1.29,0,0,0-.77.34l-9.09,6.87,22.24,14.23a41.34,41.34,0,0,1,3.85-7.7C71.67,445.13,66.33,440.73,61.15,436.28Z"/><path class="cls-3" d="M126.47,544a15.39,15.39,0,0,0-8.81-3.38,61.2,61.2,0,0,1-.77,10.74h14.94c0-2.52,0-5,0-7.55l-5.19,0"/><path class="cls-3" d="M110.15,252.1,106,264.52l10.71-2.4,1.63-12.38-5.26-1.39a1.55,1.55,0,0,0-1.14,0,1.52,1.52,0,0,0-.54.84l-1.42,4"/><path class="cls-3" d="M92.81,399.79a2,2,0,0,0-1.06.67,1.9,1.9,0,0,0-.16,1.18c.17,2.11.33,4.21.5,6.32,1-.51,1.92-1.17,2.9-1.72,5.26-2.94,11.87-2.27,17.39-4.67a1.25,1.25,0,0,0,.49-.31c.43-.5-.05-1.22-.44-1.74a7.2,7.2,0,0,1-1.42-4.67C105.09,397.64,98.87,397.71,92.81,399.79Z"/><path class="cls-3" d="M109.8,344.67a15.25,15.25,0,0,1,7.38-5.43c1.95-.67,4.38-1.23,5-3.19.54-1.67-.6-3.38-1.68-4.78-2.26-2.92-5.66-6.19-9.11-4.84a8.65,8.65,0,0,0-2.94,2.31l-4.87,5.13a11,11,0,0,0-1.51,1.84,5.75,5.75,0,0,0,1.2,7.18,5.85,5.85,0,0,0,7.32-.09"/><path class="cls-3" d="M115.42,476.76a24,24,0,0,0,14-8,4.53,4.53,0,0,0,1.39-3.11c-.16-2.08-2.61-3-4.64-3.53a28.53,28.53,0,0,0-8.23-1.17,9.69,9.69,0,0,0-7.29,3.46c-1.18,1.58-1.66,3.59-2.85,5.15-.73,1-1.76,1.83-1.91,3-.32,2.54,3.14,3.62,5.71,3.73"/><path class="cls-3" d="M46,563.31l-14.22,16.6L27,572.53l10.73-11.15a4.11,4.11,0,0,1,2.55-1.56c1.46-.06,2.46,1.35,3.34,2.5s2.42,2.28,3.66,1.54"/><path class="cls-3" d="M84.22,608.84a10.08,10.08,0,0,1,3.82-9,36.89,36.89,0,0,0-11.49,1.4,83.09,83.09,0,0,1,5.14,11.87q1.41-3.23,2.83-6.45"/><path class="cls-3" d="M14.4,351.86a29.6,29.6,0,0,0,14.8,6.19l-2.82-15.67-2.9.87c-2.23.66-4.56,1.38-6.21,3s-2.32,4.5-.83,6.27l-.3-1.63"/><path class="cls-3" d="M35.6,404l-.09-13-4.67,0a53.47,53.47,0,0,1,1.23,16.39h2.62A3,3,0,0,0,35,404"/><path class="cls-3" d="M21.77,264l4-8.8c-1.59-.82-3.33-1.67-5.1-1.39-3.81.6-4.87,5.46-5.06,9.28l6.68.81L21,260.56"/><path class="cls-3" d="M53.49,151.66,45.75,139.2a51.26,51.26,0,0,0-6.85,4.32,2.72,2.72,0,0,0-1,1.09,2.77,2.77,0,0,0,.47,2.18c1.41,2.58,2.88,5.24,5.23,7,3.51,2.66,9.4,2.37,11.58-1.43l-1.52-.89"/><path class="cls-3" d="M87.23,75.12a39.17,39.17,0,0,0,9.89-11.63L72.77,72.25l9.13,4.47A2.21,2.21,0,0,0,83,77a2.15,2.15,0,0,0,1.14-.58q2.22-1.73,4.42-3.47"/><path class="cls-3" d="M355.34,613.2a39.2,39.2,0,0,0,9.89-11.7l-24.35,8.82,9.13,4.49a2.22,2.22,0,0,0,1.08.32,2.15,2.15,0,0,0,1.14-.58l4.42-3.5"/><path class="cls-3" d="M848.06,675.26q.41-5.89.28-11.8a1.55,1.55,0,0,0-.22-.93c-.44-.56-1.33-.26-2,.08l-6,3.29a2.83,2.83,0,0,0-1.38,1.19,2.43,2.43,0,0,0-.1,1.34,8.47,8.47,0,0,0,9,7"/><path class="cls-3" d="M391.94,93.66q.4-5.89.28-11.81a1.54,1.54,0,0,0-.22-.92c-.44-.56-1.33-.27-2,.08l-6,3.28a2.94,2.94,0,0,0-1.38,1.19,2.47,2.47,0,0,0-.1,1.35,8.45,8.45,0,0,0,9,7"/><path class="cls-3" d="M718.51,595.79a1.72,1.72,0,0,0,1.07.7,1.65,1.65,0,0,0,.92-.32,37.59,37.59,0,0,0,6.21-4.66l-18.08-15.42c-4.86,4.19-3.8,4.42.4,9.1Q713.79,590.49,718.51,595.79Z"/><path class="cls-3" d="M717.91,640.18a59.2,59.2,0,0,1,16.28-7.82,16.82,16.82,0,0,1-6.45-3.42,2,2,0,0,0-1.3-.66,1.79,1.79,0,0,0-.93.44q-6.22,4.44-12.44,8.89l4.91,2.21"/><path class="cls-3" d="M797.25,102.9a122.84,122.84,0,0,0,19.14-18.17l-18.43-6q-7,9.84-13.9,19.69a13,13,0,0,0,11,4.4"/><path class="cls-3" d="M863.62,81.83a4.25,4.25,0,0,0,1.32-2c.41-2-1.9-3.36-3.81-4l-7.36-2.68c-1.08-.39-2.48-.71-3.22.17a2.89,2.89,0,0,0-.5,1.4c-1.93,11.09-6.48,20.53-11.21,30.54C844,106.59,859.31,86.24,863.62,81.83Z"/><path class="cls-3" d="M823.85,72.4a19.55,19.55,0,0,0,8.21,3.76,2.18,2.18,0,0,0,1.29,0c.67-.31.85-1.16,1-1.89a14.46,14.46,0,0,1,4.07-7.33l-7.85-1.29a140.32,140.32,0,0,0-15.55-2c1.53,1.06,2.13,3,2.87,4.68s2,3.5,3.8,3.69c1.17.11,2.83-.18,3.12,1"/><path class="cls-3" d="M827.32,97.82a45.7,45.7,0,0,1,5.56-7.34l-8.11.08-.08,6.68a2.18,2.18,0,0,0,.19,1.11,1.42,1.42,0,0,0,1.88.37,3.49,3.49,0,0,0,1.34-1.59"/><path class="cls-3" d="M901.46,88.81c.68.45,1.51,1,2.25.62a2.24,2.24,0,0,0,.78-.72c1.34-1.68,2.67-3.37,4-5-3.12-1-16.56-7.32-17.75-3.87C889.05,84.73,899.19,87.29,901.46,88.81Z"/><path class="cls-3" d="M776,105.15a1.33,1.33,0,0,0,.81,0c.35-.14.5-.54.62-.89l.9-2.73a1.15,1.15,0,0,0,.09-.68c-.14-.6-1-.63-1.59-.56-9,1.08-17.47-4.68-26.52-5.52,1.28.12,3.41,3.22,4.8,3.88,1.55.74,3.69,1,5.35,1.61C765.57,102.09,770.75,103.73,776,105.15Z"/><path class="cls-3" d="M946.09,114.14q-.42-5.92-.82-11.85a1,1,0,0,0-.26-.75,1.1,1.1,0,0,0-.7-.18A84.91,84.91,0,0,0,921.93,104a32.24,32.24,0,0,1,1.58,10.81C923.48,116.1,944.27,113.69,946.09,114.14Z"/><path class="cls-3" d="M220.48,105.4c5.46,2,11.05,4,16.86,3.92a21.43,21.43,0,0,1,.61-9.87c-6.83-3.07-13.75-6.18-21.11-7.56-3.76-.7-7.62-1-11.29-2.06-2.36-.72-4.68-1.81-7.15-1.85a12.71,12.71,0,0,1,.08,7.88c-1.25,3.94,4.59,3.29,7.38,4.26C210.75,101.82,215.61,103.64,220.48,105.4Z"/><path class="cls-3" d="M226.78,68.83c-.54,1.15-2.13,1.21-3.4,1.16A34.13,34.13,0,0,0,212,71.53a28.86,28.86,0,0,1,8.1,6.26,42.47,42.47,0,0,0,3.52,3.82A9.57,9.57,0,0,0,228,83.89C229.38,80,227.42,73.06,226.78,68.83Z"/><path class="cls-3" d="M293.48,99a9.06,9.06,0,0,0-2.66-2.54,7.72,7.72,0,0,0-3.15-.72c-9.3-.6-18.13,3.68-26.46,7.86,1.92-.15,3.58,1.26,4.94,2.62a80.59,80.59,0,0,1,6,6.76,29.47,29.47,0,0,0,5.41,5.84c4.75,3.44,11.17,3.11,17,2.48,4.73-.52,12.81.24,11-6.58C304.2,109.52,296.84,103.27,293.48,99Z"/><path class="cls-3" d="M178.41,626.59a76.23,76.23,0,0,0-11-8.38,38.15,38.15,0,0,1,12.33-10.29,23.75,23.75,0,0,0,5.35-3.23c2.16-2,3.51-4.24,6.7-3.2,3.57,1.17,3.84,4.67,2.83,7.25C192.13,615.15,183.42,622,178.41,626.59Z"/><path class="cls-3" d="M214.21,614.25l-4.4-18.55c-.33-1.36-.52-3.09.64-3.88a3.61,3.61,0,0,1,1.59-.45c6.42-.74,11.93-2.8,9.5,5.18C220.32,600.54,213.28,610.37,214.21,614.25Z"/><path class="cls-3" d="M243.57,623.58a1.51,1.51,0,0,1-.06.87,1.54,1.54,0,0,1-1.11.62,18.69,18.69,0,0,0-8.46,4.63c1.94-7.75,1.34-15.88.72-23.84-.23-3-2.25-8.74,2.18-8.44,2.62.18,2.87,2.31,3.61,4.34C242.82,608.18,242.61,616.78,243.57,623.58Z"/><path class="cls-3" d="M164.83,614.38c-.77.8-1.77,1.67-2.84,1.39-1.39-.36-1.58-2.21-1.61-3.64a24.64,24.64,0,0,0-2.06-9.34c.51,1.31,22.17-10.39,23.75-6.73C183.81,600.09,167.28,611.84,164.83,614.38Z"/><path class="cls-3" d="M928.16,248.18q2.94-8.81,5.9-17.62a1048.56,1048.56,0,0,1-128.81-8.32c2.78.35-2.16,20.49,8.82,22.1,3.57.53,8.72-2.73,12.37-3.21,6.25-.83,13,.12,19.26.7C873.1,244.41,900.48,251.93,928.16,248.18Z"/></g></g></g></svg>