<svg xmlns="http://www.w3.org/2000/svg" xmlns:xlink="http://www.w3.org/1999/xlink" viewBox="0 0 687.43 1025.52"><defs><style>.cls-1{filter:url(#filter);}.cls-2{filter:url(#filter-2);}</style><filter id="filter"><feOffset input="SourceAlpha"/><feGaussianBlur stdDeviation="5" result="blur"/><feFlood/><feComposite operator="in" in2="blur"/><feComposite in="SourceGraphic"/></filter><filter id="filter-2"><feOffset input="SourceAlpha"/><feGaussianBlur stdDeviation="5" result="blur-2"/><feFlood/><feComposite operator="in" in2="blur-2"/><feComposite in="SourceGraphic"/></filter></defs><g id="Layer_2" data-name="Layer 2"><g id="Layer_1-2" data-name="Layer 1"><g class="cls-1"><path d="M74.34,232.94a80.69,80.69,0,0,1-19.89,3.15,175.93,175.93,0,0,0,6.37-26.57l16.1,9.85a1.55,1.55,0,0,1,.4,2.75L71,230.77C72,231.67,73.31,232,74.34,232.94Z"/><path d="M121.33,174.63a18,18,0,0,1,6.42-5.11,19.48,19.48,0,0,1,7.25-1q5.13,0,10.24.15a1.7,1.7,0,0,1,2,2.23l-1.14,19.72a1.9,1.9,0,0,1-2.22,2.24c-2.31.11-9.18-.74-11.07.74-2.69,2.13-.45,5.24-2.5,7.7-4.16,5-9.31,4.25-15.4,2.2-8.5-2.86-8.72-3.93-4.62-12.46A72.26,72.26,0,0,1,121.33,174.63Z"/><path d="M180.52,146.24a3.37,3.37,0,0,1-1.24-1.44,3.44,3.44,0,0,1,.3-2.34q4.48-12,9.23-23.82l30.63,44.77c-8,4.77-10.57,4.7-17.87-.82Q190.94,154.57,180.52,146.24Z"/><path d="M180.63,186.21q-5.81,6.38-12,12.42-4.95-5.87-9.91-11.71a86.85,86.85,0,0,1,17.06-13.43,3.7,3.7,0,0,1,1.86-.68,3.65,3.65,0,0,1,1.7.59l9.34,5.13a9.75,9.75,0,0,0-4.1,8.09,5.4,5.4,0,0,1-3.59-.2"/><path d="M39.47,256.11a3.93,3.93,0,0,0-1.58.79,4.12,4.12,0,0,0-.94,1.82q-1.37,4.33-2.75,8.69c10.57-6.55,20.56-9.86,32-14C60.14,248,45.94,254,39.47,256.11Z"/><path d="M47,158.53a71.71,71.71,0,0,1,21.81-10.75,2.49,2.49,0,0,1,1.82-.06,2.39,2.39,0,0,1,1,1.19c1.82,3.64,2.9,7.6,4.21,11.47,3.65,10.79,9.1,20.86,14.52,30.88-.28-.56-6.55,2.46-6.91,2.64C73.92,180,59.85,169.72,47,158.53Z"/><path d="M83.24,201.88a31.32,31.32,0,0,0-6.18-3.34,7.88,7.88,0,0,0-6.78.47,69.54,69.54,0,0,0,7,6.87,14.86,14.86,0,0,0,5.54,3.37c5.48,1.48,11.86-2.77,16.71.18C94.46,206.36,88.36,205,83.24,201.88Z"/><path d="M223.54,112.41a214.82,214.82,0,0,0,23.72-17.65l9.83,13.38a2.48,2.48,0,0,1,.65,1.42,2.56,2.56,0,0,1-.51,1.31l-8.37,13.43a16.69,16.69,0,0,0-6.09-1.51,2.4,2.4,0,0,0-2,.54,2.5,2.5,0,0,0-.46,1.53,50.93,50.93,0,0,0,2.78,20.41c1.49,4.23-4,4-6.66,2.8-3.52-1.6-4.39-4.55-5.92-8.06C229.24,137.06,220.35,114.46,223.54,112.41Z"/><path d="M137.83,80c-.94-.29-2-.79-2.13-1.76a2.46,2.46,0,0,1,.43-1.4,23.08,23.08,0,0,1,3.56-4.67c.35-.34.7-.68,1.07-1a2.72,2.72,0,0,1,1.87-.89,3,3,0,0,1,1.84,1.24c2.37,2.64,8.1,5.11,5.41,8.45C147.56,82.81,140.5,80.77,137.83,80Z"/><path d="M115.08,136l-17.41-1.82q1.15-6.14,2.3-12.27,9.77,6.66,19,14l-5.64,6.69A12.8,12.8,0,0,0,109,140l4.6-2.93"/><path d="M135.5,116.89a49.88,49.88,0,0,1,11.92-5.47,1.28,1.28,0,0,1,1.05,0,1.24,1.24,0,0,1,.43.75,122.22,122.22,0,0,1,5,29.59c.46,10.63-6.81,0-8.79-3.48C144,136.44,134.23,117.69,135.5,116.89Z"/><path d="M44.55,130.38l-15.73,1.81q-1.61-2.73-2.95-5.59c-.15-.33-.29-.76-.05-1a.94.94,0,0,1,.7-.2L48.94,125A.83.83,0,0,1,50,126c-.07.93-.15,1.86-.22,2.79a1.22,1.22,0,0,1-1.43,1.46l-8.35.15"/><path d="M17.48,162.49c-.56.46-1.18,1-1.14,1.76a1.61,1.61,0,0,0,1.83,1.28,4.66,4.66,0,0,0,2.2-1.11q11.19-8.52,21.6-18c-1.83,1.67-7.38,4-9.92,5.7C27.08,155.44,22.16,158.74,17.48,162.49Z"/><path d="M75.3,72.42A16.56,16.56,0,0,1,85,69.5c.48,0,8.64,29.86,9.12,32.6C86.06,103.61,77.24,78.37,75.3,72.42Z"/><path d="M112,228.59a2.22,2.22,0,0,1,.88-1.36,2.1,2.1,0,0,1,1.14-.16,79.75,79.75,0,0,1,25.52,5.36c-4.29,7.12-8.79,22.68-18.23,18.76-2.38-1-10.33-4.21-11.82-5.56C105.83,242.29,110.37,233.55,112,228.59Z"/><path d="M104.51,259.09l-20.14,3.15,2.31-9.45a165.21,165.21,0,0,0,18.56,5.75l-3,.3"/><path d="M278.55,173.11a3,3,0,0,1,3-2.93,62.63,62.63,0,0,1,20.3.77,253.93,253.93,0,0,1-10.58,25.88,1.35,1.35,0,0,1-2.07.84l-11.6-3.89a4.9,4.9,0,0,1-1.84,4.71C271.84,193.81,277.11,178.63,278.55,173.11Z"/><path d="M227.6,147.23a2.52,2.52,0,0,1-.58-1.3,2.72,2.72,0,0,1,.83-1.73l8-9.57a137.64,137.64,0,0,0,12.65,16.12c-3.74,4-4.59,6.62-10,5.25C234.29,154.94,230,150.65,227.6,147.23Z"/><path d="M235.13,176.75l-11.57-9.22,22.72-4.75q-3.22,7.22-6.46,14.42c-.2.44-.48,1-1,1a1.38,1.38,0,0,1-.91-.39,24.8,24.8,0,0,1-3.35-3.21"/><path d="M146.66,216.42l4.11-11,9.82,6.86a75,75,0,0,0-8.11,8.61l-4.09-2.58"/><path d="M201.38,184.55a43.42,43.42,0,0,1-1.35-5c-.09-.46-.14-1,.22-1.31a1.4,1.4,0,0,1,.88-.19l11,.25a61.51,61.51,0,0,1-5.82,9.45,2.64,2.64,0,0,1-.9.86c-1.6.77-3.14-1.92-4.88-1.55a1.05,1.05,0,0,1,.38-1.38"/><path d="M78.43,274.16A33.73,33.73,0,0,0,65,268.81c-2.52-.41-5.53-.82-6.68-3.1a7.48,7.48,0,0,0,1.8-3.83,111.66,111.66,0,0,1,23.27,9.44,7.48,7.48,0,0,1-2.26,2.8,2.56,2.56,0,0,1-3.3-.27"/><path d="M293.51,140.15a4.65,4.65,0,0,1,.13-2.72,4.84,4.84,0,0,1,1.88-1.76l7.6-4.82c.57,5.17,3.86,25.09-1,27.07C293.65,161.33,294.15,144.35,293.51,140.15Z"/><path d="M313.57,176.3a39.64,39.64,0,0,0-.09-12.86,12.74,12.74,0,0,1-.31-5c.36-1.64,1.78-3.19,3.45-3.05q.81,5.53,1.63,11.08a14.57,14.57,0,0,1,0,6.44c-.66,2.07-2.58,3.91-4.74,3.71a1.26,1.26,0,0,1-.56-1.69"/><path d="M266.71,182.49a13.45,13.45,0,0,1-1.89-4.22,4.5,4.5,0,0,1,1.26-4.26c1.62-1.34,4.28-1,5.69-2.53a56,56,0,0,0,.1,11.51,5.67,5.67,0,0,1-4-.51"/><path d="M259.68,155a34.56,34.56,0,0,1,6.59-5.28L273,160.19s-5.32-1.74-5.67-1.89Z"/><path d="M130.71,214.58a.92.92,0,0,1,.5-.25.84.84,0,0,1,.46.21c2.35,1.77,3.87,4.4,5.91,6.51,1.09,1.11,2.31,2.08,3.43,3.16a45.26,45.26,0,0,1,3.85,4.33,10.76,10.76,0,0,0-2.29,3.17c.24-.5-7.68-7.1-8.58-7.89-2.35-2.08-5.27-3.53-7.54-5.62A46.47,46.47,0,0,1,130.71,214.58Z"/><path d="M101.4,229.19c-3.52.12-8.11,2.25-11.38,1.72.48-1.62,2.7-3,3.94-4.08,2.55-2.27,4.57-4.81,6.87-7.29C101.11,220.32,102.24,229.16,101.4,229.19Z"/><path d="M95.63,247.43l5.54-3.24a19.19,19.19,0,0,1,3.71,7.53.45.45,0,0,1,0,.28c0,.12-.18.18-.3.23-2.4.93-2.64,1.38-4.25-.25C99.74,251.38,96.5,246.92,95.63,247.43Z"/><path d="M23.26,220.94a2.69,2.69,0,0,1-2.18-.79,2.63,2.63,0,0,1-.33-1.41l-.15-3.35c6.1.44,13.26,1.08,18.93,3.47-.82,3.69-2.35,2.73-5.35,2.44C30.58,221,26.87,221.1,23.26,220.94Z"/><path d="M46.8,186.22c.1-.1.24-.2.36-.13s.09.11.12.17q1.88,5,3.76,10a.77.77,0,0,1,.05.59.74.74,0,0,1-.57.29,23,23,0,0,0-4.77,1.15c-2.21.88-4.13,2.37-6.33,3.28-1.86.77-2.5-5.07-1.73-6.32C39.7,192,44,188.88,46.8,186.22Z"/><path d="M94.35,158.77a22.81,22.81,0,0,0,6.88-5.9A68.84,68.84,0,0,1,108,163.12c-2.44.74-5.49,2.59-7.45.9-.83-.71-1.22-1.73-2.21-2.48C97,160.57,95.6,159.8,94.35,158.77Z"/><path d="M173.61,95.26a.58.58,0,0,1-.51-.74l.54-7,14.7,6.66a25.71,25.71,0,0,0-2.69,4.54C181.66,97.7,177.61,96.43,173.61,95.26Z"/><path d="M220,129.58a8.2,8.2,0,0,0,.37-4.75l3.92-1.44a1.11,1.11,0,0,1,.64-.09,1.07,1.07,0,0,1,.59.7,14.91,14.91,0,0,1,.75,8.28,19.51,19.51,0,0,0-5.88,1.31,10.72,10.72,0,0,0-.14-4"/><path d="M269,132.68a9.33,9.33,0,0,1-4.66-3.39,37.83,37.83,0,0,0,5.28-4l5,7.66-3.89,2.52L269,132.84"/><path d="M177.32,198.94a40,40,0,0,0,4.58-7.15,9.34,9.34,0,0,1,3.11,2.57c2.93,3.16,6.42,5.58,9.51,8.51-3.86,3.17-3.33.32-6.65-1.26S180.6,200.8,177.32,198.94Z"/><path d="M170.52,213.44a18.7,18.7,0,0,0-4.57-5l5.58-3.41a41.1,41.1,0,0,0,4.08,10.25c-1.8-.26-3.62-.46-5.44-.59a1.75,1.75,0,0,0,.05-1.59"/><path d="M157.06,201.93a29.82,29.82,0,0,1-6.61-4.75l2.12-1.39a49.32,49.32,0,0,1,5.1,5.32l-2.22.4"/><path d="M114.25,51.76A30.34,30.34,0,0,1,107.64,47l2.13-1.38a49.23,49.23,0,0,1,5.09,5.32l-2.21.4"/><path d="M309.1,82a30.29,30.29,0,0,1-6.61-4.75l2.13-1.39a48.28,48.28,0,0,1,5.09,5.32l-2.21.4"/><path d="M139.35,209.27l-5.71.38a.38.38,0,0,1-.28-.07.35.35,0,0,1-.05-.21l-.12-4.06a8.84,8.84,0,0,1,5.29-.13c1.55.46,3.14,1.65,3.09,3.26a1.8,1.8,0,0,1-.7,1.43,1.26,1.26,0,0,1-1.53,0"/><path d="M109.48,222.36a11.49,11.49,0,0,1-2.75-3.45,41.13,41.13,0,0,0,3.8-1.94q1.09,3.06,2.18,6.12l-.58.07a3.21,3.21,0,0,1-1.48,0,1.14,1.14,0,0,1-.84-1.1"/><path d="M94.84,181.78q2.5-3.15,5-6.28,1.16,3.15,2.3,6.29l-5.84,5-2.46-2.24a1,1,0,0,1-.37-.58.93.93,0,0,1,.25-.56l1.58-2.06"/><path d="M157.06,167.31a1.54,1.54,0,0,1-.85-.18,1.48,1.48,0,0,1-.42-1.22c0-.91,0-1.82-.07-2.73a.61.61,0,0,1,.09-.44c.14-.18.4-.17.63-.15a62.22,62.22,0,0,0,11.74,0,.62.62,0,0,1,.45.06.64.64,0,0,1,.19.52c.13,2.62.47,7.25-2.95,6A26.44,26.44,0,0,0,157.06,167.31Z"/><path d="M165.27,123.65a1.17,1.17,0,0,1,0-.76,1.2,1.2,0,0,1,.56-.48l3.43-1.85c.07.69,0,1.38.07,2.06.22,3.68,2.76,6.84,3.36,10.47a1.09,1.09,0,0,1,0,.36c-.12.38-.65.38-1.05.35a4.43,4.43,0,0,0-2.88.83C168.23,130.66,166.21,127.45,165.27,123.65Z"/><path d="M169.67.49l-3.85,12.82,5.38,0,2.19-9.22a2.51,2.51,0,0,0,0-1.83c-.45-.76-1.51-.81-2.4-.88S169,.89,169,0"/><path d="M366.93,187.28a6.18,6.18,0,0,0,3.38-5,22.53,22.53,0,0,1,3.09,6.35,53.14,53.14,0,0,0-7.83,1.33c.8-1.2,1.6-2.4,2.39-3.6"/><path d="M84.64,347.68l9-.18a31.46,31.46,0,0,1,0,4.95,1.57,1.57,0,0,1-.24.87,1.65,1.65,0,0,1-1.28.48,12.84,12.84,0,0,1-5.35-.33c-2.53-.92-4.34-4-3.1-6.42l1,.48"/><path d="M258.23,120.46a108.56,108.56,0,0,1,41.51-8c2.25,16.78,1.18,33.8.1,50.68-.2,3-.56,6.32-2.85,8.23a11.31,11.31,0,0,1-4.12,1.85l-25.79,7.5C266.93,180.77,258.41,123.77,258.23,120.46Z"/><path d="M51.39,303.27a3.68,3.68,0,0,1-1.61-1.75,3.92,3.92,0,0,1,.2-2.21q2.58-8.69,5.14-17.36a122.5,122.5,0,0,1,32.3,15,2.33,2.33,0,0,1,.9.86,2.38,2.38,0,0,1,0,1.62c-1.24,4.93-1.91,10.69-3.88,15.38-2.19,5.18-4.34,3.24-8,.56C68.76,309.76,59.27,308.45,51.39,303.27Z"/><path d="M73.45,323.74,61.56,323l-.36-7.14,11.62,1.76a2.59,2.59,0,0,1,1.88.87,2.38,2.38,0,0,1,.22,1.47,15.37,15.37,0,0,1-1,4.43"/><path d="M24,311.05a1.47,1.47,0,0,1,.85-.69,1.47,1.47,0,0,1,1.07.44l18.56,14.3c.27.21.57.48.52.82a.92.92,0,0,1-.35.53c-1.77,1.72-5.87,7.42-8.2,8s-5.51-2.54-7.39-4.3a61.94,61.94,0,0,0-12.38-8.91C18.56,317.68,21.58,314.3,24,311.05Z"/><path d="M30.65,298.42a24,24,0,0,1,2.72-8.95l3.55,15.4-5.33-3.19a1.27,1.27,0,0,1-.52-.45,1.36,1.36,0,0,1-.08-.78l.33-3.42"/><path d="M0,291q2.88-2.16,6-4.05a.93.93,0,0,1,.54-.19c.44,0,.58.59.61,1,.11,1.4.21,2.79.31,4.18a1.75,1.75,0,0,1-.15,1.09,1.46,1.46,0,0,1-.66.51A5.17,5.17,0,0,1,0,291.32"/><path d="M83.66,331.13a1.09,1.09,0,0,1-.72-.32,1,1,0,0,1-.13-.57,22,22,0,0,1,.33-4.73L97,329.66c-.53,3.89-1,3.42-4.8,2.81Z"/><path d="M61.1,346.14a36.44,36.44,0,0,0-1.38-10.94,10.22,10.22,0,0,0,3.88,2.18,1.24,1.24,0,0,1,.78.45,1.17,1.17,0,0,1,.08.62c-.14,3.11-.29,6.21-.43,9.32L61.26,346"/><path d="M328.48,167.3a75.45,75.45,0,0,1,3-15.83l9.2,7.45-5.49,13.65a7.91,7.91,0,0,1-5.91-4.2"/><path d="M317.29,126.3a2.76,2.76,0,0,1,.59-1.35c.89-.87,2.36-.14,3.35.61l3.81,2.89c.56.42,1.18,1,1,1.7a1.73,1.73,0,0,1-.56.73c-5,4.66-8.37,10.12-11.94,15.86C311.09,144.54,316.46,130,317.29,126.3Z"/><path d="M335.3,143.56a11.89,11.89,0,0,1-4.64-3,1.24,1.24,0,0,1-.41-.67c-.07-.44.31-.82.63-1.14a8.74,8.74,0,0,0,2.41-4.51l3.26,3.59a85.91,85.91,0,0,1,6.17,7.32,6.17,6.17,0,0,0-3.35.08c-1.11.19-2.44.16-3.15-.73-.45-.56-.84-1.51-1.52-1.27"/><path d="M321.13,150.2a28.22,28.22,0,0,0,1.91-5.28l2.65,4.18-3.4,2.26a1.27,1.27,0,0,1-.63.27.87.87,0,0,1-.81-.84,2.11,2.11,0,0,1,.37-1.22"/><path d="M301.18,109.21c-.46-.2-1-.46-1.07-.95a1.42,1.42,0,0,1,.11-.64c.43-1.24.85-2.48,1.27-3.72,1.56,1.26,9.24,6.06,7.86,7.81C307.38,114.22,302.71,109.87,301.18,109.21Z"/><path d="M334.37,178.94a.77.77,0,0,1-.29-.4.83.83,0,0,1,.25-.61l1.11-1.37a.74.74,0,0,1,.31-.27c.36-.12.65.29.82.63,2.43,5,8.18,7.41,11.61,11.77-.48-.62-2.78-.68-3.58-1.17S342.86,186,342,185.3C339.39,183.27,336.84,181.16,334.37,178.94Z"/><path d="M273.41,94.72l6.34-3.5a.49.49,0,0,1,.8.18,51.89,51.89,0,0,1,6,12.36,19.76,19.76,0,0,0-6.07,2.77C279.9,107,274.24,95.5,273.41,94.72Z"/><path d="M192.41,108.49q3.54-4.44,7.07-8.87a639.75,639.75,0,0,0,47,63.28c-1.11-1.31-9.8,7.9-14.26,2.8-1.45-1.65-1.48-5.37-2.45-7.4-1.65-3.48-4.37-6.63-6.74-9.64C212.58,135.46,199.65,123.92,192.41,108.49Z"/></g><g class="cls-2"><path d="M601.61,774.09a81.1,81.1,0,0,1,17.2-10.48,175.83,175.83,0,0,0,4.24,27l-18.64-3a1.55,1.55,0,0,1-1.42-2.39l2.58-10.41C604.27,774.38,602.91,774.54,601.61,774.09Z"/><path d="M580.4,845.91a18,18,0,0,1-4,7.17,19.53,19.53,0,0,1-6.32,3.69q-4.73,2-9.52,3.76a1.71,1.71,0,0,1-2.69-1.31l-6.46-18.66a1.91,1.91,0,0,1,1.2-2.92c2.09-1,8.77-2.81,10-4.91,1.68-3-1.58-5-.63-8.07,1.94-6.22,7-7.47,13.41-7.9,8.94-.6,9.56.31,9,9.76A72.23,72.23,0,0,1,580.4,845.91Z"/><path d="M536.5,894.72a2.62,2.62,0,0,1,2.31,3.14q.41,12.76.55,25.53L494,893.68c5.62-7.47,8-8.37,16.83-6Q523.7,891,536.5,894.72Z"/><path d="M521.17,857.81c2-5.4,4.07-10.76,6.33-16l13.62,7.05a86.69,86.69,0,0,1-10.65,18.91,3.71,3.71,0,0,1-1.46,1.35,3.77,3.77,0,0,1-1.8.09L516.62,868a9.73,9.73,0,0,0,.7-9,5.41,5.41,0,0,1,3.4-1.18"/><path d="M625,739.38a4.07,4.07,0,0,0,1.16-1.32,4.17,4.17,0,0,0,.17-2c-.26-3-.51-6-.77-9.08-7.27,10.08-15.24,17-24.22,25.11C609,754.73,619.84,743.79,625,739.38Z"/><path d="M655.23,832.48a71.63,71.63,0,0,1-16.06,18.25,2.52,2.52,0,0,1-1.67.75,2.43,2.43,0,0,1-1.35-.72c-3.07-2.68-5.58-5.93-8.26-9-7.49-8.58-16.37-15.82-25.2-23,.47.41,5.12-4.77,5.39-5.08C622.21,822.93,639.11,827,655.23,832.48Z"/><path d="M605.23,806.21a31.2,31.2,0,0,0,7,.72,7.91,7.91,0,0,0,6.09-3,70.68,70.68,0,0,0-9.07-3.7,14.88,14.88,0,0,0-6.41-1c-5.63.72-9.91,7.08-15.51,6.2C593.15,806.33,599.31,805.26,605.23,806.21Z"/><path d="M509.62,942.4a215.2,215.2,0,0,0-15.2,25.35l-14.19-8.61a2.59,2.59,0,0,1-1.14-1.08,2.56,2.56,0,0,1,0-1.4q1.32-7.8,2.62-15.6a16.8,16.8,0,0,0,6.21-.93,2.38,2.38,0,0,0,1.62-1.25,2.44,2.44,0,0,0-.16-1.59A50.89,50.89,0,0,0,479,919.47c-3-3.34,2.11-5.22,5.09-5.12,3.86.13,5.79,2.53,8.54,5.19C495,921.78,511.8,939.29,509.62,942.4Z"/><path d="M601.24,939.74c1-.09,2.18,0,2.64.81A2.5,2.5,0,0,1,604,942a23.17,23.17,0,0,1-1.51,5.67c-.19.45-.39.9-.61,1.34a2.75,2.75,0,0,1-1.39,1.54,3,3,0,0,1-2.17-.45c-3.2-1.54-9.44-1.64-8.22-5.76C591.15,940.8,598.45,940,601.24,939.74Z"/><path d="M600.91,879.27l16.79-4.95,2.55,12.22q-11.57-2.44-22.93-5.71c.89-2.78,1.77-5.56,2.66-8.33a13,13,0,0,0,5,.76l-3.13,4.46"/><path d="M589.31,904.7a50.26,50.26,0,0,1-8.94,9.6,1.24,1.24,0,0,1-1,.4,1.26,1.26,0,0,1-.69-.52,121.9,121.9,0,0,1-15.86-25.46c-4.48-9.66,6.29-2.62,9.46-.14C574,889.88,590.18,903.47,589.31,904.7Z"/><path d="M668.25,857.56l13.85-7.67c1.68,1.27,3.31,2.62,4.86,4.05.27.24.56.59.44.93a1,1,0,0,1-.57.45l-20.57,8.93a.83.83,0,0,1-1.37-.59c-.28-.88-.57-1.77-.86-2.66a1.65,1.65,0,0,1,0-1.34,1.62,1.62,0,0,1,.79-.56l7.68-3.32"/><path d="M681,817.56a2.34,2.34,0,0,0,.39-2.06,1.61,1.61,0,0,0-2.18-.49,4.59,4.59,0,0,0-1.61,1.87q-7.1,12.14-13.1,24.87c1.05-2.24,5.29-6.5,7-9C674.85,827.74,678.15,822.81,681,817.56Z"/><path d="M661.91,922.86a16.4,16.4,0,0,1-7.89,6.41c-.44.17-19.37-24.31-20.85-26.65C640.08,898.13,657.85,918.11,661.91,922.86Z"/><path d="M568.45,792.48a1.66,1.66,0,0,1-1.28,2.17,79.93,79.93,0,0,1-25.65,4.77c1.26-8.22-.51-24.32,9.71-24.29,2.58,0,11.16,0,13,.64C568.94,777.45,568.08,787.27,568.45,792.48Z"/><path d="M563.76,761.42l17.42-10.59,1.47,9.62a167.36,167.36,0,0,0-19.36,1.75l2.7-1.42"/><path d="M435.63,907.24a3.91,3.91,0,0,1-.3,2.75A3.75,3.75,0,0,1,434,911.1a62.24,62.24,0,0,1-19.07,7,253.19,253.19,0,0,1-.08-28,1.77,1.77,0,0,1,.32-1.13,1.84,1.84,0,0,1,1.28-.43l12.21-.83a4.88,4.88,0,0,1-.1-5C433.94,885.55,434.85,901.59,435.63,907.24Z"/><path d="M492.6,911.75a2.5,2.5,0,0,1,1,1,2.78,2.78,0,0,1-.11,1.92l-3.72,11.88A137.8,137.8,0,0,0,472,916.45c1.92-5.16,1.72-7.87,7.22-8.66C483.48,907.18,489.06,909.51,492.6,911.75Z"/><path d="M474.38,887.33l14.22,4.12-19.2,13,.48-15.79c0-.48.08-1.06.51-1.29a1.41,1.41,0,0,1,1,0,24,24,0,0,1,4.33,1.69"/><path d="M541.06,816.93q.2,5.9.4,11.78l-11.69-2.6A76,76,0,0,0,534,815.06l4.76.82"/><path d="M502.61,867.25a41.45,41.45,0,0,1,3.15,4.11c.26.39.52.88.3,1.29a1.25,1.25,0,0,1-.74.52l-10.23,3.94a62.5,62.5,0,0,1,1.78-11,2.82,2.82,0,0,1,.5-1.13c1.2-1.33,3.64.57,5.11-.43a1,1,0,0,1,.18,1.42"/><path d="M582.13,737.54a33.72,33.72,0,0,0,14.49-.18c2.49-.58,5.42-1.35,7.36.32a7.44,7.44,0,0,0-.2,4.23,111.65,111.65,0,0,1-25.12.14,7.46,7.46,0,0,1,1-3.45,2.57,2.57,0,0,1,3.16-1"/><path d="M434.36,943.41a3.54,3.54,0,0,1-.15,4.91L429,955.68c-2.5-4.56-13.13-21.73-9.36-25.42C426.16,923.89,432.16,939.78,434.36,943.41Z"/><path d="M402,917.64a39.54,39.54,0,0,0,5,11.85,12.72,12.72,0,0,1,2.19,4.5c.28,1.65-.43,3.62-2,4.13l-5.73-9.62a14.45,14.45,0,0,1-2.43-6c-.18-2.16.9-4.6,3-5.23a1.25,1.25,0,0,1,1.16,1.34"/><path d="M443,894.06a13.18,13.18,0,0,1,3.35,3.18,4.45,4.45,0,0,1,.46,4.41c-1,1.86-3.58,2.54-4.29,4.52A55.94,55.94,0,0,0,438,895.56a5.71,5.71,0,0,1,3.88-1"/><path d="M460,916.78a35,35,0,0,1-4.08,7.39l-10.24-7.08s5.57-.42,6-.42Z"/><path d="M556.5,812.55a.83.83,0,0,1-.36.42.81.81,0,0,1-.51,0c-2.84-.74-5.25-2.59-8-3.76-1.42-.62-2.92-1.05-4.37-1.62a48.12,48.12,0,0,1-5.21-2.53,10.9,10.9,0,0,0,.91-3.81c0,.55,9.81,3.64,10.94,4,3,1,6.22,1.25,9.11,2.32A44.77,44.77,0,0,1,556.5,812.55Z"/><path d="M578,787.88c3.2-1.46,6.63-5.17,9.86-5.94.17,1.69-1.36,3.79-2.09,5.29-1.49,3.07-2.39,6.18-3.57,9.35C581.68,796,577.27,788.23,578,787.88Z"/><path d="M576.41,768.81l-3.88,5.11a19,19,0,0,1-6.3-5.55.47.47,0,0,1-.11-.25c0-.13.1-.24.19-.33,1.87-1.78,1.92-2.28,4-1.39C571.11,766.73,575.8,769.61,576.41,768.81Z"/><path d="M653.42,765.72a2.67,2.67,0,0,1,2.32-.09,2.64,2.64,0,0,1,.84,1.17c.47,1,.94,2,1.42,3-5.82,1.91-12.68,4.06-18.83,4-.65-3.73,1.13-3.43,4-4.3C646.64,768.5,650,767,653.42,765.72Z"/><path d="M644.89,806.8c-.06.12-.15.27-.28.25a.31.31,0,0,1-.18-.12l-7.28-7.78a.73.73,0,0,1-.27-.53.75.75,0,0,1,.42-.47,23.5,23.5,0,0,0,4-2.89c1.72-1.65,2.92-3.77,4.61-5.44,1.43-1.42,4.24,3.73,4,5.18C649.27,798.79,646.45,803.27,644.89,806.8Z"/><path d="M611.39,850.3a22.78,22.78,0,0,0-4.11,8.07,69,69,0,0,1-10.14-6.91c2-1.62,4.1-4.49,6.55-3.67,1,.34,1.79,1.14,3,1.45C608.24,849.64,609.84,849.82,611.39,850.3Z"/><path d="M562.32,939.22a.78.78,0,0,1,.48,0,.84.84,0,0,1,.27.44c.72,2.21,1.43,4.42,2.15,6.63l-16.13-.55a25.1,25.1,0,0,0,.76-5.23C554,940,558.17,939.66,562.32,939.22Z"/><path d="M506.39,925.15a8.18,8.18,0,0,0,1.48,4.53l-3.08,2.83a1.08,1.08,0,0,1-.56.33,1,1,0,0,1-.81-.43,14.86,14.86,0,0,1-3.85-7.36,19.49,19.49,0,0,0,4.93-3.46,10.86,10.86,0,0,0,1.67,3.68"/><path d="M459.84,941a9.33,9.33,0,0,1,5.6,1.35,38.36,38.36,0,0,0-3.37,5.69l-7.49-5.19,2.63-3.81,2.62,1.78"/><path d="M519.37,844.78a39.54,39.54,0,0,0-1.5,8.36A9.44,9.44,0,0,1,514,852c-3.91-1.81-8.06-2.72-12-4.24,2.35-4.41,2.94-1.57,6.63-1.38S515.64,844.31,519.37,844.78Z"/><path d="M520.13,828.79a18.81,18.81,0,0,0,6.12,2.85l-3.85,5.28a42.05,42.05,0,0,0-7.68-7.92c1.76-.44,3.52-1,5.25-1.53a1.76,1.76,0,0,0,.56,1.5"/><path d="M537,834.29a30.09,30.09,0,0,1,7.92,1.88l-1.44,2.09a48.14,48.14,0,0,1-6.73-3l1.89-1.21"/><path d="M633.78,956.81a30.39,30.39,0,0,1,7.92,1.88l-1.44,2.09a49.2,49.2,0,0,1-6.73-3l1.89-1.21"/><path d="M442.12,1003.16A29.89,29.89,0,0,1,450,1005l-1.43,2.09a48.73,48.73,0,0,1-6.74-3l1.9-1.22"/><path d="M550.53,820.76l5.15-2.53a.33.33,0,0,1,.27,0,.28.28,0,0,1,.13.17l1.67,3.71a8.87,8.87,0,0,1-4.85,2.13c-1.6.18-3.53-.32-4.1-1.82a1.87,1.87,0,0,1,.1-1.6,1.26,1.26,0,0,1,1.43-.55"/><path d="M573.16,797.28a11.55,11.55,0,0,1,3.87,2.13,39.06,39.06,0,0,0-2.78,3.25l-4.35-4.83.51-.29a3.41,3.41,0,0,1,1.39-.52,1.14,1.14,0,0,1,1.19.71"/><path d="M602.17,829.21l-2.26,7.72L595.38,832l3.51-6.81,3.12,1.13a.91.91,0,0,1,.57.39.89.89,0,0,1,0,.62c-.22.83-.45,1.66-.67,2.5"/><path d="M550.16,866.3a1.42,1.42,0,0,1,.85-.15c.44.1.68.55.86,1,.37.83.74,1.66,1.1,2.49a.67.67,0,0,1,.09.45c-.06.22-.31.31-.53.38a61.88,61.88,0,0,0-10.86,4.47.64.64,0,0,1-.44.11.67.67,0,0,1-.37-.4c-1.12-2.38-3.2-6.53.42-6.72A26.46,26.46,0,0,0,550.16,866.3Z"/><path d="M559.2,909.79a1.1,1.1,0,0,1,.3.71,1.13,1.13,0,0,1-.33.65l-2.46,3c-.33-.6-.55-1.25-.85-1.87-1.61-3.31-5.16-5.27-7.1-8.4a.84.84,0,0,1-.13-.33c0-.4.45-.6.83-.73a4.42,4.42,0,0,0,2.35-1.86C553.8,904.44,556.89,906.63,559.2,909.79Z"/><path d="M602.09,1025.34q-.68-6.66-1.33-13.32l-5,2.07q.74,4.68,1.49,9.35a2.46,2.46,0,0,0,.73,1.68c.71.54,1.7.17,2.55-.1s2-.32,2.37.5"/><path d="M348.51,927.83a6.22,6.22,0,0,0-1.23,5.87A22.24,22.24,0,0,1,342,929a53.35,53.35,0,0,0,6.73-4.21L347.9,929"/><path d="M548.36,671.94l-8.24,3.6a31,31,0,0,1-1.93-4.56,1.53,1.53,0,0,1-.11-.89c.11-.46.57-.73,1-.94a12.9,12.9,0,0,1,5.08-1.73c2.69-.12,5.55,2.07,5.31,4.75l-1.07-.08"/><path d="M474.48,948.17a108.34,108.34,0,0,1-35.33,23.22c-8.47-14.65-14-30.79-19.4-46.82-1-2.83-1.9-6.05-.51-8.69a11.29,11.29,0,0,1,3.11-3.28l21-16.76C443.46,895.73,473.05,945.19,474.48,948.17Z"/><path d="M596,700.33a3.63,3.63,0,0,1,2.15,1,3.88,3.88,0,0,1,.66,2.12q.93,9,1.87,18a122.09,122.09,0,0,1-35.59-1.58,2.37,2.37,0,0,1-1.16-.46,2.34,2.34,0,0,1-.59-1.5c-.73-5-2.31-10.62-2.27-15.7,0-5.63,2.77-4.66,7.16-3.57C577.5,701,586.77,698.55,596,700.33Z"/><path d="M567.83,689.82l11.3-3.81,3.06,6.47-11.42,2.79a2.6,2.6,0,0,1-2.07-.08,2.44,2.44,0,0,1-.77-1.28,15.44,15.44,0,0,1-.73-4.48"/><path d="M618.38,682.7a1.11,1.11,0,0,1-1.68,1l-22.61-6.15c-.33-.09-.71-.23-.8-.56a1.08,1.08,0,0,1,.12-.63c1-2.26,2.61-9.09,4.54-10.52s6.07.25,8.47,1.16a62.34,62.34,0,0,0,14.84,3.52C620.89,674.5,619.39,678.76,618.38,682.7Z"/><path d="M617.05,696.91a24,24,0,0,1,.9,9.31l-9.15-12.89,6.14.92a1.23,1.23,0,0,1,.65.22,1.26,1.26,0,0,1,.37.69c.34,1.09.67,2.19,1,3.29"/><path d="M648.2,692.05c-1.23,2.06-2.55,4.07-4,6a1,1,0,0,1-.43.39c-.42.13-.76-.33-1-.72L641,694a1.73,1.73,0,0,1-.28-1.07,1.5,1.5,0,0,1,.41-.71,5.17,5.17,0,0,1,6.94-.41"/><path d="M555.58,686.88a1,1,0,0,1,.78,0,1.05,1.05,0,0,1,.35.48,23.54,23.54,0,0,1,1.5,4.5l-14.44,1.45c-1-3.79-.37-3.54,3.37-4.42Z"/><path d="M570.71,664.39a36.42,36.42,0,0,0,5.45,9.59,10.21,10.21,0,0,0-4.42-.53,1.24,1.24,0,0,1-.89-.12,1.17,1.17,0,0,1-.31-.54L567.39,664l3.23.6"/><path d="M391.68,931.65A75.1,75.1,0,0,1,395,947.42L383.62,944l-.12-14.71a7.92,7.92,0,0,1,7.06,1.63"/><path d="M417.65,965.29a2.71,2.71,0,0,1,0,1.47c-.49,1.14-2.13,1-3.33.71l-4.62-1.22c-.68-.17-1.49-.5-1.55-1.2a1.73,1.73,0,0,1,.23-.88c2.89-6.23,3.89-12.55,5-19.22C416.44,946.06,417,961.58,417.65,965.29Z"/><path d="M394.42,956.2a11.91,11.91,0,0,1,5.43,1,1.23,1.23,0,0,1,.63.46,1.49,1.49,0,0,1-.15,1.3,8.78,8.78,0,0,0-.51,5.09l-4.38-2.08a85.35,85.35,0,0,1-8.49-4.42,6.15,6.15,0,0,0,3.06-1.35c1-.6,2.2-1.08,3.19-.53.63.35,1.36,1.08,1.9.6"/><path d="M405,944.65a27.79,27.79,0,0,0,.24,5.62l-4-2.86,2.28-3.38a1.28,1.28,0,0,1,.48-.5A.88.88,0,0,1,405,944a2.11,2.11,0,0,1,.12,1.27"/><path d="M439.06,975c.5,0,1.1,0,1.35.47a1.35,1.35,0,0,1,.14.63c.08,1.31.17,2.62.25,3.93-1.92-.58-10.85-2.09-10.25-4.23C431.42,972.68,437.4,974.92,439.06,975Z"/><path d="M381.8,923.13a.74.74,0,0,1,.42.26.84.84,0,0,1,0,.66c-.17.56-.33,1.12-.5,1.69a.77.77,0,0,1-.19.37c-.28.25-.71,0-1-.28-4.15-3.68-10.39-3.72-15.23-6.45.69.39,2.83-.43,3.76-.28s2.21.78,3.24,1.06C375.51,921,378.67,922,381.8,923.13Z"/><path d="M470.26,977.76l-4.53,5.65a.49.49,0,0,1-.8.14,51.47,51.47,0,0,1-10.3-9.13,19.52,19.52,0,0,0,4.55-4.87C459.6,968.91,469.19,977.35,470.26,977.76Z"/><path d="M539.9,934.16q-1.59,5.45-3.17,10.89a638.57,638.57,0,0,0-67.51-40.61c1.52.79,6-11,12.11-8,2,1,3.42,4.41,5.09,5.92,2.85,2.59,6.57,4.46,9.9,6.34C511,916.91,527.32,922.65,539.9,934.16Z"/></g></g></g></svg>