<svg xmlns="http://www.w3.org/2000/svg" xmlns:xlink="http://www.w3.org/1999/xlink" viewBox="0 0 702.81 728.33"><defs><style>.cls-1{fill:none;}.cls-2{clip-path:url(#clip-path);}.cls-3{fill:#fff;}</style><clipPath id="clip-path"><path class="cls-1" d="M53.19,221.05l-.92-.07a4.65,4.65,0,0,1,1.86.67A3.4,3.4,0,0,0,53.19,221.05Zm.82,4.21a1.9,1.9,0,0,0-.37-.26,3.73,3.73,0,0,1,.45.44Zm-4.29,51.12h0l.09-.05Zm33.42-19.55h0a.71.71,0,0,0,0,.14l.05,0C83.21,256.61,83.19,256.52,83.14,256.83Zm-.65.63.06,0C82.6,257,82.59,256.88,82.49,257.46Zm-20.73,56.7a1.58,1.58,0,0,1-.42-.31,1.1,1.1,0,0,0,.28.29l.29.15A.87.87,0,0,1,61.76,314.16Zm-3-45.73c0,.73-.08,1.75-.19,3.26,0,0,.08,0,.12-.07C59,268.74,58.86,268.45,58.77,268.43Zm0-1.11c-.15,1.3-.06,1.09,0,1.11C58.77,268,58.77,267.6,58.75,267.32Zm-8.94,9-.09.05h0Zm4.28-50.9a3.73,3.73,0,0,0-.45-.44,1.9,1.9,0,0,1,.37.26Zm.64,29.65c-.23,1.64-.48,3.37-.77,5.21-1.71,11-1.64,7-3.62,15.74l-.53.29c2-8.67,2-4.82,4.09-16.31C54.2,258.3,54.47,256.66,54.73,255.09Zm-.64-29.65a3.73,3.73,0,0,0-.45-.44,1.9,1.9,0,0,1,.37.26Zm.64,29.65c-.23,1.64-.48,3.37-.77,5.21-1.71,11-1.64,7-3.62,15.74l-.53.29c2-8.67,2-4.82,4.09-16.31C54.2,258.3,54.47,256.66,54.73,255.09Zm7,59.07a1.58,1.58,0,0,1-.42-.31,1.1,1.1,0,0,0,.28.29l.29.15A.87.87,0,0,1,61.76,314.16Zm21.38-57.33h0l0,.15h0l.05,0C83.21,256.61,83.19,256.52,83.14,256.83Zm-1.31-38.95a7.62,7.62,0,0,0-1.12-.9,7.11,7.11,0,0,1,1.17,1.16Zm1.35,39.06-.05,0a.71.71,0,0,1,0-.14l0,.15,0,0c.07-.41.08-.42.06-.19C83.19,256.52,83.21,256.61,83.18,256.94ZM577.81,77.31C468.37,31.94,330.67-18.56,223.19,56L204.68,0,114.1,41S100.27,66.57,94.68,81a85.28,85.28,0,0,1,2.44,10.45c2.69,15-22,20.75-18.67-8.87s20-28.31,8.8-29.2-4.77,3.17-14.43,18.78-12.48,22.47-.9,31.43a82.78,82.78,0,0,0,9.87,6.6c1.23-3,3.82-4.53,8.64-3.84-4-.41-6.09,1.6-7,4.78,8.31,4.47,16.58,6.94,22.59,6.1,8.82-1.24,12.81-14.74,19-11,1.76,1,1.51,2.64.46,4.44a85.18,85.18,0,0,1,11,1.61c11.13,2.18-5.15,15.67-14.51,11.7-6.72-2.82.87-8.79,3.48-13.31-8.19-.5-15.7,1.43-14.64,12.11.89.21,2.49,1.14,5.19,3,13.79,9.45,24.48,1,7.51,23.1S88.16,138.6,88.16,138.6,81,120.12,83.47,111.1c-.55-.3-1.11-.61-1.68-.94-2.69,6.43,1.21,19.4,3.06,29.46,2.45,13.3,27.3,34.69,52.24,10.16-1.48,3.05-3.06,6.41-4.82,10.17-9.09,20.21-24,20.86-29.66,44.54-2,8.38-3.16,13.7-4,17.82l-17-5.17.2.74,0,.26A7.11,7.11,0,0,0,80.71,217a7,7,0,0,0-3.4-1.45c-3.1-.48-6.32.74-9.34,6.54l-14.78-1a3.4,3.4,0,0,1,.94.6,4.65,4.65,0,0,0-1.86-.67l.92.07a5,5,0,0,0-1.38-.41c-4-.62-7.89,2.44-12.56,37.13-2.11,15.66-1.51,15.23-2,25.62l.08-.05c.55-10.66,0-10.39,2.37-25.52.22-1.5.46-2.94.69-4.31-.21,1.46-.43,3-.64,4.59-2.07,15.37-1.45,14.69-2,25l12-6.73-12,6.67c.58-10.57,0-10.07,2.35-24.9,5.1-32.72,7.81-34.39,11.62-33.79a4.63,4.63,0,0,1,1.9.62h0a1.9,1.9,0,0,1,.37.26l.08.18,1.52,3.71c.88,4.62.59,13.51-2.11,30.81-1.76,11.26-1.74,7.54-3.78,16.42l.09,0,.62-.34c1.94-8.53,1.94-4.45,3.92-15.65.92-5.2,1.61-9.71,2.11-13.62h0c1.53-3,2.69-3.61,3.54-3.2h0a6.21,6.21,0,0,1,1.2,2.5h0c-.69,4.09-1.37,8.7-2,13.89-.77,6.38-.5,5.84-.45,7.39.09-.56.2-1.41.38-2.67-.87,7.45.45.29-.05,6.77l-.38.2s-.09,0-.12.07c-11.87,6.36-24.25,12.88-32.79,20.16C5.28,309.32-4.16,325.55,20.66,350c12.62,7.83,17.3,9.54,14.83,19s-6.39,15.7-15,20.27-9.75,18.14-1.23,33.2c8.36,14.79,8.38,16,8.38,16S0,450.93,0,463.7s10.89,12.48,14.83,19S22,493.61,17,506.59s-13.72,49.94,30.8,68.58S145.24,603,145.5,639.32s-1.59,29.22,14.48,72c0,0,4,12.4,2.28,17.05L475.59,613.12c5.22-16.65,22.6-48.06,74.6-105,92.87-101.6,67.35-32.84,124.65-115.36S702.14,128.87,577.81,77.31ZM54,260.3c-1.71,11-1.64,7-3.62,15.74l-.53.29c2-8.67,2-4.82,4.09-16.31.3-1.72.57-3.36.83-4.93C54.5,256.73,54.25,258.46,54,260.3Zm23.21-40.61a7.11,7.11,0,0,1,3,1.07l0,0A7.57,7.57,0,0,1,82,223.05l-11.24-.79A6.26,6.26,0,0,1,77.17,219.69ZM60.44,241.48h0c-.84-.79-2-.81-3.53,1.25a85.53,85.53,0,0,0,.5-11.16l6.73.84c-.81,3-1.63,6.52-2.38,10.6A3.45,3.45,0,0,0,60.44,241.48Zm1.18,72.66a1.1,1.1,0,0,1-.28-.29,1.58,1.58,0,0,0,.42.31.87.87,0,0,0,.15.13Zm20.93-56.73-.06,0c-6.32,4.71-14.64,9.26-23.29,13.89.7-7.82-.29-2.14,1.09-11,2-12.68,3.86-21.56,5.75-27.71l5.81.72c-1.61,2.21-4,9.88-3,11.84,0,0,4.5,6.36,5.31-3.68.38-4.64.36-6.83.11-7.85l10.1,1.26a144.38,144.38,0,0,1-1.66,22.35Zm.58-.43h0l0,0c.07-.41.08-.42.06-.19,0-.31.07-.22,0,.11Zm.58-.45c.07-.39.09-.35.05,0A.1.1,0,0,1,83.71,256.53Zm9.73-12.2c-1.13,4.15-4.51,8.06-9.29,11.86A152.36,152.36,0,0,0,86,235.12l9.54,1.2C95,238.54,94.31,241.12,93.44,244.33Zm-31.53,70-.29-.15a1.1,1.1,0,0,1-.28-.29,1.58,1.58,0,0,0,.42.31A.87.87,0,0,0,61.91,314.29Zm28.52-208c-4-.41-6.09,1.6-7,4.78-.55-.3-1.11-.61-1.68-.94C83,107.21,85.61,105.63,90.43,106.32ZM111.88,122c4.57,19.64-4.72,18.58-12.77,18.27s-13.47-17.46-10.36-28.14c-3.09,10.36,9.82,34.84,19.36,24.68,7.68-8.19-.52-19.31,3.17-18.4A28.56,28.56,0,0,0,111.88,122ZM94,110.7c2.68-.4-4.52,9.49-.31,18.62,5.23,11.34,17.5-11.15,16.77-21.81.71,11-5.37,27.21-11,26.44s-12.2-1-6.37-19.78C93.51,112.92,93.82,111.78,94,110.7Zm46.14,6.52c-10.62,16.68-15.22,11.56-19.62,7.56s4-19.22,13-25.67c-8.75,6.23-17.85,30.39-5.54,27.31,9.92-2.47,12.71-14.53,14.21-12.14C141.57,115.15,140.89,116.12,140.18,117.22Zm6.08,3.48c-17.85,8.62-19.06,1.85-20.68-3.85s13.61-14.22,24.66-15c-10.73.71-31.26,16.48-19.17,20.32,9.75,3.08,18.5-5.71,18.51-2.89C148.54,119.66,147.45,120.13,146.26,120.7Zm-16.84,10S75.7,97.75,76.69,124c-.85-22.57,40-2.52,40-2.52M148,125.37s-26.93,3.93-10.86,12.48c-79.67-24.39-62.89,18.23-62.89,18.23-13-41.78,52.6-26.64,52.6-26.64Z"/></clipPath></defs><g id="Layer_2" data-name="Layer 2"><g id="Layer_1-2" data-name="Layer 1"><g class="cls-2"><path class="cls-3" d="M211.44,565.72l-3.6-6.52,36.35-30.09V489.3l49.6-15.93-1-79.72-52.52-18.14-16.47-20,70-21.25V222l-21.13,10.14L218,209.63s12.22-30.76,20-54.37L-17.37,8.7-212.08,120.48l3,31.72h-23.39l-4.75,16.5-22.57-1.82-7.95-14.45-60.78,34.89v39.91c12.49,5,22.49,9.17,22.49,9.17l-6.37,15.72,19.51,24.25L-306,301.09l-22.49-18.26v94.81l27.31,14.72L-315.5,515l-13,10.76v18.76L-17.37,723.19,221.84,585.87,211,566.12Z"/><polygon class="cls-3" points="303.5 332.1 233.49 353.35 249.96 373.32 303.5 382.17 365.22 392.37 312.6 329.33 303.5 332.1"/><path class="cls-3" d="M302.79,489.67l-49.6,15.92V545.4l-35.86,29.69,10.93,19.84-.53.31,3.65,6.62,21.81,39.59s93.44-48,93.3-60.52-34.59-94.19-34.59-94.19Z"/><polygon class="cls-3" points="211.44 565.72 210.96 566.12 221.84 585.87 222.37 585.56 211.44 565.72"/><path class="cls-3" d="M280.69,226l21.13-10.15,48.25-23.17-97.86-67.73c-.13,4.22-2.72,13.45-6.24,24.15-7.76,23.6-20,54.37-20,54.37Z"/><path class="cls-3" d="M347.67,532.88a132.83,132.83,0,0,0,13.51,30.32,292.07,292.07,0,0,1,31.24-32.56l-28.18-13.46a3.45,3.45,0,0,0-2.23-.49c-1.05.26-1.57,1.4-2,2.4l-6.31,16.51C351.55,535,349.85,533.5,347.67,532.88Z"/><path class="cls-3" d="M386.55,415.74c1.23-4.39,2.21-9,1.34-13.46-.77-4-2.95-7.52-5.14-10.93q-4.56-7.11-9.41-14a3.71,3.71,0,0,0-2.1-1.79,3.84,3.84,0,0,0-2.79,1L342,395.78a3.13,3.13,0,0,0-1.12,5.09c1.92,3.29,9.29,12,8.92,16-.53,5.63-6.88,5.31-8.47,10.34-3.24,10.24,2.46,16.68,10.79,23.28,11.62,9.2,13.31,8.56,21.49-4.75A118.07,118.07,0,0,0,386.55,415.74Z"/><path class="cls-3" d="M372.84,308.46a5.92,5.92,0,0,0,3.12.43,5.81,5.81,0,0,0,3-2.52q12.58-16.9,24.83-34.06L313.94,270c.6,15.39,3,18.83,17.21,24Q351.9,301.48,372.84,308.46Z"/><path class="cls-3" d="M317.12,344q-3.64,13.74-6.51,27.67l25.2,3.22a142,142,0,0,0,3.34-35.6,6.1,6.1,0,0,0-.72-3.19,6.23,6.23,0,0,0-2.36-1.81L320.54,326A16,16,0,0,1,313,338.9a8.89,8.89,0,0,0,3.52,4.78"/><path class="cls-3" d="M346.79,601.84a5,5,0,0,1-1.36,5.81l-9.62,11.58c-.39-20.47-4.77-37.25-9.29-56.73C339.45,566,343.89,591,346.79,601.84Z"/><path class="cls-3" d="M475.78,504.14a117.64,117.64,0,0,0-4.65-39.79,4.14,4.14,0,0,0-1.56-2.58,4,4,0,0,0-2.52-.28c-6.72.74-13.2,2.79-19.75,4.43-18.3,4.59-37.22,6.07-56,7.52,1-.11,2.47,11.26,2.55,11.93C421.8,486.08,448.67,496.4,475.78,504.14Z"/><path class="cls-3" d="M382.9,492.79c3.51,1.68,7.15,3.17,10.2,5.57s5.47,5.94,5.45,9.8a117.52,117.52,0,0,1-15.84-3.5c-3.47-1-7-2.26-9.67-4.66-7-6.26-6.82-18.88-15.28-23C366.56,481.28,373.93,488.51,382.9,492.79Z"/><path class="cls-3" d="M453.05,208.28a349.31,349.31,0,0,1,3.22-48.59L428.82,158a3.17,3.17,0,0,0-3.93,2.25q-5.58,11.81-11.15,23.59a27.75,27.75,0,0,1,7.57,7.08,4,4,0,0,1,1,3.21,4.17,4.17,0,0,1-1.71,2,84.86,84.86,0,0,1-30.91,14.42c-7.23,1.72-2.05,9.06,2.1,11.71,5.39,3.44,10.27,2,16.53,1C413.62,222.43,453.07,214.53,453.05,208.28Z"/><path class="cls-3" d="M503.47,308.24c1.25,1,2.93,2.12,4.37,1.38a3.9,3.9,0,0,0,1.54-1.85,36.46,36.46,0,0,0,3.3-9.1c.17-.79.32-1.58.44-2.37a4.47,4.47,0,0,0-.45-3.4c-.75-1-2.13-1.23-3.37-1.43-5.81-.91-14.4-6.64-16.63.08C490.74,297.34,499.92,305.27,503.47,308.24Z"/><path class="cls-3" d="M446,389.81l18.2,22.45,15-14.15q-18.06-7.55-36.63-13.78-2.12,6.89-4.24,13.78a21.48,21.48,0,0,1,7.51,3.64l-.06-9"/><path class="cls-3" d="M454.16,344.49a82.28,82.28,0,0,0-3.11-21.38,2.1,2.1,0,0,0-.93-1.46,2.2,2.2,0,0,0-1.43.07,203.34,203.34,0,0,0-45.63,19.59c-15.21,8.88,6.1,9.45,12.75,9.06C419.3,350.17,454.19,347,454.16,344.49Z"/><path class="cls-3" d="M517.17,482.39q5.82,11.69,11.63,23.38c3.49-.14,7-.45,10.44-.92.59-.08,1.31-.27,1.46-.85a1.51,1.51,0,0,0-.34-1.15l-19.58-31.39c-.28-.44-.62-.93-1.14-1a1.8,1.8,0,0,0-1.28.52l-3.68,2.8a2.67,2.67,0,0,0-1.31,1.78,2.58,2.58,0,0,0,.55,1.5l7.32,11.69"/><path class="cls-3" d="M496.83,548.55c-.12,1.19-.37,2.56-1.41,3.15-1.2.68-2.81-.16-3.43-1.38a7.56,7.56,0,0,1-.44-4q1.79-23.1,5.64-46c-.68,4,1.08,13.77,1,18.81C498,529,497.85,538.73,496.83,548.55Z"/><path class="cls-3" d="M570.17,388a27,27,0,0,0-4.7-16.09c-.44-.65-49.32,14.74-53.55,16.53C517.09,401,560.16,390.65,570.17,388Z"/><path class="cls-3" d="M337.11,476a3.69,3.69,0,0,0,1.1-2.43c0-.64-1.44-1.69-.8-1.72,18.41-.9,1.25-14-30.42-30.52-6,12.3-23.64,32.45-9.7,42,3.51,2.41,15.14,10.53,18.37,11.38C323.6,496.78,331.68,482.68,337.11,476Z"/><path class="cls-3" d="M284.16,514.53q6.87,15.33,13.73,30.67L309,533.56A274.35,274.35,0,0,1,284.26,513l2.33,4.47"/><path class="cls-3" d="M319.11,186.46c1.06-1.15,2.16-2.46,2.19-4a6.44,6.44,0,0,0-.83-2.8,102.62,102.62,0,0,0-19.34-27.4A416.85,416.85,0,0,0,274.64,190a2.23,2.23,0,0,0,.7,3.62l15.84,12.58a8,8,0,0,0-4.9,6.75C296.34,214.24,312.72,193.38,319.11,186.46Z"/><path class="cls-3" d="M329.12,244.21a4.28,4.28,0,0,0,2.33-.37,4.4,4.4,0,0,0,1.65-2.7q3.09-9.78,6.16-19.58a229.46,229.46,0,0,1-33.81-3.09c-2.25,8.79-5.07,12.27,1.66,18.49C312.38,241.84,322.2,243.91,329.12,244.21Z"/><path class="cls-3" d="M281.27,260.17l23.25,7.77-13.84-35.69-14.25,21.84c-.43.67-.88,1.52-.51,2.22a2.22,2.22,0,0,0,1.36.91,40,40,0,0,0,7.49,1.77"/><path class="cls-3" d="M305.63,418.05l11.67-15.56L298.92,395A124.2,124.2,0,0,1,294.24,414l7.25,3.36"/><path class="cls-3" d="M300.77,313.85a71.18,71.18,0,0,0,8.17-2.61c.72-.28,1.54-.71,1.62-1.47a2.17,2.17,0,0,0-.53-1.4l-10.2-14.93a101.22,101.22,0,0,0-7.91,16.5,4.39,4.39,0,0,0-.39,2c.38,2.92,5.5,2.63,6.55,5.38a1.73,1.73,0,0,0,1.58-1.76"/><path class="cls-3" d="M286.64,564.08a55.91,55.91,0,0,1,19.56,13.84c2.84,3.13,6.11,6.93,10.33,6.47a12.19,12.19,0,0,1,3.71-5.91,185.13,185.13,0,0,0-34.07-23.75,12.34,12.34,0,0,0-1.87,5.62c0,2,1.35,4.14,3.35,4.34"/><path class="cls-3" d="M351.52,136.28a7.73,7.73,0,0,0,3.67-2.62,7.77,7.77,0,0,0,.75-4.17l-.12-14.82c-7.7,3.83-38.38,17.09-36.73,25.63C321.93,155,345.1,139.15,351.52,136.28Z"/><path class="cls-3" d="M283.18,140.85a65.51,65.51,0,0,1,18-11.37c2.56-1.08,5.28-2.06,7.22-4s2.84-5.32,1.14-7.51l-16.89,7.66c-3.26,1.48-6.65,3.05-8.94,5.81s-3.11,7.05-.89,9.86a2.09,2.09,0,0,0,2.85-.72"/><path class="cls-3" d="M316.7,211.21a22,22,0,0,0,7.58-1.16c2.37-1,4.48-3,4.79-5.54.41-3.44-2.49-6.79-1.6-10.14a92,92,0,0,1-16.11,10.15,9.42,9.42,0,0,0,4.3,5.06"/><path class="cls-3" d="M361.26,196.37a57.49,57.49,0,0,0,1.42-13.84H342s7.2,5.8,7.72,6.15Z"/><path class="cls-3" d="M322.53,438.47a1.34,1.34,0,0,0-.1-.91,1.38,1.38,0,0,0-.7-.45c-4.57-1.67-9.6-1.43-14.38-2.37-2.52-.5-5-1.33-7.48-1.92a81.54,81.54,0,0,0-9.48-1.45,18.13,18.13,0,0,1-2.36,6c.48-.77,16.79,4.28,18.7,4.81,5,1.39,9.65,4.15,14.6,5.41A76.74,76.74,0,0,0,322.53,438.47Z"/><path class="cls-3" d="M328.57,492.09c3,5,4.15,13.23,7.83,17.29,1.82-2.13,1.72-6.41,2.14-9.11.86-5.56,2.58-10.62,4-16C341.16,484.56,327.85,490.9,328.57,492.09Z"/><path class="cls-3" d="M308.36,516.38c-.15-3.52-.31-7-.46-10.56a31.65,31.65,0,0,0-13.82,1.6.8.8,0,0,0-.39.24.76.76,0,0,0,0,.63c.86,4.15.45,4.88,4.16,5.65C299.18,514.22,308.29,514.72,308.36,516.38Z"/><path class="cls-3" d="M410.31,592.82c.77,1.08,1.73,2.27,3.06,2.31a4.51,4.51,0,0,0,2.26-.8l4.8-2.79c-6.11-8-13.43-17.39-21.86-23.1-4.39,4.45-1.69,5.71,1.42,9.6C403.71,582.7,406.84,588,410.31,592.82Z"/><path class="cls-3" d="M437.45,529.2c.05-.22.06-.51-.14-.61a.52.52,0,0,0-.35,0l-17.25,3.7a1.22,1.22,0,0,0-.87.47,1.19,1.19,0,0,0,.12,1,38.19,38.19,0,0,1,2.67,7.63c.78,3.85.42,7.84,1.14,11.7.61,3.26,9.3-1.08,10.35-3.25C435.87,544.15,436.26,535.45,437.45,529.2Z"/><path class="cls-3" d="M432.89,438.87a37.19,37.19,0,0,1,2-14.79,115,115,0,0,0-20.33-.15c1.17,4,1.34,9.92,5.45,11.11,1.74.51,3.51.14,5.44.85C428,436.8,430.33,438.06,432.89,438.87Z"/><path class="cls-3" d="M450,272.43a1.28,1.28,0,0,0,.7.38,1.31,1.31,0,0,0,.78-.34l9.19-7-22.49-14.39a41.07,41.07,0,0,1-3.89,7.79C439.35,263.48,444.76,267.94,450,272.43Z"/><path class="cls-3" d="M360.55,239a13.55,13.55,0,0,1,6.29-4.75l-1.53-6.71a1.78,1.78,0,0,0-.45-1,1.73,1.73,0,0,0-1.5-.18,24.77,24.77,0,0,0-12.19,6.36,32.29,32.29,0,0,1,3.45,9.3,18,18,0,0,1,5.74-3.41"/><path class="cls-3" d="M383.93,163.47a15.59,15.59,0,0,0,8.91,3.41,61.75,61.75,0,0,1,.78-10.86h-15.1c0,2.55,0,5.09,0,7.64l5.26,0"/><path class="cls-3" d="M302.38,360a65,65,0,0,1,5.84-12.72c-1.85-1.27-4.16-1.62-6.37-2-7-1.22-13.55-3.88-20.4-5.54-.94,8.16,2.54,4.89,7.74,8.07S296.85,357.13,302.38,360Z"/><path class="cls-3" d="M288.32,382.37a31.16,31.16,0,0,1,11,1.87c-.09-3.58-.17-7.17-.26-10.76A69.06,69.06,0,0,1,281.15,377q3,3.39,5.71,7A2.92,2.92,0,0,1,289,382.5"/><path class="cls-3" d="M316.44,390.71A50.4,50.4,0,0,0,329,395.6c0-1.39,0-2.78,0-4.18a81,81,0,0,0-12-2.29l1.43,3.42"/><path class="cls-3" d="M563.9,315.66a49.49,49.49,0,0,0,12.56,4.89c0-1.39,0-2.78,0-4.17a81.18,81.18,0,0,0-12-2.3l1.44,3.42"/><path class="cls-3" d="M418.47,62.68A49.64,49.64,0,0,0,431,67.57c0-1.39,0-2.78,0-4.17a81.05,81.05,0,0,0-12-2.3l1.43,3.42"/><path class="cls-3" d="M322.14,421.77l4.62,8.24c.08.14.18.29.34.32a.53.53,0,0,0,.34-.11l5.77-3.47a14.6,14.6,0,0,0-4.59-7.43c-2-1.74-5.11-2.88-7.31-1.37A3,3,0,0,0,320,420.2a2.07,2.07,0,0,0,1.43,2.09"/><path class="cls-3" d="M330.8,474.79a19.23,19.23,0,0,0,7.27.74,68.5,68.5,0,0,1-.72-7L326.87,471c.15.29.29.58.43.87a5.48,5.48,0,0,0,1.4,2A1.9,1.9,0,0,0,331,474"/><path class="cls-3" d="M400.44,458.77l4.2-12.57-10.82,2.44-1.65,12.52,5.32,1.4a1.15,1.15,0,0,0,1.7-.85c.47-1.35.95-2.69,1.44-4"/><path class="cls-3" d="M364.61,359.75a2.54,2.54,0,0,0,1,1,2.46,2.46,0,0,0,2.08-.51l3.85-2.33a1.18,1.18,0,0,0,.54-.52c.12-.36-.13-.72-.36-1a102.09,102.09,0,0,1-10.57-16.24,1.08,1.08,0,0,0-.5-.57,1.06,1.06,0,0,0-.88.2c-3.77,2.17-10.51,5.83-5.76,9.49C358.14,352.44,361.56,355.22,364.61,359.75Z"/><path class="cls-3" d="M418,309.35a1.45,1.45,0,0,0,1.23-1.87l-.51-6.39c-1,.51-1.94,1.18-2.93,1.74-5.31,3-12,2.29-17.59,4.72a1.32,1.32,0,0,0-.49.31c-.43.51.05,1.24.45,1.77a7.28,7.28,0,0,1,1.43,4.72C405.56,311.53,411.85,311.46,418,309.35Z"/><path class="cls-3" d="M94,605c-1.25-1-2.93-2.11-4.37-1.37a3.93,3.93,0,0,0-1.54,1.84,36.68,36.68,0,0,0-3.3,9.11c-.17.78-.32,1.57-.44,2.37a4.45,4.45,0,0,0,.45,3.39c.75,1,2.13,1.24,3.37,1.43,5.81.91,14.4,6.64,16.63-.08C106.77,615.89,97.59,608,94,605Z"/><path class="cls-3" d="M585.41,193.14,571,209.93l-4.81-7.46,10.85-11.28a4.13,4.13,0,0,1,2.58-1.58c1.47-.06,2.49,1.36,3.38,2.53s2.44,2.31,3.7,1.55"/><path class="cls-3" d="M219.91,76.84a10.19,10.19,0,0,1,3.87-9.11,37.05,37.05,0,0,0-11.62,1.41,84.5,84.5,0,0,1,5.19,12l2.86-6.52"/><path class="cls-3" d="M178.75,621.22l-7.83-12.62A52.52,52.52,0,0,0,164,613a2.64,2.64,0,0,0-1,1.1,2.77,2.77,0,0,0,.48,2.2c1.42,2.62,2.91,5.31,5.28,7.11,3.55,2.69,9.51,2.4,11.71-1.45l-1.53-.9"/><path class="cls-3" d="M410.64,167.49a178.27,178.27,0,0,0-26.19-64.59c-25.37,11.88-48.08,28.59-70.61,45.19-4,2.93-8.29,6.4-8.89,11.29-.31,2.48.42,5,1.14,7.35q6.38,21.2,12.74,42.39C318.91,209.37,405.88,170.19,410.64,167.49Z"/><path class="cls-3" d="M270.45,627.5a6,6,0,0,0,3.88.68,6.36,6.36,0,0,0,2.89-2.26l19.54-22.63A202.5,202.5,0,0,0,246.81,572a3,3,0,0,0-4.24,1c-5.74,6.13-13.16,12.21-17.9,19.13-5.25,7.65-.62,8.91,6.38,11.55C245.8,609.29,256.16,621.24,270.45,627.5Z"/><path class="cls-3" d="M222.13,615.29,233.93,631l10.26-5.89-12.91-14.49c-.78-.88-1.72-1.83-2.9-1.83a4,4,0,0,0-2.24,1,25.75,25.75,0,0,0-5.24,5.39"/><path class="cls-3" d="M284.25,672.35a1.83,1.83,0,0,0-1.38-2.89l-36.59-12.88c-.53-.19-1.18-.36-1.61,0a1.64,1.64,0,0,0-.43,1c-.79,4-5,14.75-3.75,18.5s8.49,5.36,12.63,6.37c9.08,2.24,15.1,5,23.52,9.17C279.93,685.82,281.91,678.63,284.25,672.35Z"/><path class="cls-3" d="M295.85,651.86a39.68,39.68,0,0,0,10-11.76L281.23,649l9.23,4.51a1.66,1.66,0,0,0,2.25-.26l4.47-3.51"/><path class="cls-3" d="M333.68,687.68q.4-5.92.28-11.87a1.52,1.52,0,0,0-.22-.92c-.45-.57-1.35-.27-2,.07l-6.08,3.31a2.86,2.86,0,0,0-1.39,1.19,2.48,2.48,0,0,0-.11,1.35,8.54,8.54,0,0,0,9.07,7.06"/><path class="cls-3" d="M202.67,607.77a1.76,1.76,0,0,0,1.08.71,1.68,1.68,0,0,0,.93-.32,37.34,37.34,0,0,0,6.28-4.69L192.68,588c-4.92,4.21-3.85,4.44.41,9.15C196.29,600.66,199.47,604.22,202.67,607.77Z"/><path class="cls-3" d="M202.07,652.41a60.13,60.13,0,0,1,16.46-7.87,16.65,16.65,0,0,1-6.52-3.43,2,2,0,0,0-1.32-.66,2,2,0,0,0-.95.43l-12.58,8.94,5,2.23"/><path class="cls-3" d="M282.3,112.17A124.43,124.43,0,0,0,301.65,93.9L283,87.85,269,107.64a13.12,13.12,0,0,0,11.15,4.42"/><path class="cls-3" d="M349.41,91a4.19,4.19,0,0,0,1.34-2c.42-2-1.92-3.37-3.86-4.07l-7.44-2.7c-1.09-.39-2.5-.71-3.25.17a2.93,2.93,0,0,0-.51,1.42c-1.95,11.14-6.55,20.64-11.34,30.7C329.61,115.88,345.06,95.42,349.41,91Z"/><path class="cls-3" d="M309.2,81.5a19.81,19.81,0,0,0,8.3,3.78,2.21,2.21,0,0,0,1.3,0c.68-.32.86-1.17,1-1.9A14.39,14.39,0,0,1,323.93,76L316,74.68a143.86,143.86,0,0,0-15.73-2c1.54,1.06,2.15,3,2.89,4.71s2,3.52,3.85,3.71c1.19.11,2.86-.19,3.15,1"/><path class="cls-3" d="M312.7,107.06a46.89,46.89,0,0,1,5.63-7.38l-8.2.08-.08,6.72a2,2,0,0,0,.19,1.12,1.46,1.46,0,0,0,1.9.37,3.61,3.61,0,0,0,1.36-1.6"/><path class="cls-3" d="M387.68,98c.69.45,1.53,1,2.28.63a2.29,2.29,0,0,0,.79-.73l4-5.08c-3.16-1-16.75-7.36-18-3.89C375.13,93.9,385.38,96.48,387.68,98Z"/><path class="cls-3" d="M260.79,114.43a1.32,1.32,0,0,0,.83,0,1.29,1.29,0,0,0,.62-.9c.31-.91.61-1.83.92-2.74a1.34,1.34,0,0,0,.09-.68c-.15-.61-1-.64-1.62-.56-9.12,1.08-17.66-4.71-26.81-5.56,1.29.12,3.44,3.25,4.85,3.91,1.57.74,3.74,1,5.41,1.61C250.26,111.35,255.49,113,260.79,114.43Z"/><path class="cls-3" d="M432.81,123.47q-.4-6-.83-11.91a1.13,1.13,0,0,0-.25-.76,1.15,1.15,0,0,0-.71-.18,85.93,85.93,0,0,0-22.64,2.7,32.31,32.31,0,0,1,1.6,10.87C410,125.44,431,123,432.81,123.47Z"/><path class="cls-3" d="M414.68,258.25l6-17.72a1064.53,1064.53,0,0,1-130.27-8.37c2.82.36-2.18,20.61,8.93,22.23,3.61.53,8.81-2.75,12.5-3.23,6.33-.83,13.16.12,19.48.71C359,254.46,386.69,262,414.68,258.25Z"/></g></g></g></svg>